<svg xmlns="http://www.w3.org/2000/svg" xmlns:xlink="http://www.w3.org/1999/xlink" width="1080" zoomAndPan="magnify" viewBox="0 0 810 809.999993" height="1080" preserveAspectRatio="xMidYMid meet" version="1.0"><defs><filter x="0%" y="0%" width="100%" height="100%" id="7d444dd9ac"><feColorMatrix values="0 0 0 0 1 0 0 0 0 1 0 0 0 0 1 0 0 0 1 0" color-interpolation-filters="sRGB"/></filter><g/><clipPath id="3de33092d5"><path d="M 89.863281 89.863281 L 720.136719 89.863281 L 720.136719 720.136719 L 89.863281 720.136719 Z M 89.863281 89.863281 " clip-rule="nonzero"/></clipPath><clipPath id="b8312d89c8"><path d="M 405 89.863281 C 230.953125 89.863281 89.863281 230.953125 89.863281 405 C 89.863281 579.046875 230.953125 720.136719 405 720.136719 C 579.046875 720.136719 720.136719 579.046875 720.136719 405 C 720.136719 230.953125 579.046875 89.863281 405 89.863281 Z M 405 89.863281 " clip-rule="nonzero"/></clipPath><clipPath id="83fdc7693c"><path d="M 89.863281 89.863281 L 719.863281 89.863281 L 719.863281 719.863281 L 89.863281 719.863281 Z M 89.863281 89.863281 " clip-rule="nonzero"/></clipPath><clipPath id="f1ac9cb5e7"><path d="M 404.996094 89.863281 C 230.953125 89.863281 89.863281 230.953125 89.863281 404.996094 C 89.863281 579.039062 230.953125 720.132812 404.996094 720.132812 C 579.039062 720.132812 720.132812 579.039062 720.132812 404.996094 C 720.132812 230.953125 579.039062 89.863281 404.996094 89.863281 Z M 404.996094 89.863281 " clip-rule="nonzero"/></clipPath><clipPath id="2853d88c56"><path d="M 116.566406 267.722656 L 546.316406 267.722656 L 546.316406 542.222656 L 116.566406 542.222656 Z M 116.566406 267.722656 " clip-rule="nonzero"/></clipPath><clipPath id="4043ded814"><path d="M 331.574219 267.722656 C 212.828125 267.722656 116.566406 329.179688 116.566406 404.996094 C 116.566406 480.808594 212.828125 542.269531 331.574219 542.269531 C 450.320312 542.269531 546.582031 480.808594 546.582031 404.996094 C 546.582031 329.179688 450.320312 267.722656 331.574219 267.722656 Z M 331.574219 267.722656 " clip-rule="nonzero"/></clipPath><clipPath id="b6e4be3dc0"><path d="M 263.40625 267.722656 L 693.15625 267.722656 L 693.15625 542.222656 L 263.40625 542.222656 Z M 263.40625 267.722656 " clip-rule="nonzero"/></clipPath><clipPath id="20b9f964d3"><path d="M 478.414062 267.722656 C 359.667969 267.722656 263.40625 329.179688 263.40625 404.996094 C 263.40625 480.808594 359.667969 542.269531 478.414062 542.269531 C 597.160156 542.269531 693.421875 480.808594 693.421875 404.996094 C 693.421875 329.179688 597.160156 267.722656 478.414062 267.722656 Z M 478.414062 267.722656 " clip-rule="nonzero"/></clipPath><mask id="d2c915a0da"><g filter="url(#7d444dd9ac)"><rect x="-81" width="972" fill="#000000" y="-80.999999" height="971.999992" fill-opacity="0.15"/></g></mask><clipPath id="8dfbbdce6c"><path d="M 0.40625 0.722656 L 283.621094 0.722656 L 283.621094 256.917969 L 0.40625 256.917969 Z M 0.40625 0.722656 " clip-rule="nonzero"/></clipPath><clipPath id="aad1029ac5"><path d="M 142 0.722656 C 63.800781 0.722656 0.40625 58.074219 0.40625 128.820312 C 0.40625 199.566406 63.800781 256.917969 142 256.917969 C 220.199219 256.917969 283.59375 199.566406 283.59375 128.820312 C 283.59375 58.074219 220.199219 0.722656 142 0.722656 Z M 142 0.722656 " clip-rule="nonzero"/></clipPath><clipPath id="f48e010356"><rect x="0" width="284" y="0" height="257"/></clipPath><clipPath id="3261ec6eea"><path d="M 94.945312 365.625 L 173.695312 365.625 L 173.695312 444.375 L 94.945312 444.375 Z M 94.945312 365.625 " clip-rule="nonzero"/></clipPath><clipPath id="7bdc4c41ab"><path d="M 94.945312 405 L 134.320312 365.625 L 134.320312 385.3125 L 173.695312 385.3125 L 173.695312 424.6875 L 134.320312 424.6875 L 134.320312 444.375 Z M 94.945312 405 " clip-rule="nonzero"/></clipPath><clipPath id="c06ac1105f"><path d="M 636.304688 365.625 L 715.054688 365.625 L 715.054688 444.375 L 636.304688 444.375 Z M 636.304688 365.625 " clip-rule="nonzero"/></clipPath><clipPath id="1813da4391"><path d="M 715.054688 405 L 675.679688 365.625 L 675.679688 385.3125 L 636.304688 385.3125 L 636.304688 424.6875 L 675.679688 424.6875 L 675.679688 444.375 Z M 715.054688 405 " clip-rule="nonzero"/></clipPath><clipPath id="65bb784290"><path d="M 405 388.320312 L 557.269531 388.320312 L 557.269531 467.070312 L 405 467.070312 Z M 405 388.320312 " clip-rule="nonzero"/></clipPath><clipPath id="2b01c20e4e"><path d="M 557.183594 427.695312 L 517.808594 388.320312 L 517.808594 408.007812 L 405 408.007812 L 405 447.382812 L 517.808594 447.382812 L 517.808594 467.070312 Z M 557.183594 427.695312 " clip-rule="nonzero"/></clipPath><clipPath id="871618c1a7"><path d="M 252.828125 388.320312 L 478.621094 388.320312 L 478.621094 467.070312 L 252.828125 467.070312 Z M 252.828125 388.320312 " clip-rule="nonzero"/></clipPath><clipPath id="94b7df6d86"><path d="M 252.828125 427.695312 L 292.203125 388.320312 L 292.203125 408.007812 L 478.421875 408.007812 L 478.421875 447.382812 L 292.203125 447.382812 L 292.203125 467.070312 Z M 252.828125 427.695312 " clip-rule="nonzero"/></clipPath></defs><rect x="-81" width="972" fill="#ffffff" y="-80.999999" height="971.999992" fill-opacity="1"/><rect x="-81" width="972" fill="#ffffff" y="-80.999999" height="971.999992" fill-opacity="1"/><g clip-path="url(#3de33092d5)"><g clip-path="url(#b8312d89c8)"><path fill="#ffffff" d="M 89.863281 89.863281 L 720.136719 89.863281 L 720.136719 720.136719 L 89.863281 720.136719 Z M 89.863281 89.863281 " fill-opacity="1" fill-rule="nonzero"/></g></g><g clip-path="url(#83fdc7693c)"><g clip-path="url(#f1ac9cb5e7)"><path stroke-linecap="butt" transform="matrix(0.75, 0, 0, 0.75, 89.861644, 89.86166)" fill="none" stroke-linejoin="miter" d="M 420.179315 0.00216129 C 188.121996 0.00216129 0.00218329 188.121974 0.00218329 420.179293 C 0.00218329 652.236611 188.121996 840.361632 420.179315 840.361632 C 652.236633 840.361632 840.361654 652.236611 840.361654 420.179293 C 840.361654 188.121974 652.236633 0.00216129 420.179315 0.00216129 Z M 420.179315 0.00216129 " stroke="#000000" stroke-width="2" stroke-opacity="1" stroke-miterlimit="4"/></g></g><g clip-path="url(#2853d88c56)"><g clip-path="url(#4043ded814)"><path stroke-linecap="butt" transform="matrix(0.75, 0, 0, 0.75, 116.566901, 267.722056)" fill="none" stroke-linejoin="miter" d="M 286.676457 0.000800158 C 128.348314 0.000800158 -0.000659448 81.943518 -0.000659448 183.032071 C -0.000659448 284.115416 128.348314 366.063342 286.676457 366.063342 C 445.0046 366.063342 573.353573 284.115416 573.353573 183.032071 C 573.353573 81.943518 445.0046 0.000800158 286.676457 0.000800158 Z M 286.676457 0.000800158 " stroke="#000000" stroke-width="2" stroke-opacity="1" stroke-miterlimit="4"/></g></g><g clip-path="url(#b6e4be3dc0)"><g clip-path="url(#20b9f964d3)"><path stroke-linecap="butt" transform="matrix(0.75, 0, 0, 0.75, 263.40708, 267.722056)" fill="none" stroke-linejoin="miter" d="M 286.67601 0.000800158 C 128.347867 0.000800158 -0.00110646 81.943518 -0.00110646 183.032071 C -0.00110646 284.115416 128.347867 366.063342 286.67601 366.063342 C 445.004153 366.063342 573.353126 284.115416 573.353126 183.032071 C 573.353126 81.943518 445.004153 0.000800158 286.67601 0.000800158 Z M 286.67601 0.000800158 " stroke="#000000" stroke-width="2" stroke-opacity="1" stroke-miterlimit="4"/></g></g><g mask="url(#d2c915a0da)"><g transform="matrix(1, 0, 0, 1, 263, 267)"><g clip-path="url(#f48e010356)"><g clip-path="url(#8dfbbdce6c)"><g clip-path="url(#aad1029ac5)"><path fill="#8c52ff" d="M 0.40625 0.722656 L 283.621094 0.722656 L 283.621094 256.917969 L 0.40625 256.917969 Z M 0.40625 0.722656 " fill-opacity="1" fill-rule="nonzero"/></g></g></g></g></g><g clip-path="url(#3261ec6eea)"><g clip-path="url(#7bdc4c41ab)"><path fill="#8c52ff" d="M 94.945312 365.625 L 173.695312 365.625 L 173.695312 444.375 L 94.945312 444.375 Z M 94.945312 365.625 " fill-opacity="1" fill-rule="nonzero"/></g></g><g clip-path="url(#c06ac1105f)"><g clip-path="url(#1813da4391)"><path fill="#8c52ff" d="M 636.304688 365.625 L 715.054688 365.625 L 715.054688 444.375 L 636.304688 444.375 Z M 636.304688 365.625 " fill-opacity="1" fill-rule="nonzero"/></g></g><g fill="#000000" fill-opacity="1"><g transform="translate(539.748144, 475.541588)"><g><path d="M 0.96875 0 L 0.96875 -0.59375 L 3.671875 -0.84375 L 3.890625 -0.84375 L 3.890625 0 Z M 2.84375 0 C 2.875 -1.0625 2.890625 -2.144531 2.890625 -3.25 C 2.898438 -4.351562 2.90625 -5.535156 2.90625 -6.796875 L 2.90625 -7.359375 C 2.90625 -8.484375 2.898438 -9.585938 2.890625 -10.671875 C 2.890625 -11.753906 2.875 -12.832031 2.84375 -13.90625 L 4.921875 -13.90625 C 4.910156 -12.84375 4.898438 -11.765625 4.890625 -10.671875 C 4.890625 -9.585938 4.890625 -8.484375 4.890625 -7.359375 L 4.890625 -6.796875 C 4.890625 -5.546875 4.890625 -4.367188 4.890625 -3.265625 C 4.898438 -2.160156 4.910156 -1.070312 4.921875 0 Z M 3.890625 0 L 3.890625 -0.640625 L 6.328125 -0.640625 C 8.066406 -0.640625 9.382812 -1.203125 10.28125 -2.328125 C 11.175781 -3.453125 11.625 -4.992188 11.625 -6.953125 C 11.625 -9.003906 11.179688 -10.566406 10.296875 -11.640625 C 9.410156 -12.710938 8.144531 -13.25 6.5 -13.25 L 3.890625 -13.25 L 3.890625 -13.90625 L 6.75 -13.90625 C 8.207031 -13.90625 9.453125 -13.628906 10.484375 -13.078125 C 11.523438 -12.523438 12.320312 -11.734375 12.875 -10.703125 C 13.425781 -9.671875 13.703125 -8.421875 13.703125 -6.953125 C 13.703125 -5.523438 13.410156 -4.289062 12.828125 -3.25 C 12.253906 -2.207031 11.425781 -1.40625 10.34375 -0.84375 C 9.257812 -0.28125 7.960938 0 6.453125 0 Z M 0.96875 -13.3125 L 0.96875 -13.90625 L 3.890625 -13.90625 L 3.890625 -13.09375 L 3.671875 -13.09375 Z M 0.96875 -13.3125 "/></g></g></g><g fill="#000000" fill-opacity="1"><g transform="translate(554.470132, 475.541588)"><g><path d="M 5.828125 0.28125 C 4.867188 0.28125 4.015625 0.0859375 3.265625 -0.296875 C 2.515625 -0.691406 1.925781 -1.28125 1.5 -2.0625 C 1.082031 -2.84375 0.875 -3.800781 0.875 -4.9375 C 0.875 -6.03125 1.09375 -6.96875 1.53125 -7.75 C 1.976562 -8.539062 2.566406 -9.144531 3.296875 -9.5625 C 4.035156 -9.988281 4.832031 -10.203125 5.6875 -10.203125 C 6.539062 -10.203125 7.269531 -10.023438 7.875 -9.671875 C 8.476562 -9.316406 8.929688 -8.835938 9.234375 -8.234375 C 9.546875 -7.628906 9.703125 -6.941406 9.703125 -6.171875 C 9.703125 -5.710938 9.664062 -5.332031 9.59375 -5.03125 L 1.703125 -5.03125 L 1.703125 -5.640625 L 7.03125 -5.640625 C 7.382812 -5.640625 7.625 -5.734375 7.75 -5.921875 C 7.875 -6.117188 7.9375 -6.425781 7.9375 -6.84375 C 7.9375 -7.664062 7.734375 -8.328125 7.328125 -8.828125 C 6.921875 -9.328125 6.351562 -9.578125 5.625 -9.578125 C 5.101562 -9.578125 4.628906 -9.40625 4.203125 -9.0625 C 3.785156 -8.726562 3.445312 -8.234375 3.1875 -7.578125 C 2.9375 -6.929688 2.8125 -6.132812 2.8125 -5.1875 C 2.8125 -4.15625 2.96875 -3.304688 3.28125 -2.640625 C 3.59375 -1.984375 4.015625 -1.5 4.546875 -1.1875 C 5.078125 -0.882812 5.691406 -0.734375 6.390625 -0.734375 C 7.054688 -0.734375 7.632812 -0.851562 8.125 -1.09375 C 8.613281 -1.34375 9.039062 -1.6875 9.40625 -2.125 L 9.734375 -1.875 C 9.328125 -1.195312 8.796875 -0.664062 8.140625 -0.28125 C 7.484375 0.09375 6.710938 0.28125 5.828125 0.28125 Z M 5.828125 0.28125 "/></g></g></g><g fill="#000000" fill-opacity="1"><g transform="translate(564.993981, 475.541588)"><g><path d="M 4.28125 0.28125 C 3.632812 0.28125 3.050781 0.210938 2.53125 0.078125 C 2.019531 -0.046875 1.503906 -0.242188 0.984375 -0.515625 L 1 -2.828125 L 1.90625 -2.828125 L 2.390625 -0.359375 L 1.640625 -0.421875 L 1.640625 -1.109375 C 2.015625 -0.859375 2.394531 -0.664062 2.78125 -0.53125 C 3.164062 -0.40625 3.632812 -0.34375 4.1875 -0.34375 C 5.007812 -0.34375 5.628906 -0.503906 6.046875 -0.828125 C 6.460938 -1.148438 6.671875 -1.582031 6.671875 -2.125 C 6.671875 -2.582031 6.53125 -2.957031 6.25 -3.25 C 5.96875 -3.539062 5.4375 -3.804688 4.65625 -4.046875 L 3.640625 -4.40625 C 2.867188 -4.675781 2.253906 -5.035156 1.796875 -5.484375 C 1.335938 -5.929688 1.109375 -6.523438 1.109375 -7.265625 C 1.109375 -8.097656 1.425781 -8.796875 2.0625 -9.359375 C 2.695312 -9.921875 3.613281 -10.203125 4.8125 -10.203125 C 5.40625 -10.203125 5.925781 -10.128906 6.375 -9.984375 C 6.832031 -9.847656 7.3125 -9.632812 7.8125 -9.34375 L 7.734375 -7.265625 L 6.921875 -7.265625 L 6.390625 -9.5625 L 7.03125 -9.40625 L 7.03125 -8.796875 C 6.644531 -9.078125 6.28125 -9.273438 5.9375 -9.390625 C 5.601562 -9.503906 5.234375 -9.5625 4.828125 -9.5625 C 4.128906 -9.5625 3.59375 -9.40625 3.21875 -9.09375 C 2.851562 -8.78125 2.671875 -8.378906 2.671875 -7.890625 C 2.671875 -7.453125 2.820312 -7.09375 3.125 -6.8125 C 3.425781 -6.53125 3.921875 -6.265625 4.609375 -6.015625 L 5.609375 -5.6875 C 6.578125 -5.351562 7.265625 -4.953125 7.671875 -4.484375 C 8.085938 -4.015625 8.296875 -3.4375 8.296875 -2.75 C 8.296875 -2.164062 8.140625 -1.644531 7.828125 -1.1875 C 7.523438 -0.726562 7.078125 -0.367188 6.484375 -0.109375 C 5.890625 0.148438 5.15625 0.28125 4.28125 0.28125 Z M 4.28125 0.28125 "/></g></g></g><g fill="#000000" fill-opacity="1"><g transform="translate(574.112118, 475.541588)"><g><path d="M 0.796875 0 L 0.796875 -0.53125 L 2.875 -0.734375 L 3.625 -0.734375 L 5.65625 -0.53125 L 5.65625 0 Z M 2.296875 0 C 2.304688 -0.3125 2.316406 -0.726562 2.328125 -1.25 C 2.347656 -1.769531 2.359375 -2.316406 2.359375 -2.890625 C 2.367188 -3.460938 2.375 -3.957031 2.375 -4.375 L 2.375 -5.59375 C 2.375 -6.238281 2.367188 -6.8125 2.359375 -7.3125 C 2.347656 -7.8125 2.328125 -8.296875 2.296875 -8.765625 L 0.671875 -8.859375 L 0.671875 -9.328125 L 4.03125 -10.140625 L 4.28125 -10 L 4.21875 -7.265625 L 4.21875 -4.375 C 4.21875 -3.957031 4.21875 -3.460938 4.21875 -2.890625 C 4.226562 -2.316406 4.234375 -1.769531 4.234375 -1.25 C 4.242188 -0.726562 4.257812 -0.3125 4.28125 0 Z M 3.15625 -12.4375 C 2.820312 -12.4375 2.535156 -12.546875 2.296875 -12.765625 C 2.066406 -12.984375 1.953125 -13.265625 1.953125 -13.609375 C 1.953125 -13.941406 2.066406 -14.21875 2.296875 -14.4375 C 2.535156 -14.65625 2.820312 -14.765625 3.15625 -14.765625 C 3.476562 -14.765625 3.757812 -14.65625 4 -14.4375 C 4.25 -14.21875 4.375 -13.941406 4.375 -13.609375 C 4.375 -13.265625 4.25 -12.984375 4 -12.765625 C 3.757812 -12.546875 3.476562 -12.4375 3.15625 -12.4375 Z M 3.15625 -12.4375 "/></g></g></g><g fill="#000000" fill-opacity="1"><g transform="translate(580.513805, 475.541588)"><g><path d="M 0.765625 0 L 0.765625 -0.53125 L 2.828125 -0.765625 L 3.875 -0.765625 L 6 -0.53125 L 6 0 Z M 2.265625 0 C 2.273438 -0.3125 2.28125 -0.726562 2.28125 -1.25 C 2.289062 -1.769531 2.296875 -2.316406 2.296875 -2.890625 C 2.304688 -3.460938 2.3125 -3.957031 2.3125 -4.375 L 2.3125 -5.609375 C 2.3125 -6.265625 2.304688 -6.832031 2.296875 -7.3125 C 2.296875 -7.789062 2.285156 -8.257812 2.265625 -8.71875 L 0.640625 -8.828125 L 0.640625 -9.3125 L 3.796875 -10.140625 L 4.046875 -10 L 4.15625 -7.3125 L 4.15625 -4.375 C 4.15625 -3.957031 4.160156 -3.460938 4.171875 -2.890625 C 4.179688 -2.316406 4.1875 -1.769531 4.1875 -1.25 C 4.195312 -0.726562 4.207031 -0.3125 4.21875 0 Z M 4.15625 -6.0625 L 3.6875 -7.109375 L 4.0625 -7.109375 C 4.269531 -7.742188 4.539062 -8.289062 4.875 -8.75 C 5.207031 -9.207031 5.585938 -9.5625 6.015625 -9.8125 C 6.441406 -10.070312 6.875 -10.203125 7.3125 -10.203125 C 7.695312 -10.203125 8.03125 -10.125 8.3125 -9.96875 C 8.59375 -9.8125 8.78125 -9.5625 8.875 -9.21875 C 8.875 -8.875 8.785156 -8.59375 8.609375 -8.375 C 8.441406 -8.164062 8.175781 -8.0625 7.8125 -8.0625 C 7.550781 -8.0625 7.320312 -8.128906 7.125 -8.265625 C 6.925781 -8.398438 6.710938 -8.597656 6.484375 -8.859375 L 6.046875 -9.296875 L 6.859375 -9.25 C 6.234375 -9.039062 5.703125 -8.679688 5.265625 -8.171875 C 4.828125 -7.671875 4.457031 -6.96875 4.15625 -6.0625 Z M 4.15625 -6.0625 "/></g></g></g><g fill="#000000" fill-opacity="1"><g transform="translate(589.195018, 475.541588)"><g><path d="M 3.59375 0.28125 C 2.832031 0.28125 2.195312 0.0664062 1.6875 -0.359375 C 1.1875 -0.785156 0.9375 -1.398438 0.9375 -2.203125 C 0.9375 -2.710938 1.046875 -3.160156 1.265625 -3.546875 C 1.484375 -3.941406 1.851562 -4.296875 2.375 -4.609375 C 2.894531 -4.921875 3.59375 -5.203125 4.46875 -5.453125 C 4.988281 -5.609375 5.546875 -5.757812 6.140625 -5.90625 C 6.734375 -6.0625 7.285156 -6.203125 7.796875 -6.328125 L 7.796875 -5.859375 C 7.285156 -5.722656 6.769531 -5.582031 6.25 -5.4375 C 5.738281 -5.289062 5.285156 -5.144531 4.890625 -5 C 4.109375 -4.707031 3.550781 -4.351562 3.21875 -3.9375 C 2.882812 -3.53125 2.71875 -3.039062 2.71875 -2.46875 C 2.71875 -1.882812 2.867188 -1.445312 3.171875 -1.15625 C 3.484375 -0.863281 3.894531 -0.71875 4.40625 -0.71875 C 4.675781 -0.71875 4.941406 -0.769531 5.203125 -0.875 C 5.472656 -0.976562 5.773438 -1.164062 6.109375 -1.4375 C 6.453125 -1.707031 6.859375 -2.082031 7.328125 -2.5625 L 7.53125 -1.640625 L 7.015625 -1.640625 C 6.628906 -1.210938 6.265625 -0.859375 5.921875 -0.578125 C 5.585938 -0.296875 5.234375 -0.0820312 4.859375 0.0625 C 4.492188 0.207031 4.070312 0.28125 3.59375 0.28125 Z M 8.71875 0.265625 C 8.132812 0.265625 7.691406 0.078125 7.390625 -0.296875 C 7.097656 -0.679688 6.925781 -1.203125 6.875 -1.859375 L 6.875 -6.9375 C 6.875 -7.644531 6.796875 -8.1875 6.640625 -8.5625 C 6.492188 -8.945312 6.265625 -9.210938 5.953125 -9.359375 C 5.640625 -9.515625 5.238281 -9.59375 4.75 -9.59375 C 4.394531 -9.59375 4.035156 -9.546875 3.671875 -9.453125 C 3.316406 -9.359375 2.921875 -9.195312 2.484375 -8.96875 L 3.421875 -9.484375 L 3.140625 -7.984375 C 3.097656 -7.585938 2.984375 -7.304688 2.796875 -7.140625 C 2.617188 -6.972656 2.398438 -6.890625 2.140625 -6.890625 C 1.640625 -6.890625 1.332031 -7.140625 1.21875 -7.640625 C 1.382812 -8.429688 1.816406 -9.054688 2.515625 -9.515625 C 3.222656 -9.972656 4.148438 -10.203125 5.296875 -10.203125 C 6.453125 -10.203125 7.300781 -9.925781 7.84375 -9.375 C 8.382812 -8.832031 8.65625 -7.957031 8.65625 -6.75 L 8.65625 -1.96875 C 8.65625 -1.425781 8.722656 -1.050781 8.859375 -0.84375 C 8.992188 -0.644531 9.179688 -0.546875 9.421875 -0.546875 C 9.578125 -0.546875 9.71875 -0.582031 9.84375 -0.65625 C 9.96875 -0.738281 10.113281 -0.875 10.28125 -1.0625 L 10.578125 -0.796875 C 10.378906 -0.429688 10.125 -0.164062 9.8125 0 C 9.5 0.175781 9.132812 0.265625 8.71875 0.265625 Z M 8.71875 0.265625 "/></g></g></g><g fill="#000000" fill-opacity="1"><g transform="translate(599.927825, 475.541588)"><g><path d="M 0.78125 0 L 0.78125 -0.53125 L 2.296875 -0.671875 C 2.304688 -1.035156 2.3125 -1.4375 2.3125 -1.875 C 2.3125 -2.320312 2.316406 -2.765625 2.328125 -3.203125 C 2.335938 -3.640625 2.34375 -4.03125 2.34375 -4.375 L 2.34375 -14.15625 L 0.71875 -14.25 L 0.71875 -14.765625 L 3.9375 -15.375 L 4.21875 -15.203125 L 4.15625 -12.234375 L 4.15625 -8.453125 L 4.203125 -8.265625 L 4.203125 -1.5 L 3.90625 0.203125 Z M 7.21875 0.28125 C 6.613281 0.28125 6.015625 0.128906 5.421875 -0.171875 C 4.835938 -0.472656 4.3125 -0.96875 3.84375 -1.65625 L 3.625 -1.65625 L 3.890625 -2.09375 C 4.347656 -1.582031 4.789062 -1.222656 5.21875 -1.015625 C 5.65625 -0.804688 6.109375 -0.703125 6.578125 -0.703125 C 7.097656 -0.703125 7.570312 -0.835938 8 -1.109375 C 8.4375 -1.378906 8.789062 -1.832031 9.0625 -2.46875 C 9.332031 -3.101562 9.46875 -3.960938 9.46875 -5.046875 C 9.46875 -6.484375 9.195312 -7.539062 8.65625 -8.21875 C 8.125 -8.894531 7.441406 -9.234375 6.609375 -9.234375 C 6.316406 -9.234375 6.019531 -9.191406 5.71875 -9.109375 C 5.414062 -9.023438 5.097656 -8.863281 4.765625 -8.625 C 4.441406 -8.394531 4.078125 -8.0625 3.671875 -7.625 L 3.4375 -8.171875 L 3.71875 -8.171875 C 4.238281 -8.878906 4.816406 -9.394531 5.453125 -9.71875 C 6.097656 -10.039062 6.75 -10.203125 7.40625 -10.203125 C 8.195312 -10.203125 8.890625 -9.992188 9.484375 -9.578125 C 10.085938 -9.160156 10.5625 -8.566406 10.90625 -7.796875 C 11.257812 -7.035156 11.4375 -6.113281 11.4375 -5.03125 C 11.4375 -4.007812 11.257812 -3.09375 10.90625 -2.28125 C 10.550781 -1.476562 10.054688 -0.847656 9.421875 -0.390625 C 8.785156 0.0546875 8.050781 0.28125 7.21875 0.28125 Z M 7.21875 0.28125 "/></g></g></g><g fill="#000000" fill-opacity="1"><g transform="translate(612.199312, 475.541588)"><g><path d="M 0.640625 0 L 0.640625 -0.53125 L 2.84375 -0.734375 L 3.609375 -0.734375 L 5.859375 -0.53125 L 5.859375 0 Z M 2.28125 0 C 2.289062 -0.414062 2.296875 -0.875 2.296875 -1.375 C 2.304688 -1.875 2.316406 -2.382812 2.328125 -2.90625 C 2.335938 -3.425781 2.34375 -3.914062 2.34375 -4.375 L 2.34375 -14.15625 L 0.71875 -14.25 L 0.71875 -14.765625 L 3.96875 -15.375 L 4.25 -15.203125 L 4.203125 -12.234375 L 4.203125 -4.375 C 4.203125 -3.914062 4.203125 -3.425781 4.203125 -2.90625 C 4.210938 -2.382812 4.21875 -1.875 4.21875 -1.375 C 4.226562 -0.875 4.238281 -0.414062 4.25 0 Z M 2.28125 0 "/></g></g></g><g fill="#000000" fill-opacity="1"><g transform="translate(618.657991, 475.541588)"><g><path d="M 5.828125 0.28125 C 4.867188 0.28125 4.015625 0.0859375 3.265625 -0.296875 C 2.515625 -0.691406 1.925781 -1.28125 1.5 -2.0625 C 1.082031 -2.84375 0.875 -3.800781 0.875 -4.9375 C 0.875 -6.03125 1.09375 -6.96875 1.53125 -7.75 C 1.976562 -8.539062 2.566406 -9.144531 3.296875 -9.5625 C 4.035156 -9.988281 4.832031 -10.203125 5.6875 -10.203125 C 6.539062 -10.203125 7.269531 -10.023438 7.875 -9.671875 C 8.476562 -9.316406 8.929688 -8.835938 9.234375 -8.234375 C 9.546875 -7.628906 9.703125 -6.941406 9.703125 -6.171875 C 9.703125 -5.710938 9.664062 -5.332031 9.59375 -5.03125 L 1.703125 -5.03125 L 1.703125 -5.640625 L 7.03125 -5.640625 C 7.382812 -5.640625 7.625 -5.734375 7.75 -5.921875 C 7.875 -6.117188 7.9375 -6.425781 7.9375 -6.84375 C 7.9375 -7.664062 7.734375 -8.328125 7.328125 -8.828125 C 6.921875 -9.328125 6.351562 -9.578125 5.625 -9.578125 C 5.101562 -9.578125 4.628906 -9.40625 4.203125 -9.0625 C 3.785156 -8.726562 3.445312 -8.234375 3.1875 -7.578125 C 2.9375 -6.929688 2.8125 -6.132812 2.8125 -5.1875 C 2.8125 -4.15625 2.96875 -3.304688 3.28125 -2.640625 C 3.59375 -1.984375 4.015625 -1.5 4.546875 -1.1875 C 5.078125 -0.882812 5.691406 -0.734375 6.390625 -0.734375 C 7.054688 -0.734375 7.632812 -0.851562 8.125 -1.09375 C 8.613281 -1.34375 9.039062 -1.6875 9.40625 -2.125 L 9.734375 -1.875 C 9.328125 -1.195312 8.796875 -0.664062 8.140625 -0.28125 C 7.484375 0.09375 6.710938 0.28125 5.828125 0.28125 Z M 5.828125 0.28125 "/></g></g></g><g fill="#000000" fill-opacity="1"><g transform="translate(164.437392, 475.541588)"><g><path d="M 0.96875 0 L 0.96875 -0.59375 L 3.671875 -0.84375 L 4.25 -0.84375 L 7.046875 -0.59375 L 7.046875 0 Z M 2.84375 0 C 2.875 -1.0625 2.890625 -2.128906 2.890625 -3.203125 C 2.898438 -4.285156 2.90625 -5.363281 2.90625 -6.4375 L 2.90625 -7.453125 C 2.90625 -8.535156 2.898438 -9.613281 2.890625 -10.6875 C 2.890625 -11.757812 2.875 -12.832031 2.84375 -13.90625 L 4.921875 -13.90625 C 4.910156 -12.84375 4.898438 -11.769531 4.890625 -10.6875 C 4.890625 -9.613281 4.890625 -8.535156 4.890625 -7.453125 L 4.890625 -6.125 C 4.890625 -5.1875 4.890625 -4.195312 4.890625 -3.15625 C 4.898438 -2.125 4.910156 -1.070312 4.921875 0 Z M 3.890625 -5.65625 L 3.890625 -6.3125 L 5.890625 -6.3125 C 6.816406 -6.3125 7.5625 -6.457031 8.125 -6.75 C 8.695312 -7.050781 9.117188 -7.46875 9.390625 -8 C 9.660156 -8.539062 9.796875 -9.15625 9.796875 -9.84375 C 9.796875 -10.957031 9.507812 -11.800781 8.9375 -12.375 C 8.375 -12.957031 7.5 -13.25 6.3125 -13.25 L 3.890625 -13.25 L 3.890625 -13.90625 L 6.421875 -13.90625 C 8.234375 -13.90625 9.566406 -13.539062 10.421875 -12.8125 C 11.273438 -12.09375 11.703125 -11.101562 11.703125 -9.84375 C 11.703125 -9.070312 11.503906 -8.367188 11.109375 -7.734375 C 10.722656 -7.097656 10.101562 -6.59375 9.25 -6.21875 C 8.40625 -5.84375 7.304688 -5.65625 5.953125 -5.65625 Z M 0.96875 -13.3125 L 0.96875 -13.90625 L 3.890625 -13.90625 L 3.890625 -13.09375 L 3.671875 -13.09375 Z M 0.96875 -13.3125 "/></g></g></g><g fill="#000000" fill-opacity="1"><g transform="translate(176.746874, 475.541588)"><g><path d="M 0.765625 0 L 0.765625 -0.53125 L 2.828125 -0.765625 L 3.875 -0.765625 L 6 -0.53125 L 6 0 Z M 2.265625 0 C 2.273438 -0.3125 2.28125 -0.726562 2.28125 -1.25 C 2.289062 -1.769531 2.296875 -2.316406 2.296875 -2.890625 C 2.304688 -3.460938 2.3125 -3.957031 2.3125 -4.375 L 2.3125 -5.609375 C 2.3125 -6.265625 2.304688 -6.832031 2.296875 -7.3125 C 2.296875 -7.789062 2.285156 -8.257812 2.265625 -8.71875 L 0.640625 -8.828125 L 0.640625 -9.3125 L 3.796875 -10.140625 L 4.046875 -10 L 4.15625 -7.3125 L 4.15625 -4.375 C 4.15625 -3.957031 4.160156 -3.460938 4.171875 -2.890625 C 4.179688 -2.316406 4.1875 -1.769531 4.1875 -1.25 C 4.195312 -0.726562 4.207031 -0.3125 4.21875 0 Z M 4.15625 -6.0625 L 3.6875 -7.109375 L 4.0625 -7.109375 C 4.269531 -7.742188 4.539062 -8.289062 4.875 -8.75 C 5.207031 -9.207031 5.585938 -9.5625 6.015625 -9.8125 C 6.441406 -10.070312 6.875 -10.203125 7.3125 -10.203125 C 7.695312 -10.203125 8.03125 -10.125 8.3125 -9.96875 C 8.59375 -9.8125 8.78125 -9.5625 8.875 -9.21875 C 8.875 -8.875 8.785156 -8.59375 8.609375 -8.375 C 8.441406 -8.164062 8.175781 -8.0625 7.8125 -8.0625 C 7.550781 -8.0625 7.320312 -8.128906 7.125 -8.265625 C 6.925781 -8.398438 6.710938 -8.597656 6.484375 -8.859375 L 6.046875 -9.296875 L 6.859375 -9.25 C 6.234375 -9.039062 5.703125 -8.679688 5.265625 -8.171875 C 4.828125 -7.671875 4.457031 -6.96875 4.15625 -6.0625 Z M 4.15625 -6.0625 "/></g></g></g><g fill="#000000" fill-opacity="1"><g transform="translate(185.371095, 475.541588)"><g><path d="M 5.828125 0.28125 C 4.867188 0.28125 4.015625 0.0859375 3.265625 -0.296875 C 2.515625 -0.691406 1.925781 -1.28125 1.5 -2.0625 C 1.082031 -2.84375 0.875 -3.800781 0.875 -4.9375 C 0.875 -6.03125 1.09375 -6.96875 1.53125 -7.75 C 1.976562 -8.539062 2.566406 -9.144531 3.296875 -9.5625 C 4.035156 -9.988281 4.832031 -10.203125 5.6875 -10.203125 C 6.539062 -10.203125 7.269531 -10.023438 7.875 -9.671875 C 8.476562 -9.316406 8.929688 -8.835938 9.234375 -8.234375 C 9.546875 -7.628906 9.703125 -6.941406 9.703125 -6.171875 C 9.703125 -5.710938 9.664062 -5.332031 9.59375 -5.03125 L 1.703125 -5.03125 L 1.703125 -5.640625 L 7.03125 -5.640625 C 7.382812 -5.640625 7.625 -5.734375 7.75 -5.921875 C 7.875 -6.117188 7.9375 -6.425781 7.9375 -6.84375 C 7.9375 -7.664062 7.734375 -8.328125 7.328125 -8.828125 C 6.921875 -9.328125 6.351562 -9.578125 5.625 -9.578125 C 5.101562 -9.578125 4.628906 -9.40625 4.203125 -9.0625 C 3.785156 -8.726562 3.445312 -8.234375 3.1875 -7.578125 C 2.9375 -6.929688 2.8125 -6.132812 2.8125 -5.1875 C 2.8125 -4.15625 2.96875 -3.304688 3.28125 -2.640625 C 3.59375 -1.984375 4.015625 -1.5 4.546875 -1.1875 C 5.078125 -0.882812 5.691406 -0.734375 6.390625 -0.734375 C 7.054688 -0.734375 7.632812 -0.851562 8.125 -1.09375 C 8.613281 -1.34375 9.039062 -1.6875 9.40625 -2.125 L 9.734375 -1.875 C 9.328125 -1.195312 8.796875 -0.664062 8.140625 -0.28125 C 7.484375 0.09375 6.710938 0.28125 5.828125 0.28125 Z M 5.828125 0.28125 "/></g></g></g><g fill="#000000" fill-opacity="1"><g transform="translate(195.894944, 475.541588)"><g><path d="M 5.09375 0.28125 C 4.28125 0.28125 3.550781 0.0703125 2.90625 -0.34375 C 2.269531 -0.769531 1.769531 -1.367188 1.40625 -2.140625 C 1.050781 -2.921875 0.875 -3.820312 0.875 -4.84375 C 0.875 -5.945312 1.070312 -6.894531 1.46875 -7.6875 C 1.875 -8.488281 2.414062 -9.109375 3.09375 -9.546875 C 3.769531 -9.984375 4.523438 -10.203125 5.359375 -10.203125 C 5.929688 -10.203125 6.472656 -10.0625 6.984375 -9.78125 C 7.503906 -9.5 7.992188 -9.035156 8.453125 -8.390625 L 8.640625 -8.390625 L 8.375 -7.96875 C 7.945312 -8.414062 7.539062 -8.738281 7.15625 -8.9375 C 6.769531 -9.132812 6.351562 -9.234375 5.90625 -9.234375 C 5.351562 -9.234375 4.84375 -9.085938 4.375 -8.796875 C 3.914062 -8.515625 3.546875 -8.050781 3.265625 -7.40625 C 2.984375 -6.769531 2.84375 -5.9375 2.84375 -4.90625 C 2.84375 -3.925781 2.972656 -3.125 3.234375 -2.5 C 3.492188 -1.882812 3.84375 -1.429688 4.28125 -1.140625 C 4.726562 -0.847656 5.234375 -0.703125 5.796875 -0.703125 C 6.273438 -0.703125 6.71875 -0.804688 7.125 -1.015625 C 7.53125 -1.222656 7.9375 -1.566406 8.34375 -2.046875 L 8.609375 -1.5625 L 8.4375 -1.5625 C 8.007812 -0.945312 7.507812 -0.484375 6.9375 -0.171875 C 6.375 0.128906 5.757812 0.28125 5.09375 0.28125 Z M 8.203125 0.1875 L 8.09375 -1.65625 L 8.09375 -8.328125 L 8.15625 -8.515625 L 8.15625 -14.15625 L 6.453125 -14.25 L 6.453125 -14.765625 L 9.703125 -15.375 L 10 -15.203125 L 9.9375 -12.296875 L 9.9375 -0.640625 L 11.609375 -0.53125 L 11.609375 0 Z M 8.203125 0.1875 "/></g></g></g><g fill="#000000" fill-opacity="1"><g transform="translate(207.995469, 475.541588)"><g><path d="M 0.796875 0 L 0.796875 -0.53125 L 2.875 -0.734375 L 3.625 -0.734375 L 5.65625 -0.53125 L 5.65625 0 Z M 2.296875 0 C 2.304688 -0.3125 2.316406 -0.726562 2.328125 -1.25 C 2.347656 -1.769531 2.359375 -2.316406 2.359375 -2.890625 C 2.367188 -3.460938 2.375 -3.957031 2.375 -4.375 L 2.375 -5.59375 C 2.375 -6.238281 2.367188 -6.8125 2.359375 -7.3125 C 2.347656 -7.8125 2.328125 -8.296875 2.296875 -8.765625 L 0.671875 -8.859375 L 0.671875 -9.328125 L 4.03125 -10.140625 L 4.28125 -10 L 4.21875 -7.265625 L 4.21875 -4.375 C 4.21875 -3.957031 4.21875 -3.460938 4.21875 -2.890625 C 4.226562 -2.316406 4.234375 -1.769531 4.234375 -1.25 C 4.242188 -0.726562 4.257812 -0.3125 4.28125 0 Z M 3.15625 -12.4375 C 2.820312 -12.4375 2.535156 -12.546875 2.296875 -12.765625 C 2.066406 -12.984375 1.953125 -13.265625 1.953125 -13.609375 C 1.953125 -13.941406 2.066406 -14.21875 2.296875 -14.4375 C 2.535156 -14.65625 2.820312 -14.765625 3.15625 -14.765625 C 3.476562 -14.765625 3.757812 -14.65625 4 -14.4375 C 4.25 -14.21875 4.375 -13.941406 4.375 -13.609375 C 4.375 -13.265625 4.25 -12.984375 4 -12.765625 C 3.757812 -12.546875 3.476562 -12.4375 3.15625 -12.4375 Z M 3.15625 -12.4375 "/></g></g></g><g fill="#000000" fill-opacity="1"><g transform="translate(214.397156, 475.541588)"><g><path d="M 5.703125 0.28125 C 4.765625 0.28125 3.929688 0.078125 3.203125 -0.328125 C 2.484375 -0.734375 1.914062 -1.316406 1.5 -2.078125 C 1.082031 -2.835938 0.875 -3.753906 0.875 -4.828125 C 0.875 -5.984375 1.109375 -6.957031 1.578125 -7.75 C 2.054688 -8.550781 2.6875 -9.160156 3.46875 -9.578125 C 4.25 -9.992188 5.085938 -10.203125 5.984375 -10.203125 C 6.578125 -10.203125 7.125 -10.085938 7.625 -9.859375 C 8.125 -9.640625 8.546875 -9.335938 8.890625 -8.953125 C 9.234375 -8.566406 9.46875 -8.113281 9.59375 -7.59375 C 9.457031 -7.113281 9.160156 -6.875 8.703125 -6.875 C 8.410156 -6.875 8.171875 -6.957031 7.984375 -7.125 C 7.804688 -7.289062 7.691406 -7.578125 7.640625 -7.984375 L 7.203125 -9.6875 L 8.25 -8.90625 C 7.863281 -9.144531 7.503906 -9.316406 7.171875 -9.421875 C 6.835938 -9.523438 6.5 -9.578125 6.15625 -9.578125 C 5.519531 -9.578125 4.945312 -9.394531 4.4375 -9.03125 C 3.9375 -8.675781 3.539062 -8.160156 3.25 -7.484375 C 2.957031 -6.816406 2.8125 -6.003906 2.8125 -5.046875 C 2.8125 -3.679688 3.144531 -2.617188 3.8125 -1.859375 C 4.476562 -1.109375 5.34375 -0.734375 6.40625 -0.734375 C 6.957031 -0.734375 7.476562 -0.847656 7.96875 -1.078125 C 8.457031 -1.304688 8.898438 -1.648438 9.296875 -2.109375 L 9.609375 -1.859375 C 9.179688 -1.160156 8.65625 -0.628906 8.03125 -0.265625 C 7.414062 0.0976562 6.640625 0.28125 5.703125 0.28125 Z M 5.703125 0.28125 "/></g></g></g><g fill="#000000" fill-opacity="1"><g transform="translate(224.712047, 475.541588)"><g><path d="M 3.015625 -9.203125 L 3.015625 -9.921875 L 6.59375 -9.921875 L 6.59375 -9.203125 Z M 4.515625 0.28125 C 3.691406 0.28125 3.078125 0.0703125 2.671875 -0.34375 C 2.273438 -0.769531 2.078125 -1.425781 2.078125 -2.3125 C 2.078125 -2.632812 2.078125 -2.921875 2.078125 -3.171875 C 2.085938 -3.421875 2.09375 -3.722656 2.09375 -4.078125 L 2.09375 -9.203125 L 0.265625 -9.203125 L 0.265625 -9.78125 L 2.484375 -9.953125 L 2.125 -9.6875 L 2.796875 -12.90625 L 4.015625 -12.90625 L 3.953125 -9.609375 L 3.953125 -2.265625 C 3.953125 -1.691406 4.0625 -1.273438 4.28125 -1.015625 C 4.5 -0.753906 4.8125 -0.625 5.21875 -0.625 C 5.5 -0.625 5.742188 -0.664062 5.953125 -0.75 C 6.160156 -0.84375 6.394531 -0.972656 6.65625 -1.140625 L 6.9375 -0.796875 C 6.664062 -0.441406 6.332031 -0.175781 5.9375 0 C 5.550781 0.1875 5.078125 0.28125 4.515625 0.28125 Z M 4.515625 0.28125 "/></g></g></g><g fill="#000000" fill-opacity="1"><g transform="translate(231.835593, 475.541588)"><g><path d="M 3.59375 0.28125 C 2.832031 0.28125 2.195312 0.0664062 1.6875 -0.359375 C 1.1875 -0.785156 0.9375 -1.398438 0.9375 -2.203125 C 0.9375 -2.710938 1.046875 -3.160156 1.265625 -3.546875 C 1.484375 -3.941406 1.851562 -4.296875 2.375 -4.609375 C 2.894531 -4.921875 3.59375 -5.203125 4.46875 -5.453125 C 4.988281 -5.609375 5.546875 -5.757812 6.140625 -5.90625 C 6.734375 -6.0625 7.285156 -6.203125 7.796875 -6.328125 L 7.796875 -5.859375 C 7.285156 -5.722656 6.769531 -5.582031 6.25 -5.4375 C 5.738281 -5.289062 5.285156 -5.144531 4.890625 -5 C 4.109375 -4.707031 3.550781 -4.351562 3.21875 -3.9375 C 2.882812 -3.53125 2.71875 -3.039062 2.71875 -2.46875 C 2.71875 -1.882812 2.867188 -1.445312 3.171875 -1.15625 C 3.484375 -0.863281 3.894531 -0.71875 4.40625 -0.71875 C 4.675781 -0.71875 4.941406 -0.769531 5.203125 -0.875 C 5.472656 -0.976562 5.773438 -1.164062 6.109375 -1.4375 C 6.453125 -1.707031 6.859375 -2.082031 7.328125 -2.5625 L 7.53125 -1.640625 L 7.015625 -1.640625 C 6.628906 -1.210938 6.265625 -0.859375 5.921875 -0.578125 C 5.585938 -0.296875 5.234375 -0.0820312 4.859375 0.0625 C 4.492188 0.207031 4.070312 0.28125 3.59375 0.28125 Z M 8.71875 0.265625 C 8.132812 0.265625 7.691406 0.078125 7.390625 -0.296875 C 7.097656 -0.679688 6.925781 -1.203125 6.875 -1.859375 L 6.875 -6.9375 C 6.875 -7.644531 6.796875 -8.1875 6.640625 -8.5625 C 6.492188 -8.945312 6.265625 -9.210938 5.953125 -9.359375 C 5.640625 -9.515625 5.238281 -9.59375 4.75 -9.59375 C 4.394531 -9.59375 4.035156 -9.546875 3.671875 -9.453125 C 3.316406 -9.359375 2.921875 -9.195312 2.484375 -8.96875 L 3.421875 -9.484375 L 3.140625 -7.984375 C 3.097656 -7.585938 2.984375 -7.304688 2.796875 -7.140625 C 2.617188 -6.972656 2.398438 -6.890625 2.140625 -6.890625 C 1.640625 -6.890625 1.332031 -7.140625 1.21875 -7.640625 C 1.382812 -8.429688 1.816406 -9.054688 2.515625 -9.515625 C 3.222656 -9.972656 4.148438 -10.203125 5.296875 -10.203125 C 6.453125 -10.203125 7.300781 -9.925781 7.84375 -9.375 C 8.382812 -8.832031 8.65625 -7.957031 8.65625 -6.75 L 8.65625 -1.96875 C 8.65625 -1.425781 8.722656 -1.050781 8.859375 -0.84375 C 8.992188 -0.644531 9.179688 -0.546875 9.421875 -0.546875 C 9.578125 -0.546875 9.71875 -0.582031 9.84375 -0.65625 C 9.96875 -0.738281 10.113281 -0.875 10.28125 -1.0625 L 10.578125 -0.796875 C 10.378906 -0.429688 10.125 -0.164062 9.8125 0 C 9.5 0.175781 9.132812 0.265625 8.71875 0.265625 Z M 8.71875 0.265625 "/></g></g></g><g fill="#000000" fill-opacity="1"><g transform="translate(242.5684, 475.541588)"><g><path d="M 0.78125 0 L 0.78125 -0.53125 L 2.296875 -0.671875 C 2.304688 -1.035156 2.3125 -1.4375 2.3125 -1.875 C 2.3125 -2.320312 2.316406 -2.765625 2.328125 -3.203125 C 2.335938 -3.640625 2.34375 -4.03125 2.34375 -4.375 L 2.34375 -14.15625 L 0.71875 -14.25 L 0.71875 -14.765625 L 3.9375 -15.375 L 4.21875 -15.203125 L 4.15625 -12.234375 L 4.15625 -8.453125 L 4.203125 -8.265625 L 4.203125 -1.5 L 3.90625 0.203125 Z M 7.21875 0.28125 C 6.613281 0.28125 6.015625 0.128906 5.421875 -0.171875 C 4.835938 -0.472656 4.3125 -0.96875 3.84375 -1.65625 L 3.625 -1.65625 L 3.890625 -2.09375 C 4.347656 -1.582031 4.789062 -1.222656 5.21875 -1.015625 C 5.65625 -0.804688 6.109375 -0.703125 6.578125 -0.703125 C 7.097656 -0.703125 7.570312 -0.835938 8 -1.109375 C 8.4375 -1.378906 8.789062 -1.832031 9.0625 -2.46875 C 9.332031 -3.101562 9.46875 -3.960938 9.46875 -5.046875 C 9.46875 -6.484375 9.195312 -7.539062 8.65625 -8.21875 C 8.125 -8.894531 7.441406 -9.234375 6.609375 -9.234375 C 6.316406 -9.234375 6.019531 -9.191406 5.71875 -9.109375 C 5.414062 -9.023438 5.097656 -8.863281 4.765625 -8.625 C 4.441406 -8.394531 4.078125 -8.0625 3.671875 -7.625 L 3.4375 -8.171875 L 3.71875 -8.171875 C 4.238281 -8.878906 4.816406 -9.394531 5.453125 -9.71875 C 6.097656 -10.039062 6.75 -10.203125 7.40625 -10.203125 C 8.195312 -10.203125 8.890625 -9.992188 9.484375 -9.578125 C 10.085938 -9.160156 10.5625 -8.566406 10.90625 -7.796875 C 11.257812 -7.035156 11.4375 -6.113281 11.4375 -5.03125 C 11.4375 -4.007812 11.257812 -3.09375 10.90625 -2.28125 C 10.550781 -1.476562 10.054688 -0.847656 9.421875 -0.390625 C 8.785156 0.0546875 8.050781 0.28125 7.21875 0.28125 Z M 7.21875 0.28125 "/></g></g></g><g fill="#000000" fill-opacity="1"><g transform="translate(254.839888, 475.541588)"><g><path d="M 0.640625 0 L 0.640625 -0.53125 L 2.84375 -0.734375 L 3.609375 -0.734375 L 5.859375 -0.53125 L 5.859375 0 Z M 2.28125 0 C 2.289062 -0.414062 2.296875 -0.875 2.296875 -1.375 C 2.304688 -1.875 2.316406 -2.382812 2.328125 -2.90625 C 2.335938 -3.425781 2.34375 -3.914062 2.34375 -4.375 L 2.34375 -14.15625 L 0.71875 -14.25 L 0.71875 -14.765625 L 3.96875 -15.375 L 4.25 -15.203125 L 4.203125 -12.234375 L 4.203125 -4.375 C 4.203125 -3.914062 4.203125 -3.425781 4.203125 -2.90625 C 4.210938 -2.382812 4.21875 -1.875 4.21875 -1.375 C 4.226562 -0.875 4.238281 -0.414062 4.25 0 Z M 2.28125 0 "/></g></g></g><g fill="#000000" fill-opacity="1"><g transform="translate(261.298566, 475.541588)"><g><path d="M 5.828125 0.28125 C 4.867188 0.28125 4.015625 0.0859375 3.265625 -0.296875 C 2.515625 -0.691406 1.925781 -1.28125 1.5 -2.0625 C 1.082031 -2.84375 0.875 -3.800781 0.875 -4.9375 C 0.875 -6.03125 1.09375 -6.96875 1.53125 -7.75 C 1.976562 -8.539062 2.566406 -9.144531 3.296875 -9.5625 C 4.035156 -9.988281 4.832031 -10.203125 5.6875 -10.203125 C 6.539062 -10.203125 7.269531 -10.023438 7.875 -9.671875 C 8.476562 -9.316406 8.929688 -8.835938 9.234375 -8.234375 C 9.546875 -7.628906 9.703125 -6.941406 9.703125 -6.171875 C 9.703125 -5.710938 9.664062 -5.332031 9.59375 -5.03125 L 1.703125 -5.03125 L 1.703125 -5.640625 L 7.03125 -5.640625 C 7.382812 -5.640625 7.625 -5.734375 7.75 -5.921875 C 7.875 -6.117188 7.9375 -6.425781 7.9375 -6.84375 C 7.9375 -7.664062 7.734375 -8.328125 7.328125 -8.828125 C 6.921875 -9.328125 6.351562 -9.578125 5.625 -9.578125 C 5.101562 -9.578125 4.628906 -9.40625 4.203125 -9.0625 C 3.785156 -8.726562 3.445312 -8.234375 3.1875 -7.578125 C 2.9375 -6.929688 2.8125 -6.132812 2.8125 -5.1875 C 2.8125 -4.15625 2.96875 -3.304688 3.28125 -2.640625 C 3.59375 -1.984375 4.015625 -1.5 4.546875 -1.1875 C 5.078125 -0.882812 5.691406 -0.734375 6.390625 -0.734375 C 7.054688 -0.734375 7.632812 -0.851562 8.125 -1.09375 C 8.613281 -1.34375 9.039062 -1.6875 9.40625 -2.125 L 9.734375 -1.875 C 9.328125 -1.195312 8.796875 -0.664062 8.140625 -0.28125 C 7.484375 0.09375 6.710938 0.28125 5.828125 0.28125 Z M 5.828125 0.28125 "/></g></g></g><g clip-path="url(#65bb784290)"><g clip-path="url(#2b01c20e4e)"><path fill="#8c52ff" d="M 405 388.320312 L 557.269531 388.320312 L 557.269531 467.070312 L 405 467.070312 Z M 405 388.320312 " fill-opacity="1" fill-rule="nonzero"/></g></g><g clip-path="url(#871618c1a7)"><g clip-path="url(#94b7df6d86)"><path fill="#8c52ff" d="M 252.828125 388.320312 L 478.3125 388.320312 L 478.3125 467.070312 L 252.828125 467.070312 Z M 252.828125 388.320312 " fill-opacity="1" fill-rule="nonzero"/></g></g><g fill="#000000" fill-opacity="1"><g transform="translate(360.659165, 475.541588)"><g><path d="M 0.96875 0 L 0.96875 -0.59375 L 3.625 -0.84375 L 4.0625 -0.84375 L 6.78125 -0.59375 L 6.78125 0 Z M 2.84375 0 C 2.875 -1.0625 2.890625 -2.128906 2.890625 -3.203125 C 2.890625 -4.285156 2.890625 -5.363281 2.890625 -6.4375 L 2.890625 -7.453125 C 2.890625 -8.535156 2.890625 -9.613281 2.890625 -10.6875 C 2.890625 -11.757812 2.875 -12.832031 2.84375 -13.90625 L 4.921875 -13.90625 C 4.898438 -12.84375 4.882812 -11.769531 4.875 -10.6875 C 4.863281 -9.613281 4.859375 -8.535156 4.859375 -7.453125 L 4.859375 -6.96875 C 4.859375 -5.644531 4.863281 -4.421875 4.875 -3.296875 C 4.882812 -2.171875 4.898438 -1.070312 4.921875 0 Z M 3.875 -6.859375 L 3.875 -7.5 L 12.40625 -7.5 L 12.40625 -6.859375 Z M 9.5 0 L 9.5 -0.59375 L 12.203125 -0.84375 L 12.640625 -0.84375 L 15.3125 -0.59375 L 15.3125 0 Z M 11.359375 0 C 11.390625 -1.0625 11.40625 -2.148438 11.40625 -3.265625 C 11.414062 -4.390625 11.421875 -5.625 11.421875 -6.96875 L 11.421875 -7.453125 C 11.421875 -8.535156 11.414062 -9.613281 11.40625 -10.6875 C 11.40625 -11.757812 11.390625 -12.832031 11.359375 -13.90625 L 13.4375 -13.90625 C 13.40625 -12.84375 13.382812 -11.769531 13.375 -10.6875 C 13.375 -9.613281 13.375 -8.535156 13.375 -7.453125 L 13.375 -6.4375 C 13.375 -5.363281 13.375 -4.289062 13.375 -3.21875 C 13.382812 -2.144531 13.40625 -1.070312 13.4375 0 Z M 0.96875 -13.3125 L 0.96875 -13.90625 L 6.78125 -13.90625 L 6.78125 -13.3125 L 4.0625 -13.09375 L 3.625 -13.09375 Z M 9.5 -13.3125 L 9.5 -13.90625 L 15.3125 -13.90625 L 15.3125 -13.3125 L 12.640625 -13.09375 L 12.203125 -13.09375 Z M 9.5 -13.3125 "/></g></g></g><g fill="#000000" fill-opacity="1"><g transform="translate(376.53989, 475.541588)"><g><path d="M 3.59375 0.28125 C 2.832031 0.28125 2.195312 0.0664062 1.6875 -0.359375 C 1.1875 -0.785156 0.9375 -1.398438 0.9375 -2.203125 C 0.9375 -2.710938 1.046875 -3.160156 1.265625 -3.546875 C 1.484375 -3.941406 1.851562 -4.296875 2.375 -4.609375 C 2.894531 -4.921875 3.59375 -5.203125 4.46875 -5.453125 C 4.988281 -5.609375 5.546875 -5.757812 6.140625 -5.90625 C 6.734375 -6.0625 7.285156 -6.203125 7.796875 -6.328125 L 7.796875 -5.859375 C 7.285156 -5.722656 6.769531 -5.582031 6.25 -5.4375 C 5.738281 -5.289062 5.285156 -5.144531 4.890625 -5 C 4.109375 -4.707031 3.550781 -4.351562 3.21875 -3.9375 C 2.882812 -3.53125 2.71875 -3.039062 2.71875 -2.46875 C 2.71875 -1.882812 2.867188 -1.445312 3.171875 -1.15625 C 3.484375 -0.863281 3.894531 -0.71875 4.40625 -0.71875 C 4.675781 -0.71875 4.941406 -0.769531 5.203125 -0.875 C 5.472656 -0.976562 5.773438 -1.164062 6.109375 -1.4375 C 6.453125 -1.707031 6.859375 -2.082031 7.328125 -2.5625 L 7.53125 -1.640625 L 7.015625 -1.640625 C 6.628906 -1.210938 6.265625 -0.859375 5.921875 -0.578125 C 5.585938 -0.296875 5.234375 -0.0820312 4.859375 0.0625 C 4.492188 0.207031 4.070312 0.28125 3.59375 0.28125 Z M 8.71875 0.265625 C 8.132812 0.265625 7.691406 0.078125 7.390625 -0.296875 C 7.097656 -0.679688 6.925781 -1.203125 6.875 -1.859375 L 6.875 -6.9375 C 6.875 -7.644531 6.796875 -8.1875 6.640625 -8.5625 C 6.492188 -8.945312 6.265625 -9.210938 5.953125 -9.359375 C 5.640625 -9.515625 5.238281 -9.59375 4.75 -9.59375 C 4.394531 -9.59375 4.035156 -9.546875 3.671875 -9.453125 C 3.316406 -9.359375 2.921875 -9.195312 2.484375 -8.96875 L 3.421875 -9.484375 L 3.140625 -7.984375 C 3.097656 -7.585938 2.984375 -7.304688 2.796875 -7.140625 C 2.617188 -6.972656 2.398438 -6.890625 2.140625 -6.890625 C 1.640625 -6.890625 1.332031 -7.140625 1.21875 -7.640625 C 1.382812 -8.429688 1.816406 -9.054688 2.515625 -9.515625 C 3.222656 -9.972656 4.148438 -10.203125 5.296875 -10.203125 C 6.453125 -10.203125 7.300781 -9.925781 7.84375 -9.375 C 8.382812 -8.832031 8.65625 -7.957031 8.65625 -6.75 L 8.65625 -1.96875 C 8.65625 -1.425781 8.722656 -1.050781 8.859375 -0.84375 C 8.992188 -0.644531 9.179688 -0.546875 9.421875 -0.546875 C 9.578125 -0.546875 9.71875 -0.582031 9.84375 -0.65625 C 9.96875 -0.738281 10.113281 -0.875 10.28125 -1.0625 L 10.578125 -0.796875 C 10.378906 -0.429688 10.125 -0.164062 9.8125 0 C 9.5 0.175781 9.132812 0.265625 8.71875 0.265625 Z M 8.71875 0.265625 "/></g></g></g><g fill="#000000" fill-opacity="1"><g transform="translate(387.272696, 475.541588)"><g><path d="M 0.765625 0 L 0.765625 -0.53125 L 2.828125 -0.765625 L 3.875 -0.765625 L 6 -0.53125 L 6 0 Z M 2.265625 0 C 2.273438 -0.3125 2.28125 -0.726562 2.28125 -1.25 C 2.289062 -1.769531 2.296875 -2.316406 2.296875 -2.890625 C 2.304688 -3.460938 2.3125 -3.957031 2.3125 -4.375 L 2.3125 -5.609375 C 2.3125 -6.265625 2.304688 -6.832031 2.296875 -7.3125 C 2.296875 -7.789062 2.285156 -8.257812 2.265625 -8.71875 L 0.640625 -8.828125 L 0.640625 -9.3125 L 3.796875 -10.140625 L 4.046875 -10 L 4.15625 -7.3125 L 4.15625 -4.375 C 4.15625 -3.957031 4.160156 -3.460938 4.171875 -2.890625 C 4.179688 -2.316406 4.1875 -1.769531 4.1875 -1.25 C 4.195312 -0.726562 4.207031 -0.3125 4.21875 0 Z M 4.15625 -6.0625 L 3.6875 -7.109375 L 4.0625 -7.109375 C 4.269531 -7.742188 4.539062 -8.289062 4.875 -8.75 C 5.207031 -9.207031 5.585938 -9.5625 6.015625 -9.8125 C 6.441406 -10.070312 6.875 -10.203125 7.3125 -10.203125 C 7.695312 -10.203125 8.03125 -10.125 8.3125 -9.96875 C 8.59375 -9.8125 8.78125 -9.5625 8.875 -9.21875 C 8.875 -8.875 8.785156 -8.59375 8.609375 -8.375 C 8.441406 -8.164062 8.175781 -8.0625 7.8125 -8.0625 C 7.550781 -8.0625 7.320312 -8.128906 7.125 -8.265625 C 6.925781 -8.398438 6.710938 -8.597656 6.484375 -8.859375 L 6.046875 -9.296875 L 6.859375 -9.25 C 6.234375 -9.039062 5.703125 -8.679688 5.265625 -8.171875 C 4.828125 -7.671875 4.457031 -6.96875 4.15625 -6.0625 Z M 4.15625 -6.0625 "/></g></g></g><g fill="#000000" fill-opacity="1"><g transform="translate(396.257864, 475.541588)"><g><path d="M 0.765625 0 L 0.765625 -0.53125 L 2.8125 -0.734375 L 3.59375 -0.734375 L 5.59375 -0.53125 L 5.59375 0 Z M 2.265625 0 C 2.273438 -0.3125 2.28125 -0.726562 2.28125 -1.25 C 2.289062 -1.769531 2.296875 -2.316406 2.296875 -2.890625 C 2.304688 -3.460938 2.3125 -3.957031 2.3125 -4.375 L 2.3125 -5.625 C 2.3125 -6.269531 2.304688 -6.832031 2.296875 -7.3125 C 2.296875 -7.789062 2.285156 -8.265625 2.265625 -8.734375 L 0.640625 -8.828125 L 0.640625 -9.3125 L 3.796875 -10.140625 L 4.046875 -10 L 4.15625 -7.84375 L 4.15625 -4.375 C 4.15625 -3.957031 4.160156 -3.460938 4.171875 -2.890625 C 4.179688 -2.316406 4.1875 -1.769531 4.1875 -1.25 C 4.195312 -0.726562 4.207031 -0.3125 4.21875 0 Z M 7.0625 0 L 7.0625 -0.53125 L 9.0625 -0.734375 L 9.875 -0.734375 L 11.84375 -0.53125 L 11.84375 0 Z M 8.546875 0 C 8.554688 -0.3125 8.566406 -0.722656 8.578125 -1.234375 C 8.585938 -1.753906 8.59375 -2.296875 8.59375 -2.859375 C 8.601562 -3.429688 8.609375 -3.9375 8.609375 -4.375 L 8.609375 -6.609375 C 8.609375 -7.523438 8.460938 -8.164062 8.171875 -8.53125 C 7.890625 -8.90625 7.503906 -9.09375 7.015625 -9.09375 C 6.546875 -9.09375 6.035156 -8.9375 5.484375 -8.625 C 4.941406 -8.3125 4.367188 -7.800781 3.765625 -7.09375 L 3.609375 -7.828125 L 3.859375 -7.828125 C 4.453125 -8.597656 5.066406 -9.1875 5.703125 -9.59375 C 6.347656 -10 7.023438 -10.203125 7.734375 -10.203125 C 8.578125 -10.203125 9.234375 -9.921875 9.703125 -9.359375 C 10.171875 -8.796875 10.40625 -7.878906 10.40625 -6.609375 L 10.40625 -4.375 C 10.40625 -3.9375 10.410156 -3.429688 10.421875 -2.859375 C 10.429688 -2.296875 10.4375 -1.753906 10.4375 -1.234375 C 10.445312 -0.722656 10.457031 -0.3125 10.46875 0 Z M 13.3125 0 L 13.3125 -0.53125 L 15.296875 -0.734375 L 16.109375 -0.734375 L 18.09375 -0.53125 L 18.09375 0 Z M 14.78125 0 C 14.789062 -0.3125 14.796875 -0.722656 14.796875 -1.234375 C 14.804688 -1.753906 14.816406 -2.296875 14.828125 -2.859375 C 14.835938 -3.429688 14.84375 -3.9375 14.84375 -4.375 L 14.84375 -6.609375 C 14.84375 -7.546875 14.695312 -8.191406 14.40625 -8.546875 C 14.125 -8.910156 13.71875 -9.09375 13.1875 -9.09375 C 12.71875 -9.09375 12.21875 -8.953125 11.6875 -8.671875 C 11.164062 -8.390625 10.601562 -7.894531 10 -7.1875 L 9.796875 -7.96875 L 10.0625 -7.96875 C 10.664062 -8.738281 11.28125 -9.300781 11.90625 -9.65625 C 12.539062 -10.019531 13.203125 -10.203125 13.890625 -10.203125 C 14.796875 -10.203125 15.484375 -9.921875 15.953125 -9.359375 C 16.421875 -8.796875 16.65625 -7.875 16.65625 -6.59375 L 16.65625 -4.375 C 16.65625 -3.9375 16.660156 -3.429688 16.671875 -2.859375 C 16.679688 -2.296875 16.6875 -1.753906 16.6875 -1.234375 C 16.695312 -0.722656 16.707031 -0.3125 16.71875 0 Z M 14.78125 0 "/></g></g></g><g fill="#000000" fill-opacity="1"><g transform="translate(414.950048, 475.541588)"><g><path d="M 5.71875 0.28125 C 4.832031 0.28125 4.019531 0.0820312 3.28125 -0.3125 C 2.550781 -0.707031 1.96875 -1.296875 1.53125 -2.078125 C 1.09375 -2.867188 0.875 -3.828125 0.875 -4.953125 C 0.875 -6.097656 1.097656 -7.054688 1.546875 -7.828125 C 2.003906 -8.609375 2.601562 -9.195312 3.34375 -9.59375 C 4.09375 -10 4.882812 -10.203125 5.71875 -10.203125 C 6.582031 -10.203125 7.382812 -10 8.125 -9.59375 C 8.863281 -9.195312 9.460938 -8.609375 9.921875 -7.828125 C 10.378906 -7.054688 10.609375 -6.097656 10.609375 -4.953125 C 10.609375 -3.828125 10.378906 -2.867188 9.921875 -2.078125 C 9.472656 -1.296875 8.878906 -0.707031 8.140625 -0.3125 C 7.410156 0.0820312 6.601562 0.28125 5.71875 0.28125 Z M 5.71875 -0.328125 C 6.613281 -0.328125 7.316406 -0.71875 7.828125 -1.5 C 8.335938 -2.28125 8.59375 -3.425781 8.59375 -4.9375 C 8.59375 -6.445312 8.335938 -7.597656 7.828125 -8.390625 C 7.316406 -9.179688 6.613281 -9.578125 5.71875 -9.578125 C 4.832031 -9.578125 4.132812 -9.179688 3.625 -8.390625 C 3.125 -7.597656 2.875 -6.445312 2.875 -4.9375 C 2.875 -3.425781 3.125 -2.28125 3.625 -1.5 C 4.132812 -0.71875 4.832031 -0.328125 5.71875 -0.328125 Z M 5.71875 -0.328125 "/></g></g></g><g fill="#000000" fill-opacity="1"><g transform="translate(426.423699, 475.541588)"><g><path d="M 0.765625 0 L 0.765625 -0.53125 L 2.8125 -0.734375 L 3.59375 -0.734375 L 5.59375 -0.53125 L 5.59375 0 Z M 2.265625 0 C 2.273438 -0.3125 2.28125 -0.726562 2.28125 -1.25 C 2.289062 -1.769531 2.296875 -2.316406 2.296875 -2.890625 C 2.304688 -3.460938 2.3125 -3.957031 2.3125 -4.375 L 2.3125 -5.609375 C 2.3125 -6.253906 2.304688 -6.816406 2.296875 -7.296875 C 2.296875 -7.785156 2.285156 -8.257812 2.265625 -8.71875 L 0.640625 -8.828125 L 0.640625 -9.3125 L 3.796875 -10.140625 L 4.046875 -10 L 4.15625 -7.796875 L 4.15625 -4.375 C 4.15625 -3.957031 4.160156 -3.460938 4.171875 -2.890625 C 4.179688 -2.316406 4.1875 -1.769531 4.1875 -1.25 C 4.195312 -0.726562 4.207031 -0.3125 4.21875 0 Z M 7.265625 0 L 7.265625 -0.53125 L 9.265625 -0.734375 L 10.0625 -0.734375 L 12.0625 -0.53125 L 12.0625 0 Z M 8.734375 0 C 8.753906 -0.3125 8.765625 -0.722656 8.765625 -1.234375 C 8.773438 -1.753906 8.78125 -2.296875 8.78125 -2.859375 C 8.789062 -3.429688 8.796875 -3.9375 8.796875 -4.375 L 8.796875 -6.6875 C 8.796875 -7.570312 8.648438 -8.191406 8.359375 -8.546875 C 8.066406 -8.910156 7.65625 -9.09375 7.125 -9.09375 C 6.707031 -9.09375 6.207031 -8.953125 5.625 -8.671875 C 5.039062 -8.390625 4.421875 -7.878906 3.765625 -7.140625 L 3.625 -7.828125 L 3.84375 -7.828125 C 4.539062 -8.691406 5.222656 -9.300781 5.890625 -9.65625 C 6.554688 -10.019531 7.226562 -10.203125 7.90625 -10.203125 C 8.75 -10.203125 9.410156 -9.921875 9.890625 -9.359375 C 10.378906 -8.796875 10.625 -7.878906 10.625 -6.609375 L 10.625 -4.375 C 10.625 -3.9375 10.625 -3.429688 10.625 -2.859375 C 10.632812 -2.296875 10.644531 -1.753906 10.65625 -1.234375 C 10.664062 -0.722656 10.679688 -0.3125 10.703125 0 Z M 8.734375 0 "/></g></g></g><g fill="#000000" fill-opacity="1"><g transform="translate(438.676155, 475.541588)"><g><path d="M 1.640625 5.15625 C 1.191406 5.15625 0.785156 5.054688 0.421875 4.859375 C 0.0664062 4.660156 -0.128906 4.382812 -0.171875 4.03125 C -0.117188 3.738281 0.0195312 3.519531 0.25 3.375 C 0.488281 3.238281 0.753906 3.171875 1.046875 3.171875 C 1.328125 3.171875 1.582031 3.238281 1.8125 3.375 C 2.050781 3.519531 2.273438 3.710938 2.484375 3.953125 L 3.046875 4.515625 L 2.40625 4.859375 L 2.046875 4.546875 C 2.671875 4.335938 3.21875 3.9375 3.6875 3.34375 C 4.15625 2.75 4.570312 1.976562 4.9375 1.03125 L 5.484375 -0.34375 L 5.609375 -0.640625 L 7.28125 -5.296875 L 8.859375 -9.921875 L 9.609375 -9.921875 L 5.59375 0.859375 C 5.207031 1.878906 4.804688 2.707031 4.390625 3.34375 C 3.972656 3.976562 3.535156 4.4375 3.078125 4.71875 C 2.628906 5.007812 2.148438 5.15625 1.640625 5.15625 Z M 5.25 1.078125 L 0.78125 -9.921875 L 2.8125 -9.921875 L 5.96875 -1.328125 L 6.078125 -1.109375 Z M -0.15625 -9.390625 L -0.15625 -9.921875 L 4.765625 -9.921875 L 4.765625 -9.390625 L 2.78125 -9.171875 L 1.75 -9.171875 Z M 6.78125 -9.390625 L 6.78125 -9.921875 L 10.640625 -9.921875 L 10.640625 -9.390625 L 9.078125 -9.203125 L 8.796875 -9.203125 Z M 6.78125 -9.390625 "/></g></g></g><g fill="#000000" fill-opacity="1"><g transform="translate(554.71884, 214.122079)"><g><path d="M 6.3125 0.109375 L 1.40625 -13.90625 L 3.5 -13.90625 L 7.59375 -1.59375 L 7.265625 -1.59375 L 7.328125 -1.859375 L 11.203125 -13.90625 L 12.109375 -13.90625 L 7.375 0.109375 Z M 0.09375 -13.3125 L 0.09375 -13.90625 L 5.875 -13.90625 L 5.875 -13.3125 L 3.15625 -13.09375 L 2.703125 -13.09375 Z M 8.875 -13.3125 L 8.875 -13.90625 L 13.53125 -13.90625 L 13.53125 -13.34375 L 11.5 -13.09375 L 11.1875 -13.09375 Z M 8.875 -13.3125 "/></g></g></g><g fill="#000000" fill-opacity="1"><g transform="translate(567.826123, 214.122079)"><g><path d="M 0.796875 0 L 0.796875 -0.53125 L 2.875 -0.734375 L 3.625 -0.734375 L 5.65625 -0.53125 L 5.65625 0 Z M 2.296875 0 C 2.304688 -0.3125 2.316406 -0.726562 2.328125 -1.25 C 2.347656 -1.769531 2.359375 -2.316406 2.359375 -2.890625 C 2.367188 -3.460938 2.375 -3.957031 2.375 -4.375 L 2.375 -5.59375 C 2.375 -6.238281 2.367188 -6.8125 2.359375 -7.3125 C 2.347656 -7.8125 2.328125 -8.296875 2.296875 -8.765625 L 0.671875 -8.859375 L 0.671875 -9.328125 L 4.03125 -10.140625 L 4.28125 -10 L 4.21875 -7.265625 L 4.21875 -4.375 C 4.21875 -3.957031 4.21875 -3.460938 4.21875 -2.890625 C 4.226562 -2.316406 4.234375 -1.769531 4.234375 -1.25 C 4.242188 -0.726562 4.257812 -0.3125 4.28125 0 Z M 3.15625 -12.4375 C 2.820312 -12.4375 2.535156 -12.546875 2.296875 -12.765625 C 2.066406 -12.984375 1.953125 -13.265625 1.953125 -13.609375 C 1.953125 -13.941406 2.066406 -14.21875 2.296875 -14.4375 C 2.535156 -14.65625 2.820312 -14.765625 3.15625 -14.765625 C 3.476562 -14.765625 3.757812 -14.65625 4 -14.4375 C 4.25 -14.21875 4.375 -13.941406 4.375 -13.609375 C 4.375 -13.265625 4.25 -12.984375 4 -12.765625 C 3.757812 -12.546875 3.476562 -12.4375 3.15625 -12.4375 Z M 3.15625 -12.4375 "/></g></g></g><g fill="#000000" fill-opacity="1"><g transform="translate(574.22781, 214.122079)"><g><path d="M 3.59375 0.28125 C 2.832031 0.28125 2.195312 0.0664062 1.6875 -0.359375 C 1.1875 -0.785156 0.9375 -1.398438 0.9375 -2.203125 C 0.9375 -2.710938 1.046875 -3.160156 1.265625 -3.546875 C 1.484375 -3.941406 1.851562 -4.296875 2.375 -4.609375 C 2.894531 -4.921875 3.59375 -5.203125 4.46875 -5.453125 C 4.988281 -5.609375 5.546875 -5.757812 6.140625 -5.90625 C 6.734375 -6.0625 7.285156 -6.203125 7.796875 -6.328125 L 7.796875 -5.859375 C 7.285156 -5.722656 6.769531 -5.582031 6.25 -5.4375 C 5.738281 -5.289062 5.285156 -5.144531 4.890625 -5 C 4.109375 -4.707031 3.550781 -4.351562 3.21875 -3.9375 C 2.882812 -3.53125 2.71875 -3.039062 2.71875 -2.46875 C 2.71875 -1.882812 2.867188 -1.445312 3.171875 -1.15625 C 3.484375 -0.863281 3.894531 -0.71875 4.40625 -0.71875 C 4.675781 -0.71875 4.941406 -0.769531 5.203125 -0.875 C 5.472656 -0.976562 5.773438 -1.164062 6.109375 -1.4375 C 6.453125 -1.707031 6.859375 -2.082031 7.328125 -2.5625 L 7.53125 -1.640625 L 7.015625 -1.640625 C 6.628906 -1.210938 6.265625 -0.859375 5.921875 -0.578125 C 5.585938 -0.296875 5.234375 -0.0820312 4.859375 0.0625 C 4.492188 0.207031 4.070312 0.28125 3.59375 0.28125 Z M 8.71875 0.265625 C 8.132812 0.265625 7.691406 0.078125 7.390625 -0.296875 C 7.097656 -0.679688 6.925781 -1.203125 6.875 -1.859375 L 6.875 -6.9375 C 6.875 -7.644531 6.796875 -8.1875 6.640625 -8.5625 C 6.492188 -8.945312 6.265625 -9.210938 5.953125 -9.359375 C 5.640625 -9.515625 5.238281 -9.59375 4.75 -9.59375 C 4.394531 -9.59375 4.035156 -9.546875 3.671875 -9.453125 C 3.316406 -9.359375 2.921875 -9.195312 2.484375 -8.96875 L 3.421875 -9.484375 L 3.140625 -7.984375 C 3.097656 -7.585938 2.984375 -7.304688 2.796875 -7.140625 C 2.617188 -6.972656 2.398438 -6.890625 2.140625 -6.890625 C 1.640625 -6.890625 1.332031 -7.140625 1.21875 -7.640625 C 1.382812 -8.429688 1.816406 -9.054688 2.515625 -9.515625 C 3.222656 -9.972656 4.148438 -10.203125 5.296875 -10.203125 C 6.453125 -10.203125 7.300781 -9.925781 7.84375 -9.375 C 8.382812 -8.832031 8.65625 -7.957031 8.65625 -6.75 L 8.65625 -1.96875 C 8.65625 -1.425781 8.722656 -1.050781 8.859375 -0.84375 C 8.992188 -0.644531 9.179688 -0.546875 9.421875 -0.546875 C 9.578125 -0.546875 9.71875 -0.582031 9.84375 -0.65625 C 9.96875 -0.738281 10.113281 -0.875 10.28125 -1.0625 L 10.578125 -0.796875 C 10.378906 -0.429688 10.125 -0.164062 9.8125 0 C 9.5 0.175781 9.132812 0.265625 8.71875 0.265625 Z M 8.71875 0.265625 "/></g></g></g><g fill="#000000" fill-opacity="1"><g transform="translate(584.960617, 214.122079)"><g><path d="M 0.78125 0 L 0.78125 -0.53125 L 2.296875 -0.671875 C 2.304688 -1.035156 2.3125 -1.4375 2.3125 -1.875 C 2.3125 -2.320312 2.316406 -2.765625 2.328125 -3.203125 C 2.335938 -3.640625 2.34375 -4.03125 2.34375 -4.375 L 2.34375 -14.15625 L 0.71875 -14.25 L 0.71875 -14.765625 L 3.9375 -15.375 L 4.21875 -15.203125 L 4.15625 -12.234375 L 4.15625 -8.453125 L 4.203125 -8.265625 L 4.203125 -1.5 L 3.90625 0.203125 Z M 7.21875 0.28125 C 6.613281 0.28125 6.015625 0.128906 5.421875 -0.171875 C 4.835938 -0.472656 4.3125 -0.96875 3.84375 -1.65625 L 3.625 -1.65625 L 3.890625 -2.09375 C 4.347656 -1.582031 4.789062 -1.222656 5.21875 -1.015625 C 5.65625 -0.804688 6.109375 -0.703125 6.578125 -0.703125 C 7.097656 -0.703125 7.570312 -0.835938 8 -1.109375 C 8.4375 -1.378906 8.789062 -1.832031 9.0625 -2.46875 C 9.332031 -3.101562 9.46875 -3.960938 9.46875 -5.046875 C 9.46875 -6.484375 9.195312 -7.539062 8.65625 -8.21875 C 8.125 -8.894531 7.441406 -9.234375 6.609375 -9.234375 C 6.316406 -9.234375 6.019531 -9.191406 5.71875 -9.109375 C 5.414062 -9.023438 5.097656 -8.863281 4.765625 -8.625 C 4.441406 -8.394531 4.078125 -8.0625 3.671875 -7.625 L 3.4375 -8.171875 L 3.71875 -8.171875 C 4.238281 -8.878906 4.816406 -9.394531 5.453125 -9.71875 C 6.097656 -10.039062 6.75 -10.203125 7.40625 -10.203125 C 8.195312 -10.203125 8.890625 -9.992188 9.484375 -9.578125 C 10.085938 -9.160156 10.5625 -8.566406 10.90625 -7.796875 C 11.257812 -7.035156 11.4375 -6.113281 11.4375 -5.03125 C 11.4375 -4.007812 11.257812 -3.09375 10.90625 -2.28125 C 10.550781 -1.476562 10.054688 -0.847656 9.421875 -0.390625 C 8.785156 0.0546875 8.050781 0.28125 7.21875 0.28125 Z M 7.21875 0.28125 "/></g></g></g><g fill="#000000" fill-opacity="1"><g transform="translate(597.232105, 214.122079)"><g><path d="M 0.640625 0 L 0.640625 -0.53125 L 2.84375 -0.734375 L 3.609375 -0.734375 L 5.859375 -0.53125 L 5.859375 0 Z M 2.28125 0 C 2.289062 -0.414062 2.296875 -0.875 2.296875 -1.375 C 2.304688 -1.875 2.316406 -2.382812 2.328125 -2.90625 C 2.335938 -3.425781 2.34375 -3.914062 2.34375 -4.375 L 2.34375 -14.15625 L 0.71875 -14.25 L 0.71875 -14.765625 L 3.96875 -15.375 L 4.25 -15.203125 L 4.203125 -12.234375 L 4.203125 -4.375 C 4.203125 -3.914062 4.203125 -3.425781 4.203125 -2.90625 C 4.210938 -2.382812 4.21875 -1.875 4.21875 -1.375 C 4.226562 -0.875 4.238281 -0.414062 4.25 0 Z M 2.28125 0 "/></g></g></g><g fill="#000000" fill-opacity="1"><g transform="translate(603.690784, 214.122079)"><g><path d="M 5.828125 0.28125 C 4.867188 0.28125 4.015625 0.0859375 3.265625 -0.296875 C 2.515625 -0.691406 1.925781 -1.28125 1.5 -2.0625 C 1.082031 -2.84375 0.875 -3.800781 0.875 -4.9375 C 0.875 -6.03125 1.09375 -6.96875 1.53125 -7.75 C 1.976562 -8.539062 2.566406 -9.144531 3.296875 -9.5625 C 4.035156 -9.988281 4.832031 -10.203125 5.6875 -10.203125 C 6.539062 -10.203125 7.269531 -10.023438 7.875 -9.671875 C 8.476562 -9.316406 8.929688 -8.835938 9.234375 -8.234375 C 9.546875 -7.628906 9.703125 -6.941406 9.703125 -6.171875 C 9.703125 -5.710938 9.664062 -5.332031 9.59375 -5.03125 L 1.703125 -5.03125 L 1.703125 -5.640625 L 7.03125 -5.640625 C 7.382812 -5.640625 7.625 -5.734375 7.75 -5.921875 C 7.875 -6.117188 7.9375 -6.425781 7.9375 -6.84375 C 7.9375 -7.664062 7.734375 -8.328125 7.328125 -8.828125 C 6.921875 -9.328125 6.351562 -9.578125 5.625 -9.578125 C 5.101562 -9.578125 4.628906 -9.40625 4.203125 -9.0625 C 3.785156 -8.726562 3.445312 -8.234375 3.1875 -7.578125 C 2.9375 -6.929688 2.8125 -6.132812 2.8125 -5.1875 C 2.8125 -4.15625 2.96875 -3.304688 3.28125 -2.640625 C 3.59375 -1.984375 4.015625 -1.5 4.546875 -1.1875 C 5.078125 -0.882812 5.691406 -0.734375 6.390625 -0.734375 C 7.054688 -0.734375 7.632812 -0.851562 8.125 -1.09375 C 8.613281 -1.34375 9.039062 -1.6875 9.40625 -2.125 L 9.734375 -1.875 C 9.328125 -1.195312 8.796875 -0.664062 8.140625 -0.28125 C 7.484375 0.09375 6.710938 0.28125 5.828125 0.28125 Z M 5.828125 0.28125 "/></g></g></g><g fill="#000000" fill-opacity="1"><g transform="translate(643.099243, 108.211663)"><g><path d="M 0.96875 0 L 0.96875 -0.59375 L 3.671875 -0.84375 L 4.109375 -0.84375 L 6.84375 -0.59375 L 6.84375 0 Z M 2.84375 0 C 2.882812 -1.0625 2.90625 -2.128906 2.90625 -3.203125 C 2.90625 -4.285156 2.90625 -5.363281 2.90625 -6.4375 L 2.90625 -7.453125 C 2.90625 -8.535156 2.90625 -9.613281 2.90625 -10.6875 C 2.90625 -11.757812 2.882812 -12.832031 2.84375 -13.90625 L 4.9375 -13.90625 C 4.914062 -12.84375 4.898438 -11.769531 4.890625 -10.6875 C 4.890625 -9.613281 4.890625 -8.535156 4.890625 -7.453125 L 4.890625 -6.453125 C 4.890625 -5.367188 4.890625 -4.289062 4.890625 -3.21875 C 4.898438 -2.144531 4.914062 -1.070312 4.9375 0 Z M 0.96875 -13.3125 L 0.96875 -13.90625 L 6.84375 -13.90625 L 6.84375 -13.3125 L 4.109375 -13.09375 L 3.671875 -13.09375 Z M 0.96875 -13.3125 "/></g></g></g><g fill="#000000" fill-opacity="1"><g transform="translate(650.906642, 108.211663)"><g><path d="M 0.765625 0 L 0.765625 -0.53125 L 2.8125 -0.734375 L 3.59375 -0.734375 L 5.59375 -0.53125 L 5.59375 0 Z M 2.265625 0 C 2.273438 -0.3125 2.28125 -0.726562 2.28125 -1.25 C 2.289062 -1.769531 2.296875 -2.316406 2.296875 -2.890625 C 2.304688 -3.460938 2.3125 -3.957031 2.3125 -4.375 L 2.3125 -5.609375 C 2.3125 -6.253906 2.304688 -6.816406 2.296875 -7.296875 C 2.296875 -7.785156 2.285156 -8.257812 2.265625 -8.71875 L 0.640625 -8.828125 L 0.640625 -9.3125 L 3.796875 -10.140625 L 4.046875 -10 L 4.15625 -7.796875 L 4.15625 -4.375 C 4.15625 -3.957031 4.160156 -3.460938 4.171875 -2.890625 C 4.179688 -2.316406 4.1875 -1.769531 4.1875 -1.25 C 4.195312 -0.726562 4.207031 -0.3125 4.21875 0 Z M 7.265625 0 L 7.265625 -0.53125 L 9.265625 -0.734375 L 10.0625 -0.734375 L 12.0625 -0.53125 L 12.0625 0 Z M 8.734375 0 C 8.753906 -0.3125 8.765625 -0.722656 8.765625 -1.234375 C 8.773438 -1.753906 8.78125 -2.296875 8.78125 -2.859375 C 8.789062 -3.429688 8.796875 -3.9375 8.796875 -4.375 L 8.796875 -6.6875 C 8.796875 -7.570312 8.648438 -8.191406 8.359375 -8.546875 C 8.066406 -8.910156 7.65625 -9.09375 7.125 -9.09375 C 6.707031 -9.09375 6.207031 -8.953125 5.625 -8.671875 C 5.039062 -8.390625 4.421875 -7.878906 3.765625 -7.140625 L 3.625 -7.828125 L 3.84375 -7.828125 C 4.539062 -8.691406 5.222656 -9.300781 5.890625 -9.65625 C 6.554688 -10.019531 7.226562 -10.203125 7.90625 -10.203125 C 8.75 -10.203125 9.410156 -9.921875 9.890625 -9.359375 C 10.378906 -8.796875 10.625 -7.878906 10.625 -6.609375 L 10.625 -4.375 C 10.625 -3.9375 10.625 -3.429688 10.625 -2.859375 C 10.632812 -2.296875 10.644531 -1.753906 10.65625 -1.234375 C 10.664062 -0.722656 10.679688 -0.3125 10.703125 0 Z M 8.734375 0 "/></g></g></g><g fill="#000000" fill-opacity="1"><g transform="translate(663.159099, 108.211663)"><g><path d="M 4.8125 0.09375 L 0.78125 -9.921875 L 2.84375 -9.921875 L 6.015625 -1.40625 L 5.6875 -1.40625 L 5.78125 -1.65625 L 8.640625 -9.921875 L 9.421875 -9.921875 L 5.65625 0.09375 Z M -0.171875 -9.34375 L -0.171875 -9.921875 L 4.765625 -9.921875 L 4.765625 -9.34375 L 2.71875 -9.15625 L 1.703125 -9.15625 Z M 6.765625 -9.34375 L 6.765625 -9.921875 L 10.484375 -9.921875 L 10.484375 -9.34375 L 8.953125 -9.15625 L 8.609375 -9.15625 Z M 6.765625 -9.34375 "/></g></g></g><g fill="#000000" fill-opacity="1"><g transform="translate(673.739939, 108.211663)"><g><path d="M 0.796875 0 L 0.796875 -0.53125 L 2.875 -0.734375 L 3.625 -0.734375 L 5.65625 -0.53125 L 5.65625 0 Z M 2.296875 0 C 2.304688 -0.3125 2.316406 -0.726562 2.328125 -1.25 C 2.347656 -1.769531 2.359375 -2.316406 2.359375 -2.890625 C 2.367188 -3.460938 2.375 -3.957031 2.375 -4.375 L 2.375 -5.59375 C 2.375 -6.238281 2.367188 -6.8125 2.359375 -7.3125 C 2.347656 -7.8125 2.328125 -8.296875 2.296875 -8.765625 L 0.671875 -8.859375 L 0.671875 -9.328125 L 4.03125 -10.140625 L 4.28125 -10 L 4.21875 -7.265625 L 4.21875 -4.375 C 4.21875 -3.957031 4.21875 -3.460938 4.21875 -2.890625 C 4.226562 -2.316406 4.234375 -1.769531 4.234375 -1.25 C 4.242188 -0.726562 4.257812 -0.3125 4.28125 0 Z M 3.15625 -12.4375 C 2.820312 -12.4375 2.535156 -12.546875 2.296875 -12.765625 C 2.066406 -12.984375 1.953125 -13.265625 1.953125 -13.609375 C 1.953125 -13.941406 2.066406 -14.21875 2.296875 -14.4375 C 2.535156 -14.65625 2.820312 -14.765625 3.15625 -14.765625 C 3.476562 -14.765625 3.757812 -14.65625 4 -14.4375 C 4.25 -14.21875 4.375 -13.941406 4.375 -13.609375 C 4.375 -13.265625 4.25 -12.984375 4 -12.765625 C 3.757812 -12.546875 3.476562 -12.4375 3.15625 -12.4375 Z M 3.15625 -12.4375 "/></g></g></g><g fill="#000000" fill-opacity="1"><g transform="translate(680.141626, 108.211663)"><g><path d="M 3.59375 0.28125 C 2.832031 0.28125 2.195312 0.0664062 1.6875 -0.359375 C 1.1875 -0.785156 0.9375 -1.398438 0.9375 -2.203125 C 0.9375 -2.710938 1.046875 -3.160156 1.265625 -3.546875 C 1.484375 -3.941406 1.851562 -4.296875 2.375 -4.609375 C 2.894531 -4.921875 3.59375 -5.203125 4.46875 -5.453125 C 4.988281 -5.609375 5.546875 -5.757812 6.140625 -5.90625 C 6.734375 -6.0625 7.285156 -6.203125 7.796875 -6.328125 L 7.796875 -5.859375 C 7.285156 -5.722656 6.769531 -5.582031 6.25 -5.4375 C 5.738281 -5.289062 5.285156 -5.144531 4.890625 -5 C 4.109375 -4.707031 3.550781 -4.351562 3.21875 -3.9375 C 2.882812 -3.53125 2.71875 -3.039062 2.71875 -2.46875 C 2.71875 -1.882812 2.867188 -1.445312 3.171875 -1.15625 C 3.484375 -0.863281 3.894531 -0.71875 4.40625 -0.71875 C 4.675781 -0.71875 4.941406 -0.769531 5.203125 -0.875 C 5.472656 -0.976562 5.773438 -1.164062 6.109375 -1.4375 C 6.453125 -1.707031 6.859375 -2.082031 7.328125 -2.5625 L 7.53125 -1.640625 L 7.015625 -1.640625 C 6.628906 -1.210938 6.265625 -0.859375 5.921875 -0.578125 C 5.585938 -0.296875 5.234375 -0.0820312 4.859375 0.0625 C 4.492188 0.207031 4.070312 0.28125 3.59375 0.28125 Z M 8.71875 0.265625 C 8.132812 0.265625 7.691406 0.078125 7.390625 -0.296875 C 7.097656 -0.679688 6.925781 -1.203125 6.875 -1.859375 L 6.875 -6.9375 C 6.875 -7.644531 6.796875 -8.1875 6.640625 -8.5625 C 6.492188 -8.945312 6.265625 -9.210938 5.953125 -9.359375 C 5.640625 -9.515625 5.238281 -9.59375 4.75 -9.59375 C 4.394531 -9.59375 4.035156 -9.546875 3.671875 -9.453125 C 3.316406 -9.359375 2.921875 -9.195312 2.484375 -8.96875 L 3.421875 -9.484375 L 3.140625 -7.984375 C 3.097656 -7.585938 2.984375 -7.304688 2.796875 -7.140625 C 2.617188 -6.972656 2.398438 -6.890625 2.140625 -6.890625 C 1.640625 -6.890625 1.332031 -7.140625 1.21875 -7.640625 C 1.382812 -8.429688 1.816406 -9.054688 2.515625 -9.515625 C 3.222656 -9.972656 4.148438 -10.203125 5.296875 -10.203125 C 6.453125 -10.203125 7.300781 -9.925781 7.84375 -9.375 C 8.382812 -8.832031 8.65625 -7.957031 8.65625 -6.75 L 8.65625 -1.96875 C 8.65625 -1.425781 8.722656 -1.050781 8.859375 -0.84375 C 8.992188 -0.644531 9.179688 -0.546875 9.421875 -0.546875 C 9.578125 -0.546875 9.71875 -0.582031 9.84375 -0.65625 C 9.96875 -0.738281 10.113281 -0.875 10.28125 -1.0625 L 10.578125 -0.796875 C 10.378906 -0.429688 10.125 -0.164062 9.8125 0 C 9.5 0.175781 9.132812 0.265625 8.71875 0.265625 Z M 8.71875 0.265625 "/></g></g></g><g fill="#000000" fill-opacity="1"><g transform="translate(690.874433, 108.211663)"><g><path d="M 0.78125 0 L 0.78125 -0.53125 L 2.296875 -0.671875 C 2.304688 -1.035156 2.3125 -1.4375 2.3125 -1.875 C 2.3125 -2.320312 2.316406 -2.765625 2.328125 -3.203125 C 2.335938 -3.640625 2.34375 -4.03125 2.34375 -4.375 L 2.34375 -14.15625 L 0.71875 -14.25 L 0.71875 -14.765625 L 3.9375 -15.375 L 4.21875 -15.203125 L 4.15625 -12.234375 L 4.15625 -8.453125 L 4.203125 -8.265625 L 4.203125 -1.5 L 3.90625 0.203125 Z M 7.21875 0.28125 C 6.613281 0.28125 6.015625 0.128906 5.421875 -0.171875 C 4.835938 -0.472656 4.3125 -0.96875 3.84375 -1.65625 L 3.625 -1.65625 L 3.890625 -2.09375 C 4.347656 -1.582031 4.789062 -1.222656 5.21875 -1.015625 C 5.65625 -0.804688 6.109375 -0.703125 6.578125 -0.703125 C 7.097656 -0.703125 7.570312 -0.835938 8 -1.109375 C 8.4375 -1.378906 8.789062 -1.832031 9.0625 -2.46875 C 9.332031 -3.101562 9.46875 -3.960938 9.46875 -5.046875 C 9.46875 -6.484375 9.195312 -7.539062 8.65625 -8.21875 C 8.125 -8.894531 7.441406 -9.234375 6.609375 -9.234375 C 6.316406 -9.234375 6.019531 -9.191406 5.71875 -9.109375 C 5.414062 -9.023438 5.097656 -8.863281 4.765625 -8.625 C 4.441406 -8.394531 4.078125 -8.0625 3.671875 -7.625 L 3.4375 -8.171875 L 3.71875 -8.171875 C 4.238281 -8.878906 4.816406 -9.394531 5.453125 -9.71875 C 6.097656 -10.039062 6.75 -10.203125 7.40625 -10.203125 C 8.195312 -10.203125 8.890625 -9.992188 9.484375 -9.578125 C 10.085938 -9.160156 10.5625 -8.566406 10.90625 -7.796875 C 11.257812 -7.035156 11.4375 -6.113281 11.4375 -5.03125 C 11.4375 -4.007812 11.257812 -3.09375 10.90625 -2.28125 C 10.550781 -1.476562 10.054688 -0.847656 9.421875 -0.390625 C 8.785156 0.0546875 8.050781 0.28125 7.21875 0.28125 Z M 7.21875 0.28125 "/></g></g></g><g fill="#000000" fill-opacity="1"><g transform="translate(703.145921, 108.211663)"><g><path d="M 0.640625 0 L 0.640625 -0.53125 L 2.84375 -0.734375 L 3.609375 -0.734375 L 5.859375 -0.53125 L 5.859375 0 Z M 2.28125 0 C 2.289062 -0.414062 2.296875 -0.875 2.296875 -1.375 C 2.304688 -1.875 2.316406 -2.382812 2.328125 -2.90625 C 2.335938 -3.425781 2.34375 -3.914062 2.34375 -4.375 L 2.34375 -14.15625 L 0.71875 -14.25 L 0.71875 -14.765625 L 3.96875 -15.375 L 4.25 -15.203125 L 4.203125 -12.234375 L 4.203125 -4.375 C 4.203125 -3.914062 4.203125 -3.425781 4.203125 -2.90625 C 4.210938 -2.382812 4.21875 -1.875 4.21875 -1.375 C 4.226562 -0.875 4.238281 -0.414062 4.25 0 Z M 2.28125 0 "/></g></g></g><g fill="#000000" fill-opacity="1"><g transform="translate(709.604599, 108.211663)"><g><path d="M 5.828125 0.28125 C 4.867188 0.28125 4.015625 0.0859375 3.265625 -0.296875 C 2.515625 -0.691406 1.925781 -1.28125 1.5 -2.0625 C 1.082031 -2.84375 0.875 -3.800781 0.875 -4.9375 C 0.875 -6.03125 1.09375 -6.96875 1.53125 -7.75 C 1.976562 -8.539062 2.566406 -9.144531 3.296875 -9.5625 C 4.035156 -9.988281 4.832031 -10.203125 5.6875 -10.203125 C 6.539062 -10.203125 7.269531 -10.023438 7.875 -9.671875 C 8.476562 -9.316406 8.929688 -8.835938 9.234375 -8.234375 C 9.546875 -7.628906 9.703125 -6.941406 9.703125 -6.171875 C 9.703125 -5.710938 9.664062 -5.332031 9.59375 -5.03125 L 1.703125 -5.03125 L 1.703125 -5.640625 L 7.03125 -5.640625 C 7.382812 -5.640625 7.625 -5.734375 7.75 -5.921875 C 7.875 -6.117188 7.9375 -6.425781 7.9375 -6.84375 C 7.9375 -7.664062 7.734375 -8.328125 7.328125 -8.828125 C 6.921875 -9.328125 6.351562 -9.578125 5.625 -9.578125 C 5.101562 -9.578125 4.628906 -9.40625 4.203125 -9.0625 C 3.785156 -8.726562 3.445312 -8.234375 3.1875 -7.578125 C 2.9375 -6.929688 2.8125 -6.132812 2.8125 -5.1875 C 2.8125 -4.15625 2.96875 -3.304688 3.28125 -2.640625 C 3.59375 -1.984375 4.015625 -1.5 4.546875 -1.1875 C 5.078125 -0.882812 5.691406 -0.734375 6.390625 -0.734375 C 7.054688 -0.734375 7.632812 -0.851562 8.125 -1.09375 C 8.613281 -1.34375 9.039062 -1.6875 9.40625 -2.125 L 9.734375 -1.875 C 9.328125 -1.195312 8.796875 -0.664062 8.140625 -0.28125 C 7.484375 0.09375 6.710938 0.28125 5.828125 0.28125 Z M 5.828125 0.28125 "/></g></g></g><g fill="#000000" fill-opacity="1"><g transform="translate(359.583969, 377.335196)"><g><path d="M 8.09375 0.328125 C 6.6875 0.328125 5.453125 0.0234375 4.390625 -0.578125 C 3.328125 -1.191406 2.5 -2.039062 1.90625 -3.125 C 1.320312 -4.21875 1.03125 -5.5 1.03125 -6.96875 C 1.03125 -8.425781 1.328125 -9.695312 1.921875 -10.78125 C 2.523438 -11.863281 3.363281 -12.707031 4.4375 -13.3125 C 5.519531 -13.925781 6.765625 -14.234375 8.171875 -14.234375 C 9.015625 -14.234375 9.765625 -14.140625 10.421875 -13.953125 C 11.078125 -13.773438 11.695312 -13.503906 12.28125 -13.140625 L 12.296875 -10.015625 L 11.359375 -10.015625 L 10.625 -13.453125 L 11.71875 -13.03125 L 11.71875 -12.3125 C 11.175781 -12.757812 10.648438 -13.078125 10.140625 -13.265625 C 9.640625 -13.453125 9.054688 -13.546875 8.390625 -13.546875 C 7.378906 -13.546875 6.472656 -13.289062 5.671875 -12.78125 C 4.878906 -12.269531 4.257812 -11.519531 3.8125 -10.53125 C 3.363281 -9.550781 3.140625 -8.359375 3.140625 -6.953125 C 3.140625 -5.597656 3.359375 -4.425781 3.796875 -3.4375 C 4.234375 -2.445312 4.835938 -1.6875 5.609375 -1.15625 C 6.390625 -0.625 7.285156 -0.359375 8.296875 -0.359375 C 8.867188 -0.359375 9.398438 -0.421875 9.890625 -0.546875 C 10.390625 -0.671875 10.894531 -0.867188 11.40625 -1.140625 L 10.65625 -0.59375 L 10.65625 -1.921875 C 10.65625 -2.734375 10.648438 -3.523438 10.640625 -4.296875 C 10.628906 -5.078125 10.609375 -5.875 10.578125 -6.6875 L 12.59375 -6.6875 C 12.582031 -5.957031 12.570312 -5.203125 12.5625 -4.421875 C 12.550781 -3.640625 12.546875 -2.789062 12.546875 -1.875 L 12.546875 -0.90625 C 11.804688 -0.476562 11.085938 -0.164062 10.390625 0.03125 C 9.703125 0.226562 8.9375 0.328125 8.09375 0.328125 Z M 8.421875 -6.09375 L 8.421875 -6.6875 L 13.921875 -6.6875 L 13.921875 -6.09375 L 11.796875 -5.875 L 11.078125 -5.875 Z M 8.421875 -6.09375 "/></g></g></g><g fill="#000000" fill-opacity="1"><g transform="translate(373.755073, 377.335196)"><g><path d="M 5.71875 0.28125 C 4.832031 0.28125 4.019531 0.0820312 3.28125 -0.3125 C 2.550781 -0.707031 1.96875 -1.296875 1.53125 -2.078125 C 1.09375 -2.867188 0.875 -3.828125 0.875 -4.953125 C 0.875 -6.097656 1.097656 -7.054688 1.546875 -7.828125 C 2.003906 -8.609375 2.601562 -9.195312 3.34375 -9.59375 C 4.09375 -10 4.882812 -10.203125 5.71875 -10.203125 C 6.582031 -10.203125 7.382812 -10 8.125 -9.59375 C 8.863281 -9.195312 9.460938 -8.609375 9.921875 -7.828125 C 10.378906 -7.054688 10.609375 -6.097656 10.609375 -4.953125 C 10.609375 -3.828125 10.378906 -2.867188 9.921875 -2.078125 C 9.472656 -1.296875 8.878906 -0.707031 8.140625 -0.3125 C 7.410156 0.0820312 6.601562 0.28125 5.71875 0.28125 Z M 5.71875 -0.328125 C 6.613281 -0.328125 7.316406 -0.71875 7.828125 -1.5 C 8.335938 -2.28125 8.59375 -3.425781 8.59375 -4.9375 C 8.59375 -6.445312 8.335938 -7.597656 7.828125 -8.390625 C 7.316406 -9.179688 6.613281 -9.578125 5.71875 -9.578125 C 4.832031 -9.578125 4.132812 -9.179688 3.625 -8.390625 C 3.125 -7.597656 2.875 -6.445312 2.875 -4.9375 C 2.875 -3.425781 3.125 -2.28125 3.625 -1.5 C 4.132812 -0.71875 4.832031 -0.328125 5.71875 -0.328125 Z M 5.71875 -0.328125 "/></g></g></g><g fill="#000000" fill-opacity="1"><g transform="translate(385.285716, 377.335196)"><g><path d="M 5.71875 0.28125 C 4.832031 0.28125 4.019531 0.0820312 3.28125 -0.3125 C 2.550781 -0.707031 1.96875 -1.296875 1.53125 -2.078125 C 1.09375 -2.867188 0.875 -3.828125 0.875 -4.953125 C 0.875 -6.097656 1.097656 -7.054688 1.546875 -7.828125 C 2.003906 -8.609375 2.601562 -9.195312 3.34375 -9.59375 C 4.09375 -10 4.882812 -10.203125 5.71875 -10.203125 C 6.582031 -10.203125 7.382812 -10 8.125 -9.59375 C 8.863281 -9.195312 9.460938 -8.609375 9.921875 -7.828125 C 10.378906 -7.054688 10.609375 -6.097656 10.609375 -4.953125 C 10.609375 -3.828125 10.378906 -2.867188 9.921875 -2.078125 C 9.472656 -1.296875 8.878906 -0.707031 8.140625 -0.3125 C 7.410156 0.0820312 6.601562 0.28125 5.71875 0.28125 Z M 5.71875 -0.328125 C 6.613281 -0.328125 7.316406 -0.71875 7.828125 -1.5 C 8.335938 -2.28125 8.59375 -3.425781 8.59375 -4.9375 C 8.59375 -6.445312 8.335938 -7.597656 7.828125 -8.390625 C 7.316406 -9.179688 6.613281 -9.578125 5.71875 -9.578125 C 4.832031 -9.578125 4.132812 -9.179688 3.625 -8.390625 C 3.125 -7.597656 2.875 -6.445312 2.875 -4.9375 C 2.875 -3.425781 3.125 -2.28125 3.625 -1.5 C 4.132812 -0.71875 4.832031 -0.328125 5.71875 -0.328125 Z M 5.71875 -0.328125 "/></g></g></g><g fill="#000000" fill-opacity="1"><g transform="translate(396.816359, 377.335196)"><g><path d="M 5.09375 0.28125 C 4.28125 0.28125 3.550781 0.0703125 2.90625 -0.34375 C 2.269531 -0.769531 1.769531 -1.367188 1.40625 -2.140625 C 1.050781 -2.921875 0.875 -3.820312 0.875 -4.84375 C 0.875 -5.945312 1.070312 -6.894531 1.46875 -7.6875 C 1.875 -8.488281 2.414062 -9.109375 3.09375 -9.546875 C 3.769531 -9.984375 4.523438 -10.203125 5.359375 -10.203125 C 5.929688 -10.203125 6.472656 -10.0625 6.984375 -9.78125 C 7.503906 -9.5 7.992188 -9.035156 8.453125 -8.390625 L 8.640625 -8.390625 L 8.375 -7.96875 C 7.945312 -8.414062 7.539062 -8.738281 7.15625 -8.9375 C 6.769531 -9.132812 6.351562 -9.234375 5.90625 -9.234375 C 5.351562 -9.234375 4.84375 -9.085938 4.375 -8.796875 C 3.914062 -8.515625 3.546875 -8.050781 3.265625 -7.40625 C 2.984375 -6.769531 2.84375 -5.9375 2.84375 -4.90625 C 2.84375 -3.925781 2.972656 -3.125 3.234375 -2.5 C 3.492188 -1.882812 3.84375 -1.429688 4.28125 -1.140625 C 4.726562 -0.847656 5.234375 -0.703125 5.796875 -0.703125 C 6.273438 -0.703125 6.71875 -0.804688 7.125 -1.015625 C 7.53125 -1.222656 7.9375 -1.566406 8.34375 -2.046875 L 8.609375 -1.5625 L 8.4375 -1.5625 C 8.007812 -0.945312 7.507812 -0.484375 6.9375 -0.171875 C 6.375 0.128906 5.757812 0.28125 5.09375 0.28125 Z M 8.203125 0.1875 L 8.09375 -1.65625 L 8.09375 -8.328125 L 8.15625 -8.515625 L 8.15625 -14.15625 L 6.453125 -14.25 L 6.453125 -14.765625 L 9.703125 -15.375 L 10 -15.203125 L 9.9375 -12.296875 L 9.9375 -0.640625 L 11.609375 -0.53125 L 11.609375 0 Z M 8.203125 0.1875 "/></g></g></g><g fill="#000000" fill-opacity="1"><g transform="translate(408.916883, 377.335196)"><g><path d="M 0.765625 0 L 0.765625 -0.53125 L 2.8125 -0.734375 L 3.59375 -0.734375 L 5.59375 -0.53125 L 5.59375 0 Z M 2.265625 0 C 2.273438 -0.3125 2.28125 -0.726562 2.28125 -1.25 C 2.289062 -1.769531 2.296875 -2.316406 2.296875 -2.890625 C 2.304688 -3.460938 2.3125 -3.957031 2.3125 -4.375 L 2.3125 -5.609375 C 2.3125 -6.253906 2.304688 -6.816406 2.296875 -7.296875 C 2.296875 -7.785156 2.285156 -8.257812 2.265625 -8.71875 L 0.640625 -8.828125 L 0.640625 -9.3125 L 3.796875 -10.140625 L 4.046875 -10 L 4.15625 -7.796875 L 4.15625 -4.375 C 4.15625 -3.957031 4.160156 -3.460938 4.171875 -2.890625 C 4.179688 -2.316406 4.1875 -1.769531 4.1875 -1.25 C 4.195312 -0.726562 4.207031 -0.3125 4.21875 0 Z M 7.265625 0 L 7.265625 -0.53125 L 9.265625 -0.734375 L 10.0625 -0.734375 L 12.0625 -0.53125 L 12.0625 0 Z M 8.734375 0 C 8.753906 -0.3125 8.765625 -0.722656 8.765625 -1.234375 C 8.773438 -1.753906 8.78125 -2.296875 8.78125 -2.859375 C 8.789062 -3.429688 8.796875 -3.9375 8.796875 -4.375 L 8.796875 -6.6875 C 8.796875 -7.570312 8.648438 -8.191406 8.359375 -8.546875 C 8.066406 -8.910156 7.65625 -9.09375 7.125 -9.09375 C 6.707031 -9.09375 6.207031 -8.953125 5.625 -8.671875 C 5.039062 -8.390625 4.421875 -7.878906 3.765625 -7.140625 L 3.625 -7.828125 L 3.84375 -7.828125 C 4.539062 -8.691406 5.222656 -9.300781 5.890625 -9.65625 C 6.554688 -10.019531 7.226562 -10.203125 7.90625 -10.203125 C 8.75 -10.203125 9.410156 -9.921875 9.890625 -9.359375 C 10.378906 -8.796875 10.625 -7.878906 10.625 -6.609375 L 10.625 -4.375 C 10.625 -3.9375 10.625 -3.429688 10.625 -2.859375 C 10.632812 -2.296875 10.644531 -1.753906 10.65625 -1.234375 C 10.664062 -0.722656 10.679688 -0.3125 10.703125 0 Z M 8.734375 0 "/></g></g></g><g fill="#000000" fill-opacity="1"><g transform="translate(421.606286, 377.335196)"><g><path d="M 5.828125 0.28125 C 4.867188 0.28125 4.015625 0.0859375 3.265625 -0.296875 C 2.515625 -0.691406 1.925781 -1.28125 1.5 -2.0625 C 1.082031 -2.84375 0.875 -3.800781 0.875 -4.9375 C 0.875 -6.03125 1.09375 -6.96875 1.53125 -7.75 C 1.976562 -8.539062 2.566406 -9.144531 3.296875 -9.5625 C 4.035156 -9.988281 4.832031 -10.203125 5.6875 -10.203125 C 6.539062 -10.203125 7.269531 -10.023438 7.875 -9.671875 C 8.476562 -9.316406 8.929688 -8.835938 9.234375 -8.234375 C 9.546875 -7.628906 9.703125 -6.941406 9.703125 -6.171875 C 9.703125 -5.710938 9.664062 -5.332031 9.59375 -5.03125 L 1.703125 -5.03125 L 1.703125 -5.640625 L 7.03125 -5.640625 C 7.382812 -5.640625 7.625 -5.734375 7.75 -5.921875 C 7.875 -6.117188 7.9375 -6.425781 7.9375 -6.84375 C 7.9375 -7.664062 7.734375 -8.328125 7.328125 -8.828125 C 6.921875 -9.328125 6.351562 -9.578125 5.625 -9.578125 C 5.101562 -9.578125 4.628906 -9.40625 4.203125 -9.0625 C 3.785156 -8.726562 3.445312 -8.234375 3.1875 -7.578125 C 2.9375 -6.929688 2.8125 -6.132812 2.8125 -5.1875 C 2.8125 -4.15625 2.96875 -3.304688 3.28125 -2.640625 C 3.59375 -1.984375 4.015625 -1.5 4.546875 -1.1875 C 5.078125 -0.882812 5.691406 -0.734375 6.390625 -0.734375 C 7.054688 -0.734375 7.632812 -0.851562 8.125 -1.09375 C 8.613281 -1.34375 9.039062 -1.6875 9.40625 -2.125 L 9.734375 -1.875 C 9.328125 -1.195312 8.796875 -0.664062 8.140625 -0.28125 C 7.484375 0.09375 6.710938 0.28125 5.828125 0.28125 Z M 5.828125 0.28125 "/></g></g></g><g fill="#000000" fill-opacity="1"><g transform="translate(432.130135, 377.335196)"><g><path d="M 4.28125 0.28125 C 3.632812 0.28125 3.050781 0.210938 2.53125 0.078125 C 2.019531 -0.046875 1.503906 -0.242188 0.984375 -0.515625 L 1 -2.828125 L 1.90625 -2.828125 L 2.390625 -0.359375 L 1.640625 -0.421875 L 1.640625 -1.109375 C 2.015625 -0.859375 2.394531 -0.664062 2.78125 -0.53125 C 3.164062 -0.40625 3.632812 -0.34375 4.1875 -0.34375 C 5.007812 -0.34375 5.628906 -0.503906 6.046875 -0.828125 C 6.460938 -1.148438 6.671875 -1.582031 6.671875 -2.125 C 6.671875 -2.582031 6.53125 -2.957031 6.25 -3.25 C 5.96875 -3.539062 5.4375 -3.804688 4.65625 -4.046875 L 3.640625 -4.40625 C 2.867188 -4.675781 2.253906 -5.035156 1.796875 -5.484375 C 1.335938 -5.929688 1.109375 -6.523438 1.109375 -7.265625 C 1.109375 -8.097656 1.425781 -8.796875 2.0625 -9.359375 C 2.695312 -9.921875 3.613281 -10.203125 4.8125 -10.203125 C 5.40625 -10.203125 5.925781 -10.128906 6.375 -9.984375 C 6.832031 -9.847656 7.3125 -9.632812 7.8125 -9.34375 L 7.734375 -7.265625 L 6.921875 -7.265625 L 6.390625 -9.5625 L 7.03125 -9.40625 L 7.03125 -8.796875 C 6.644531 -9.078125 6.28125 -9.273438 5.9375 -9.390625 C 5.601562 -9.503906 5.234375 -9.5625 4.828125 -9.5625 C 4.128906 -9.5625 3.59375 -9.40625 3.21875 -9.09375 C 2.851562 -8.78125 2.671875 -8.378906 2.671875 -7.890625 C 2.671875 -7.453125 2.820312 -7.09375 3.125 -6.8125 C 3.425781 -6.53125 3.921875 -6.265625 4.609375 -6.015625 L 5.609375 -5.6875 C 6.578125 -5.351562 7.265625 -4.953125 7.671875 -4.484375 C 8.085938 -4.015625 8.296875 -3.4375 8.296875 -2.75 C 8.296875 -2.164062 8.140625 -1.644531 7.828125 -1.1875 C 7.523438 -0.726562 7.078125 -0.367188 6.484375 -0.109375 C 5.890625 0.148438 5.15625 0.28125 4.28125 0.28125 Z M 4.28125 0.28125 "/></g></g></g><g fill="#000000" fill-opacity="1"><g transform="translate(441.267269, 377.335196)"><g><path d="M 4.28125 0.28125 C 3.632812 0.28125 3.050781 0.210938 2.53125 0.078125 C 2.019531 -0.046875 1.503906 -0.242188 0.984375 -0.515625 L 1 -2.828125 L 1.90625 -2.828125 L 2.390625 -0.359375 L 1.640625 -0.421875 L 1.640625 -1.109375 C 2.015625 -0.859375 2.394531 -0.664062 2.78125 -0.53125 C 3.164062 -0.40625 3.632812 -0.34375 4.1875 -0.34375 C 5.007812 -0.34375 5.628906 -0.503906 6.046875 -0.828125 C 6.460938 -1.148438 6.671875 -1.582031 6.671875 -2.125 C 6.671875 -2.582031 6.53125 -2.957031 6.25 -3.25 C 5.96875 -3.539062 5.4375 -3.804688 4.65625 -4.046875 L 3.640625 -4.40625 C 2.867188 -4.675781 2.253906 -5.035156 1.796875 -5.484375 C 1.335938 -5.929688 1.109375 -6.523438 1.109375 -7.265625 C 1.109375 -8.097656 1.425781 -8.796875 2.0625 -9.359375 C 2.695312 -9.921875 3.613281 -10.203125 4.8125 -10.203125 C 5.40625 -10.203125 5.925781 -10.128906 6.375 -9.984375 C 6.832031 -9.847656 7.3125 -9.632812 7.8125 -9.34375 L 7.734375 -7.265625 L 6.921875 -7.265625 L 6.390625 -9.5625 L 7.03125 -9.40625 L 7.03125 -8.796875 C 6.644531 -9.078125 6.28125 -9.273438 5.9375 -9.390625 C 5.601562 -9.503906 5.234375 -9.5625 4.828125 -9.5625 C 4.128906 -9.5625 3.59375 -9.40625 3.21875 -9.09375 C 2.851562 -8.78125 2.671875 -8.378906 2.671875 -7.890625 C 2.671875 -7.453125 2.820312 -7.09375 3.125 -6.8125 C 3.425781 -6.53125 3.921875 -6.265625 4.609375 -6.015625 L 5.609375 -5.6875 C 6.578125 -5.351562 7.265625 -4.953125 7.671875 -4.484375 C 8.085938 -4.015625 8.296875 -3.4375 8.296875 -2.75 C 8.296875 -2.164062 8.140625 -1.644531 7.828125 -1.1875 C 7.523438 -0.726562 7.078125 -0.367188 6.484375 -0.109375 C 5.890625 0.148438 5.15625 0.28125 4.28125 0.28125 Z M 4.28125 0.28125 "/></g></g></g><g fill="#000000" fill-opacity="1"><g transform="translate(572.855063, 377.335196)"><g><path d="M 0.96875 0 L 0.96875 -0.59375 L 3.671875 -0.84375 L 3.890625 -0.84375 L 3.890625 0 Z M 2.84375 0 C 2.875 -1.070312 2.890625 -2.15625 2.890625 -3.25 C 2.898438 -4.34375 2.90625 -5.445312 2.90625 -6.5625 L 2.90625 -7.484375 C 2.90625 -8.554688 2.898438 -9.628906 2.890625 -10.703125 C 2.890625 -11.773438 2.875 -12.84375 2.84375 -13.90625 L 4.921875 -13.90625 C 4.878906 -12.851562 4.851562 -11.785156 4.84375 -10.703125 C 4.84375 -9.628906 4.84375 -8.53125 4.84375 -7.40625 L 4.84375 -7.03125 C 4.84375 -5.695312 4.84375 -4.460938 4.84375 -3.328125 C 4.851562 -2.203125 4.878906 -1.09375 4.921875 0 Z M 3.890625 0 L 3.890625 -0.640625 L 6.4375 -0.640625 C 7.601562 -0.640625 8.507812 -0.910156 9.15625 -1.453125 C 9.8125 -1.992188 10.140625 -2.769531 10.140625 -3.78125 C 10.140625 -4.820312 9.816406 -5.609375 9.171875 -6.140625 C 8.523438 -6.671875 7.515625 -6.9375 6.140625 -6.9375 L 3.890625 -6.9375 L 3.890625 -7.546875 L 5.953125 -7.546875 C 7.128906 -7.546875 8.015625 -7.8125 8.609375 -8.34375 C 9.203125 -8.875 9.5 -9.617188 9.5 -10.578125 C 9.5 -11.421875 9.25 -12.078125 8.75 -12.546875 C 8.25 -13.015625 7.410156 -13.25 6.234375 -13.25 L 3.890625 -13.25 L 3.890625 -13.90625 L 6.78125 -13.90625 C 7.851562 -13.90625 8.726562 -13.765625 9.40625 -13.484375 C 10.09375 -13.210938 10.597656 -12.828125 10.921875 -12.328125 C 11.242188 -11.835938 11.40625 -11.269531 11.40625 -10.625 C 11.40625 -10.070312 11.257812 -9.554688 10.96875 -9.078125 C 10.6875 -8.609375 10.222656 -8.207031 9.578125 -7.875 C 8.929688 -7.550781 8.078125 -7.332031 7.015625 -7.21875 L 7.09375 -7.40625 C 8.289062 -7.34375 9.257812 -7.148438 10 -6.828125 C 10.738281 -6.515625 11.28125 -6.09375 11.625 -5.5625 C 11.96875 -5.039062 12.140625 -4.453125 12.140625 -3.796875 C 12.140625 -3.304688 12.039062 -2.832031 11.84375 -2.375 C 11.644531 -1.925781 11.332031 -1.519531 10.90625 -1.15625 C 10.476562 -0.800781 9.90625 -0.519531 9.1875 -0.3125 C 8.476562 -0.101562 7.609375 0 6.578125 0 Z M 0.96875 -13.3125 L 0.96875 -13.90625 L 3.890625 -13.90625 L 3.890625 -13.09375 L 3.671875 -13.09375 Z M 0.96875 -13.3125 "/></g></g></g><g fill="#000000" fill-opacity="1"><g transform="translate(585.848409, 377.335196)"><g><path d="M 5.828125 0.28125 C 4.867188 0.28125 4.015625 0.0859375 3.265625 -0.296875 C 2.515625 -0.691406 1.925781 -1.28125 1.5 -2.0625 C 1.082031 -2.84375 0.875 -3.800781 0.875 -4.9375 C 0.875 -6.03125 1.09375 -6.96875 1.53125 -7.75 C 1.976562 -8.539062 2.566406 -9.144531 3.296875 -9.5625 C 4.035156 -9.988281 4.832031 -10.203125 5.6875 -10.203125 C 6.539062 -10.203125 7.269531 -10.023438 7.875 -9.671875 C 8.476562 -9.316406 8.929688 -8.835938 9.234375 -8.234375 C 9.546875 -7.628906 9.703125 -6.941406 9.703125 -6.171875 C 9.703125 -5.710938 9.664062 -5.332031 9.59375 -5.03125 L 1.703125 -5.03125 L 1.703125 -5.640625 L 7.03125 -5.640625 C 7.382812 -5.640625 7.625 -5.734375 7.75 -5.921875 C 7.875 -6.117188 7.9375 -6.425781 7.9375 -6.84375 C 7.9375 -7.664062 7.734375 -8.328125 7.328125 -8.828125 C 6.921875 -9.328125 6.351562 -9.578125 5.625 -9.578125 C 5.101562 -9.578125 4.628906 -9.40625 4.203125 -9.0625 C 3.785156 -8.726562 3.445312 -8.234375 3.1875 -7.578125 C 2.9375 -6.929688 2.8125 -6.132812 2.8125 -5.1875 C 2.8125 -4.15625 2.96875 -3.304688 3.28125 -2.640625 C 3.59375 -1.984375 4.015625 -1.5 4.546875 -1.1875 C 5.078125 -0.882812 5.691406 -0.734375 6.390625 -0.734375 C 7.054688 -0.734375 7.632812 -0.851562 8.125 -1.09375 C 8.613281 -1.34375 9.039062 -1.6875 9.40625 -2.125 L 9.734375 -1.875 C 9.328125 -1.195312 8.796875 -0.664062 8.140625 -0.28125 C 7.484375 0.09375 6.710938 0.28125 5.828125 0.28125 Z M 5.828125 0.28125 "/></g></g></g><g fill="#000000" fill-opacity="1"><g transform="translate(596.334264, 377.335196)"><g><path d="M 3.59375 0.28125 C 2.832031 0.28125 2.195312 0.0664062 1.6875 -0.359375 C 1.1875 -0.785156 0.9375 -1.398438 0.9375 -2.203125 C 0.9375 -2.710938 1.046875 -3.160156 1.265625 -3.546875 C 1.484375 -3.941406 1.851562 -4.296875 2.375 -4.609375 C 2.894531 -4.921875 3.59375 -5.203125 4.46875 -5.453125 C 4.988281 -5.609375 5.546875 -5.757812 6.140625 -5.90625 C 6.734375 -6.0625 7.285156 -6.203125 7.796875 -6.328125 L 7.796875 -5.859375 C 7.285156 -5.722656 6.769531 -5.582031 6.25 -5.4375 C 5.738281 -5.289062 5.285156 -5.144531 4.890625 -5 C 4.109375 -4.707031 3.550781 -4.351562 3.21875 -3.9375 C 2.882812 -3.53125 2.71875 -3.039062 2.71875 -2.46875 C 2.71875 -1.882812 2.867188 -1.445312 3.171875 -1.15625 C 3.484375 -0.863281 3.894531 -0.71875 4.40625 -0.71875 C 4.675781 -0.71875 4.941406 -0.769531 5.203125 -0.875 C 5.472656 -0.976562 5.773438 -1.164062 6.109375 -1.4375 C 6.453125 -1.707031 6.859375 -2.082031 7.328125 -2.5625 L 7.53125 -1.640625 L 7.015625 -1.640625 C 6.628906 -1.210938 6.265625 -0.859375 5.921875 -0.578125 C 5.585938 -0.296875 5.234375 -0.0820312 4.859375 0.0625 C 4.492188 0.207031 4.070312 0.28125 3.59375 0.28125 Z M 8.71875 0.265625 C 8.132812 0.265625 7.691406 0.078125 7.390625 -0.296875 C 7.097656 -0.679688 6.925781 -1.203125 6.875 -1.859375 L 6.875 -6.9375 C 6.875 -7.644531 6.796875 -8.1875 6.640625 -8.5625 C 6.492188 -8.945312 6.265625 -9.210938 5.953125 -9.359375 C 5.640625 -9.515625 5.238281 -9.59375 4.75 -9.59375 C 4.394531 -9.59375 4.035156 -9.546875 3.671875 -9.453125 C 3.316406 -9.359375 2.921875 -9.195312 2.484375 -8.96875 L 3.421875 -9.484375 L 3.140625 -7.984375 C 3.097656 -7.585938 2.984375 -7.304688 2.796875 -7.140625 C 2.617188 -6.972656 2.398438 -6.890625 2.140625 -6.890625 C 1.640625 -6.890625 1.332031 -7.140625 1.21875 -7.640625 C 1.382812 -8.429688 1.816406 -9.054688 2.515625 -9.515625 C 3.222656 -9.972656 4.148438 -10.203125 5.296875 -10.203125 C 6.453125 -10.203125 7.300781 -9.925781 7.84375 -9.375 C 8.382812 -8.832031 8.65625 -7.957031 8.65625 -6.75 L 8.65625 -1.96875 C 8.65625 -1.425781 8.722656 -1.050781 8.859375 -0.84375 C 8.992188 -0.644531 9.179688 -0.546875 9.421875 -0.546875 C 9.578125 -0.546875 9.71875 -0.582031 9.84375 -0.65625 C 9.96875 -0.738281 10.113281 -0.875 10.28125 -1.0625 L 10.578125 -0.796875 C 10.378906 -0.429688 10.125 -0.164062 9.8125 0 C 9.5 0.175781 9.132812 0.265625 8.71875 0.265625 Z M 8.71875 0.265625 "/></g></g></g><g fill="#000000" fill-opacity="1"><g transform="translate(606.991082, 377.335196)"><g><path d="M 4.921875 0.28125 C 4.023438 0.28125 3.320312 0 2.8125 -0.5625 C 2.300781 -1.125 2.054688 -2.113281 2.078125 -3.53125 L 2.125 -9.265625 L 2.578125 -8.90625 L 0.609375 -9.21875 L 0.609375 -9.703125 L 3.8125 -10.046875 L 4.03125 -9.84375 L 3.9375 -7.28125 L 3.9375 -3.484375 C 3.9375 -2.515625 4.09375 -1.835938 4.40625 -1.453125 C 4.726562 -1.078125 5.1875 -0.890625 5.78125 -0.890625 C 6.34375 -0.890625 6.890625 -1.054688 7.421875 -1.390625 C 7.960938 -1.734375 8.441406 -2.1875 8.859375 -2.75 L 9.34375 -1.953125 L 8.734375 -1.953125 C 8.253906 -1.296875 7.695312 -0.757812 7.0625 -0.34375 C 6.4375 0.0703125 5.722656 0.28125 4.921875 0.28125 Z M 8.625 0.1875 L 8.546875 -2.140625 L 8.546875 -2.171875 L 8.59375 -9 L 7.09375 -9.203125 L 7.09375 -9.671875 L 10.28125 -10.046875 L 10.46875 -9.84375 L 10.390625 -7.28125 L 10.390625 -0.671875 L 11.78125 -0.53125 L 11.78125 0 Z M 8.625 0.1875 "/></g></g></g><g fill="#000000" fill-opacity="1"><g transform="translate(619.528519, 377.335196)"><g><path d="M 3.015625 -9.203125 L 3.015625 -9.921875 L 6.59375 -9.921875 L 6.59375 -9.203125 Z M 4.515625 0.28125 C 3.691406 0.28125 3.078125 0.0703125 2.671875 -0.34375 C 2.273438 -0.769531 2.078125 -1.425781 2.078125 -2.3125 C 2.078125 -2.632812 2.078125 -2.921875 2.078125 -3.171875 C 2.085938 -3.421875 2.09375 -3.722656 2.09375 -4.078125 L 2.09375 -9.203125 L 0.265625 -9.203125 L 0.265625 -9.78125 L 2.484375 -9.953125 L 2.125 -9.6875 L 2.796875 -12.90625 L 4.015625 -12.90625 L 3.953125 -9.609375 L 3.953125 -2.265625 C 3.953125 -1.691406 4.0625 -1.273438 4.28125 -1.015625 C 4.5 -0.753906 4.8125 -0.625 5.21875 -0.625 C 5.5 -0.625 5.742188 -0.664062 5.953125 -0.75 C 6.160156 -0.84375 6.394531 -0.972656 6.65625 -1.140625 L 6.9375 -0.796875 C 6.664062 -0.441406 6.332031 -0.175781 5.9375 0 C 5.550781 0.1875 5.078125 0.28125 4.515625 0.28125 Z M 4.515625 0.28125 "/></g></g></g><g fill="#000000" fill-opacity="1"><g transform="translate(626.671062, 377.335196)"><g><path d="M 1.640625 5.15625 C 1.191406 5.15625 0.785156 5.054688 0.421875 4.859375 C 0.0664062 4.660156 -0.128906 4.382812 -0.171875 4.03125 C -0.117188 3.738281 0.0195312 3.519531 0.25 3.375 C 0.488281 3.238281 0.753906 3.171875 1.046875 3.171875 C 1.328125 3.171875 1.582031 3.238281 1.8125 3.375 C 2.050781 3.519531 2.273438 3.710938 2.484375 3.953125 L 3.046875 4.515625 L 2.40625 4.859375 L 2.046875 4.546875 C 2.671875 4.335938 3.21875 3.9375 3.6875 3.34375 C 4.15625 2.75 4.570312 1.976562 4.9375 1.03125 L 5.484375 -0.34375 L 5.609375 -0.640625 L 7.28125 -5.296875 L 8.859375 -9.921875 L 9.609375 -9.921875 L 5.59375 0.859375 C 5.207031 1.878906 4.804688 2.707031 4.390625 3.34375 C 3.972656 3.976562 3.535156 4.4375 3.078125 4.71875 C 2.628906 5.007812 2.148438 5.15625 1.640625 5.15625 Z M 5.25 1.078125 L 0.78125 -9.921875 L 2.8125 -9.921875 L 5.96875 -1.328125 L 6.078125 -1.109375 Z M -0.15625 -9.390625 L -0.15625 -9.921875 L 4.765625 -9.921875 L 4.765625 -9.390625 L 2.78125 -9.171875 L 1.75 -9.171875 Z M 6.78125 -9.390625 L 6.78125 -9.921875 L 10.640625 -9.921875 L 10.640625 -9.390625 L 9.078125 -9.203125 L 8.796875 -9.203125 Z M 6.78125 -9.390625 "/></g></g></g><g fill="#000000" fill-opacity="1"><g transform="translate(171.549208, 377.335196)"><g><path d="M 3.234375 0 L 3.234375 -0.59375 L 6.078125 -0.84375 L 6.625 -0.84375 L 9.515625 -0.59375 L 9.515625 0 Z M 5.34375 0 C 5.363281 -1.0625 5.375 -2.128906 5.375 -3.203125 C 5.382812 -4.285156 5.390625 -5.363281 5.390625 -6.4375 L 5.390625 -7.453125 C 5.390625 -8.535156 5.382812 -9.613281 5.375 -10.6875 C 5.375 -11.757812 5.363281 -12.832031 5.34375 -13.90625 L 7.390625 -13.90625 C 7.378906 -12.84375 7.367188 -11.769531 7.359375 -10.6875 C 7.359375 -9.613281 7.359375 -8.535156 7.359375 -7.453125 L 7.359375 -6.453125 C 7.359375 -5.367188 7.359375 -4.289062 7.359375 -3.21875 C 7.367188 -2.144531 7.378906 -1.070312 7.390625 0 Z M 0.421875 -10.203125 L 0.5625 -13.90625 L 12.15625 -13.90625 L 12.3125 -10.203125 L 11.4375 -10.203125 L 10.65625 -13.90625 L 11.59375 -13.21875 L 1.125 -13.21875 L 2.078125 -13.90625 L 1.296875 -10.203125 Z M 0.421875 -10.203125 "/></g></g></g><g fill="#000000" fill-opacity="1"><g transform="translate(183.592695, 377.335196)"><g><path d="M 0.765625 0 L 0.765625 -0.53125 L 2.828125 -0.765625 L 3.875 -0.765625 L 6 -0.53125 L 6 0 Z M 2.265625 0 C 2.273438 -0.3125 2.28125 -0.726562 2.28125 -1.25 C 2.289062 -1.769531 2.296875 -2.316406 2.296875 -2.890625 C 2.304688 -3.460938 2.3125 -3.957031 2.3125 -4.375 L 2.3125 -5.609375 C 2.3125 -6.265625 2.304688 -6.832031 2.296875 -7.3125 C 2.296875 -7.789062 2.285156 -8.257812 2.265625 -8.71875 L 0.640625 -8.828125 L 0.640625 -9.3125 L 3.796875 -10.140625 L 4.046875 -10 L 4.15625 -7.3125 L 4.15625 -4.375 C 4.15625 -3.957031 4.160156 -3.460938 4.171875 -2.890625 C 4.179688 -2.316406 4.1875 -1.769531 4.1875 -1.25 C 4.195312 -0.726562 4.207031 -0.3125 4.21875 0 Z M 4.15625 -6.0625 L 3.6875 -7.109375 L 4.0625 -7.109375 C 4.269531 -7.742188 4.539062 -8.289062 4.875 -8.75 C 5.207031 -9.207031 5.585938 -9.5625 6.015625 -9.8125 C 6.441406 -10.070312 6.875 -10.203125 7.3125 -10.203125 C 7.695312 -10.203125 8.03125 -10.125 8.3125 -9.96875 C 8.59375 -9.8125 8.78125 -9.5625 8.875 -9.21875 C 8.875 -8.875 8.785156 -8.59375 8.609375 -8.375 C 8.441406 -8.164062 8.175781 -8.0625 7.8125 -8.0625 C 7.550781 -8.0625 7.320312 -8.128906 7.125 -8.265625 C 6.925781 -8.398438 6.710938 -8.597656 6.484375 -8.859375 L 6.046875 -9.296875 L 6.859375 -9.25 C 6.234375 -9.039062 5.703125 -8.679688 5.265625 -8.171875 C 4.828125 -7.671875 4.457031 -6.96875 4.15625 -6.0625 Z M 4.15625 -6.0625 "/></g></g></g><g fill="#000000" fill-opacity="1"><g transform="translate(192.577863, 377.335196)"><g><path d="M 4.921875 0.28125 C 4.023438 0.28125 3.320312 0 2.8125 -0.5625 C 2.300781 -1.125 2.054688 -2.113281 2.078125 -3.53125 L 2.125 -9.265625 L 2.578125 -8.90625 L 0.609375 -9.21875 L 0.609375 -9.703125 L 3.8125 -10.046875 L 4.03125 -9.84375 L 3.9375 -7.28125 L 3.9375 -3.484375 C 3.9375 -2.515625 4.09375 -1.835938 4.40625 -1.453125 C 4.726562 -1.078125 5.1875 -0.890625 5.78125 -0.890625 C 6.34375 -0.890625 6.890625 -1.054688 7.421875 -1.390625 C 7.960938 -1.734375 8.441406 -2.1875 8.859375 -2.75 L 9.34375 -1.953125 L 8.734375 -1.953125 C 8.253906 -1.296875 7.695312 -0.757812 7.0625 -0.34375 C 6.4375 0.0703125 5.722656 0.28125 4.921875 0.28125 Z M 8.625 0.1875 L 8.546875 -2.140625 L 8.546875 -2.171875 L 8.59375 -9 L 7.09375 -9.203125 L 7.09375 -9.671875 L 10.28125 -10.046875 L 10.46875 -9.84375 L 10.390625 -7.28125 L 10.390625 -0.671875 L 11.78125 -0.53125 L 11.78125 0 Z M 8.625 0.1875 "/></g></g></g><g fill="#000000" fill-opacity="1"><g transform="translate(205.1153, 377.335196)"><g><path d="M 3.015625 -9.203125 L 3.015625 -9.921875 L 6.59375 -9.921875 L 6.59375 -9.203125 Z M 4.515625 0.28125 C 3.691406 0.28125 3.078125 0.0703125 2.671875 -0.34375 C 2.273438 -0.769531 2.078125 -1.425781 2.078125 -2.3125 C 2.078125 -2.632812 2.078125 -2.921875 2.078125 -3.171875 C 2.085938 -3.421875 2.09375 -3.722656 2.09375 -4.078125 L 2.09375 -9.203125 L 0.265625 -9.203125 L 0.265625 -9.78125 L 2.484375 -9.953125 L 2.125 -9.6875 L 2.796875 -12.90625 L 4.015625 -12.90625 L 3.953125 -9.609375 L 3.953125 -2.265625 C 3.953125 -1.691406 4.0625 -1.273438 4.28125 -1.015625 C 4.5 -0.753906 4.8125 -0.625 5.21875 -0.625 C 5.5 -0.625 5.742188 -0.664062 5.953125 -0.75 C 6.160156 -0.84375 6.394531 -0.972656 6.65625 -1.140625 L 6.9375 -0.796875 C 6.664062 -0.441406 6.332031 -0.175781 5.9375 0 C 5.550781 0.1875 5.078125 0.28125 4.515625 0.28125 Z M 4.515625 0.28125 "/></g></g></g><g fill="#000000" fill-opacity="1"><g transform="translate(212.238846, 377.335196)"><g><path d="M 0.78125 0 L 0.78125 -0.53125 L 2.828125 -0.734375 L 3.625 -0.734375 L 5.59375 -0.53125 L 5.59375 0 Z M 2.28125 0 C 2.289062 -0.3125 2.296875 -0.726562 2.296875 -1.25 C 2.304688 -1.769531 2.316406 -2.316406 2.328125 -2.890625 C 2.335938 -3.460938 2.34375 -3.957031 2.34375 -4.375 L 2.34375 -14.15625 L 0.71875 -14.25 L 0.71875 -14.765625 L 3.9375 -15.375 L 4.21875 -15.203125 L 4.15625 -12.234375 L 4.15625 -8 L 4.203125 -7.75 L 4.203125 -4.375 C 4.203125 -3.957031 4.203125 -3.460938 4.203125 -2.890625 C 4.210938 -2.316406 4.21875 -1.769531 4.21875 -1.25 C 4.226562 -0.726562 4.238281 -0.3125 4.25 0 Z M 7.296875 0 L 7.296875 -0.53125 L 9.3125 -0.734375 L 10.09375 -0.734375 L 12.125 -0.53125 L 12.125 0 Z M 8.765625 0 C 8.785156 -0.3125 8.796875 -0.722656 8.796875 -1.234375 C 8.804688 -1.753906 8.8125 -2.296875 8.8125 -2.859375 C 8.820312 -3.429688 8.828125 -3.9375 8.828125 -4.375 L 8.828125 -6.6875 C 8.828125 -7.570312 8.675781 -8.191406 8.375 -8.546875 C 8.070312 -8.910156 7.660156 -9.09375 7.140625 -9.09375 C 6.703125 -9.09375 6.195312 -8.953125 5.625 -8.671875 C 5.050781 -8.398438 4.4375 -7.890625 3.78125 -7.140625 L 3.375 -7.84375 L 3.890625 -7.84375 C 4.554688 -8.664062 5.21875 -9.265625 5.875 -9.640625 C 6.53125 -10.015625 7.210938 -10.203125 7.921875 -10.203125 C 8.785156 -10.203125 9.457031 -9.921875 9.9375 -9.359375 C 10.425781 -8.804688 10.671875 -7.878906 10.671875 -6.578125 L 10.671875 -4.375 C 10.671875 -3.9375 10.675781 -3.429688 10.6875 -2.859375 C 10.695312 -2.296875 10.707031 -1.753906 10.71875 -1.234375 C 10.726562 -0.722656 10.738281 -0.3125 10.75 0 Z M 8.765625 0 "/></g></g></g></svg>