<svg xmlns="http://www.w3.org/2000/svg" xmlns:xlink="http://www.w3.org/1999/xlink" width="1080" zoomAndPan="magnify" viewBox="0 0 810 809.999993" height="1080" preserveAspectRatio="xMidYMid meet" version="1.0"><defs><filter x="0%" y="0%" width="100%" height="100%" id="bdeea880f3"><feColorMatrix values="0 0 0 0 1 0 0 0 0 1 0 0 0 0 1 0 0 0 1 0" color-interpolation-filters="sRGB"/></filter><g/><clipPath id="b941f7aad2"><path d="M 89.863281 89.863281 L 720.136719 89.863281 L 720.136719 720.136719 L 89.863281 720.136719 Z M 89.863281 89.863281 " clip-rule="nonzero"/></clipPath><clipPath id="ea66ed1498"><path d="M 405 89.863281 C 230.953125 89.863281 89.863281 230.953125 89.863281 405 C 89.863281 579.046875 230.953125 720.136719 405 720.136719 C 579.046875 720.136719 720.136719 579.046875 720.136719 405 C 720.136719 230.953125 579.046875 89.863281 405 89.863281 Z M 405 89.863281 " clip-rule="nonzero"/></clipPath><clipPath id="e422b7debd"><path d="M 89.863281 89.863281 L 719.863281 89.863281 L 719.863281 719.863281 L 89.863281 719.863281 Z M 89.863281 89.863281 " clip-rule="nonzero"/></clipPath><clipPath id="e23b45a5fe"><path d="M 404.996094 89.863281 C 230.953125 89.863281 89.863281 230.953125 89.863281 404.996094 C 89.863281 579.039062 230.953125 720.132812 404.996094 720.132812 C 579.039062 720.132812 720.132812 579.039062 720.132812 404.996094 C 720.132812 230.953125 579.039062 89.863281 404.996094 89.863281 Z M 404.996094 89.863281 " clip-rule="nonzero"/></clipPath><clipPath id="2299ccb2fe"><path d="M 116.566406 267.722656 L 546.316406 267.722656 L 546.316406 542.222656 L 116.566406 542.222656 Z M 116.566406 267.722656 " clip-rule="nonzero"/></clipPath><clipPath id="d4e2608148"><path d="M 331.574219 267.722656 C 212.828125 267.722656 116.566406 329.179688 116.566406 404.996094 C 116.566406 480.808594 212.828125 542.269531 331.574219 542.269531 C 450.320312 542.269531 546.582031 480.808594 546.582031 404.996094 C 546.582031 329.179688 450.320312 267.722656 331.574219 267.722656 Z M 331.574219 267.722656 " clip-rule="nonzero"/></clipPath><clipPath id="3b60334d64"><path d="M 263.40625 267.722656 L 693.15625 267.722656 L 693.15625 542.222656 L 263.40625 542.222656 Z M 263.40625 267.722656 " clip-rule="nonzero"/></clipPath><clipPath id="b909a1ba1b"><path d="M 478.414062 267.722656 C 359.667969 267.722656 263.40625 329.179688 263.40625 404.996094 C 263.40625 480.808594 359.667969 542.269531 478.414062 542.269531 C 597.160156 542.269531 693.421875 480.808594 693.421875 404.996094 C 693.421875 329.179688 597.160156 267.722656 478.414062 267.722656 Z M 478.414062 267.722656 " clip-rule="nonzero"/></clipPath><mask id="3db39a067a"><g filter="url(#bdeea880f3)"><rect x="-81" width="972" fill="#000000" y="-80.999999" height="971.999992" fill-opacity="0.15"/></g></mask><clipPath id="ef80e4974f"><path d="M 0.40625 0.722656 L 283.621094 0.722656 L 283.621094 256.917969 L 0.40625 256.917969 Z M 0.40625 0.722656 " clip-rule="nonzero"/></clipPath><clipPath id="8a512faf6d"><path d="M 142 0.722656 C 63.800781 0.722656 0.40625 58.074219 0.40625 128.820312 C 0.40625 199.566406 63.800781 256.917969 142 256.917969 C 220.199219 256.917969 283.59375 199.566406 283.59375 128.820312 C 283.59375 58.074219 220.199219 0.722656 142 0.722656 Z M 142 0.722656 " clip-rule="nonzero"/></clipPath><clipPath id="7acd3d497b"><rect x="0" width="284" y="0" height="257"/></clipPath><clipPath id="8d238d35f5"><path d="M 94.945312 365.625 L 173.695312 365.625 L 173.695312 444.375 L 94.945312 444.375 Z M 94.945312 365.625 " clip-rule="nonzero"/></clipPath><clipPath id="d74eddcacc"><path d="M 94.945312 405 L 134.320312 365.625 L 134.320312 385.3125 L 173.695312 385.3125 L 173.695312 424.6875 L 134.320312 424.6875 L 134.320312 444.375 Z M 94.945312 405 " clip-rule="nonzero"/></clipPath><clipPath id="5c80820a7d"><path d="M 636.304688 365.625 L 715.054688 365.625 L 715.054688 444.375 L 636.304688 444.375 Z M 636.304688 365.625 " clip-rule="nonzero"/></clipPath><clipPath id="f21fc3816a"><path d="M 715.054688 405 L 675.679688 365.625 L 675.679688 385.3125 L 636.304688 385.3125 L 636.304688 424.6875 L 675.679688 424.6875 L 675.679688 444.375 Z M 715.054688 405 " clip-rule="nonzero"/></clipPath><clipPath id="e56a105058"><path d="M 405 388.320312 L 557.269531 388.320312 L 557.269531 467.070312 L 405 467.070312 Z M 405 388.320312 " clip-rule="nonzero"/></clipPath><clipPath id="0835f6284e"><path d="M 557.183594 427.695312 L 517.808594 388.320312 L 517.808594 408.007812 L 405 408.007812 L 405 447.382812 L 517.808594 447.382812 L 517.808594 467.070312 Z M 557.183594 427.695312 " clip-rule="nonzero"/></clipPath><clipPath id="257e42c79b"><path d="M 252.828125 388.320312 L 478.621094 388.320312 L 478.621094 467.070312 L 252.828125 467.070312 Z M 252.828125 388.320312 " clip-rule="nonzero"/></clipPath><clipPath id="0287e49259"><path d="M 252.828125 427.695312 L 292.203125 388.320312 L 292.203125 408.007812 L 478.421875 408.007812 L 478.421875 447.382812 L 292.203125 447.382812 L 292.203125 467.070312 Z M 252.828125 427.695312 " clip-rule="nonzero"/></clipPath></defs><rect x="-81" width="972" fill="#ffffff" y="-80.999999" height="971.999992" fill-opacity="1"/><rect x="-81" width="972" fill="#ffffff" y="-80.999999" height="971.999992" fill-opacity="1"/><g clip-path="url(#b941f7aad2)"><g clip-path="url(#ea66ed1498)"><path fill="#ffffff" d="M 89.863281 89.863281 L 720.136719 89.863281 L 720.136719 720.136719 L 89.863281 720.136719 Z M 89.863281 89.863281 " fill-opacity="1" fill-rule="nonzero"/></g></g><g clip-path="url(#e422b7debd)"><g clip-path="url(#e23b45a5fe)"><path stroke-linecap="butt" transform="matrix(0.75, 0, 0, 0.75, 89.861644, 89.861675)" fill="none" stroke-linejoin="miter" d="M 420.179315 0.00214209 C 188.121996 0.00214209 0.00218329 188.121955 0.00218329 420.179273 C 0.00218329 652.236592 188.121996 840.361613 420.179315 840.361613 C 652.236633 840.361613 840.361654 652.236592 840.361654 420.179273 C 840.361654 188.121955 652.236633 0.00214209 420.179315 0.00214209 Z M 420.179315 0.00214209 " stroke="#000000" stroke-width="2" stroke-opacity="1" stroke-miterlimit="4"/></g></g><g clip-path="url(#2299ccb2fe)"><g clip-path="url(#d4e2608148)"><path stroke-linecap="butt" transform="matrix(0.75, 0, 0, 0.75, 116.566901, 267.722116)" fill="none" stroke-linejoin="miter" d="M 286.676457 0.000720158 C 128.348314 0.000720158 -0.000659448 81.943438 -0.000659448 183.031991 C -0.000659448 284.115336 128.348314 366.063262 286.676457 366.063262 C 445.0046 366.063262 573.353573 284.115336 573.353573 183.031991 C 573.353573 81.943438 445.0046 0.000720158 286.676457 0.000720158 Z M 286.676457 0.000720158 " stroke="#000000" stroke-width="2" stroke-opacity="1" stroke-miterlimit="4"/></g></g><g clip-path="url(#3b60334d64)"><g clip-path="url(#b909a1ba1b)"><path stroke-linecap="butt" transform="matrix(0.75, 0, 0, 0.75, 263.40708, 267.722116)" fill="none" stroke-linejoin="miter" d="M 286.67601 0.000720158 C 128.347867 0.000720158 -0.00110646 81.943438 -0.00110646 183.031991 C -0.00110646 284.115336 128.347867 366.063262 286.67601 366.063262 C 445.004153 366.063262 573.353126 284.115336 573.353126 183.031991 C 573.353126 81.943438 445.004153 0.000720158 286.67601 0.000720158 Z M 286.67601 0.000720158 " stroke="#000000" stroke-width="2" stroke-opacity="1" stroke-miterlimit="4"/></g></g><g mask="url(#3db39a067a)"><g transform="matrix(1, 0, 0, 1, 263, 267)"><g clip-path="url(#7acd3d497b)"><g clip-path="url(#ef80e4974f)"><g clip-path="url(#8a512faf6d)"><path fill="#8c52ff" d="M 0.40625 0.722656 L 283.621094 0.722656 L 283.621094 256.917969 L 0.40625 256.917969 Z M 0.40625 0.722656 " fill-opacity="1" fill-rule="nonzero"/></g></g></g></g></g><g clip-path="url(#8d238d35f5)"><g clip-path="url(#d74eddcacc)"><path fill="#8c52ff" d="M 94.945312 365.625 L 173.695312 365.625 L 173.695312 444.375 L 94.945312 444.375 Z M 94.945312 365.625 " fill-opacity="1" fill-rule="nonzero"/></g></g><g clip-path="url(#5c80820a7d)"><g clip-path="url(#f21fc3816a)"><path fill="#8c52ff" d="M 636.304688 365.625 L 715.054688 365.625 L 715.054688 444.375 L 636.304688 444.375 Z M 636.304688 365.625 " fill-opacity="1" fill-rule="nonzero"/></g></g><g fill="#000000" fill-opacity="1"><g transform="translate(546.474696, 475.541588)"><g><path d="M 2.921875 -2.546875 L 13.75 -2.546875 L 14.6875 -3.71875 C 14.6875 -3.71875 14.785156 -3.640625 14.984375 -3.484375 C 15.179688 -3.335938 15.414062 -3.15625 15.6875 -2.9375 C 15.957031 -2.71875 16.203125 -2.503906 16.421875 -2.296875 C 16.367188 -2.097656 16.203125 -2 15.921875 -2 L 3.078125 -2 Z M 0.859375 0.453125 L 15.390625 0.453125 L 16.359375 -0.78125 C 16.359375 -0.78125 16.414062 -0.734375 16.53125 -0.640625 C 16.65625 -0.546875 16.8125 -0.421875 17 -0.265625 C 17.195312 -0.109375 17.394531 0.0507812 17.59375 0.21875 C 17.789062 0.382812 17.976562 0.546875 18.15625 0.703125 C 18.125 0.898438 17.957031 1 17.65625 1 L 1 1 Z M 2.203125 -5.359375 L 14.421875 -5.359375 L 15.390625 -6.53125 C 15.390625 -6.53125 15.445312 -6.484375 15.5625 -6.390625 C 15.6875 -6.304688 15.835938 -6.191406 16.015625 -6.046875 C 16.203125 -5.898438 16.394531 -5.742188 16.59375 -5.578125 C 16.800781 -5.421875 16.988281 -5.257812 17.15625 -5.09375 C 17.144531 -4.988281 17.09375 -4.910156 17 -4.859375 C 16.914062 -4.804688 16.800781 -4.78125 16.65625 -4.78125 L 2.359375 -4.78125 Z M 11.578125 -14.890625 L 16.390625 -14.890625 L 16.390625 -14.359375 L 11.578125 -14.359375 Z M 11.4375 -12.765625 L 16.1875 -12.765625 L 16.1875 -12.21875 L 11.4375 -12.21875 Z M 10.984375 -10.609375 L 16.03125 -10.609375 L 16.03125 -10.046875 L 10.984375 -10.046875 Z M 8.71875 -5.359375 L 10.265625 -5.359375 L 10.265625 0.71875 L 8.71875 0.71875 Z M 0.703125 -13.25 L 7.421875 -13.25 L 8.328125 -14.34375 C 8.328125 -14.34375 8.421875 -14.269531 8.609375 -14.125 C 8.796875 -13.976562 9.019531 -13.796875 9.28125 -13.578125 C 9.539062 -13.367188 9.769531 -13.171875 9.96875 -12.984375 C 9.925781 -12.773438 9.757812 -12.671875 9.46875 -12.671875 L 0.859375 -12.671875 Z M 4.484375 -15.921875 L 6.65625 -15.734375 C 6.632812 -15.609375 6.570312 -15.492188 6.46875 -15.390625 C 6.363281 -15.296875 6.195312 -15.238281 5.96875 -15.21875 L 5.96875 -12.921875 L 4.484375 -12.921875 Z M 10.765625 -14.890625 L 10.765625 -15.59375 L 12.484375 -14.890625 L 12.234375 -14.890625 L 12.234375 -13.703125 C 12.234375 -13.191406 12.191406 -12.613281 12.109375 -11.96875 C 12.023438 -11.320312 11.851562 -10.644531 11.59375 -9.9375 C 11.332031 -9.238281 10.929688 -8.5625 10.390625 -7.90625 C 9.859375 -7.25 9.140625 -6.644531 8.234375 -6.09375 L 8.03125 -6.328125 C 8.832031 -7.097656 9.425781 -7.910156 9.8125 -8.765625 C 10.207031 -9.617188 10.460938 -10.46875 10.578125 -11.3125 C 10.703125 -12.15625 10.765625 -12.953125 10.765625 -13.703125 Z M 2.546875 -13.25 L 3.96875 -13.25 C 3.96875 -13.132812 3.96875 -13.023438 3.96875 -12.921875 C 3.96875 -12.816406 3.96875 -12.734375 3.96875 -12.671875 L 3.96875 -9.296875 C 3.96875 -9.160156 3.992188 -9.066406 4.046875 -9.015625 C 4.109375 -8.972656 4.273438 -8.953125 4.546875 -8.953125 L 5.90625 -8.953125 C 6.1875 -8.953125 6.441406 -8.953125 6.671875 -8.953125 C 6.898438 -8.953125 7.070312 -8.957031 7.1875 -8.96875 C 7.257812 -8.976562 7.328125 -8.984375 7.390625 -8.984375 C 7.460938 -8.984375 7.519531 -8.988281 7.5625 -9 C 7.625 -9.019531 7.691406 -9.035156 7.765625 -9.046875 C 7.847656 -9.054688 7.921875 -9.070312 7.984375 -9.09375 L 8.15625 -9.09375 L 8.234375 -9.078125 C 8.453125 -9.003906 8.601562 -8.921875 8.6875 -8.828125 C 8.78125 -8.734375 8.828125 -8.613281 8.828125 -8.46875 C 8.828125 -8.257812 8.742188 -8.097656 8.578125 -7.984375 C 8.421875 -7.867188 8.125 -7.78125 7.6875 -7.71875 C 7.25 -7.664062 6.601562 -7.640625 5.75 -7.640625 L 4.1875 -7.640625 C 3.726562 -7.640625 3.378906 -7.675781 3.140625 -7.75 C 2.898438 -7.820312 2.738281 -7.953125 2.65625 -8.140625 C 2.582031 -8.335938 2.546875 -8.609375 2.546875 -8.953125 Z M 15.8125 -14.890625 L 15.625 -14.890625 L 16.421875 -15.75 L 18 -14.453125 C 17.851562 -14.316406 17.597656 -14.21875 17.234375 -14.15625 C 17.191406 -13 17.140625 -12.007812 17.078125 -11.1875 C 17.015625 -10.363281 16.929688 -9.664062 16.828125 -9.09375 C 16.734375 -8.53125 16.613281 -8.078125 16.46875 -7.734375 C 16.332031 -7.390625 16.171875 -7.128906 15.984375 -6.953125 C 15.722656 -6.722656 15.4375 -6.5625 15.125 -6.46875 C 14.8125 -6.382812 14.460938 -6.34375 14.078125 -6.34375 C 14.078125 -6.53125 14.054688 -6.703125 14.015625 -6.859375 C 13.984375 -7.023438 13.914062 -7.164062 13.8125 -7.28125 C 13.695312 -7.375 13.53125 -7.457031 13.3125 -7.53125 C 13.09375 -7.613281 12.847656 -7.679688 12.578125 -7.734375 L 12.59375 -8.03125 C 12.863281 -8.019531 13.175781 -8 13.53125 -7.96875 C 13.894531 -7.9375 14.160156 -7.921875 14.328125 -7.921875 C 14.472656 -7.921875 14.585938 -7.9375 14.671875 -7.96875 C 14.753906 -8 14.835938 -8.046875 14.921875 -8.109375 C 15.160156 -8.335938 15.351562 -8.992188 15.5 -10.078125 C 15.644531 -11.160156 15.75 -12.765625 15.8125 -14.890625 Z M 15.8125 -14.890625 "/></g></g></g><g fill="#000000" fill-opacity="1"><g transform="translate(565.470812, 475.541588)"><g><path d="M 7.453125 0.875 C 6.472656 0.875 5.664062 0.664062 5.03125 0.25 C 4.394531 -0.15625 4.078125 -0.71875 4.078125 -1.4375 C 4.078125 -1.957031 4.273438 -2.394531 4.671875 -2.75 C 5.066406 -3.101562 5.597656 -3.375 6.265625 -3.5625 C 6.929688 -3.757812 7.660156 -3.859375 8.453125 -3.859375 C 9.347656 -3.859375 10.171875 -3.773438 10.921875 -3.609375 C 11.671875 -3.441406 12.332031 -3.238281 12.90625 -3 C 13.488281 -2.769531 13.972656 -2.535156 14.359375 -2.296875 C 14.753906 -2.054688 15.039062 -1.859375 15.21875 -1.703125 C 15.457031 -1.515625 15.644531 -1.320312 15.78125 -1.125 C 15.914062 -0.9375 15.984375 -0.726562 15.984375 -0.5 C 15.984375 -0.269531 15.925781 -0.101562 15.8125 0 C 15.695312 0.113281 15.550781 0.171875 15.375 0.171875 C 15.1875 0.171875 15.023438 0.125 14.890625 0.03125 C 14.753906 -0.0625 14.59375 -0.191406 14.40625 -0.359375 C 13.851562 -0.859375 13.242188 -1.300781 12.578125 -1.6875 C 11.910156 -2.082031 11.179688 -2.382812 10.390625 -2.59375 C 9.597656 -2.8125 8.75 -2.921875 7.84375 -2.921875 C 6.945312 -2.921875 6.226562 -2.78125 5.6875 -2.5 C 5.15625 -2.226562 4.890625 -1.898438 4.890625 -1.515625 C 4.890625 -1.191406 5.054688 -0.914062 5.390625 -0.6875 C 5.722656 -0.457031 6.1875 -0.34375 6.78125 -0.34375 C 7.53125 -0.34375 8.101562 -0.425781 8.5 -0.59375 C 8.894531 -0.757812 9.175781 -1.023438 9.34375 -1.390625 C 9.507812 -1.753906 9.59375 -2.238281 9.59375 -2.84375 C 9.59375 -3.21875 9.578125 -3.695312 9.546875 -4.28125 C 9.523438 -4.875 9.5 -5.53125 9.46875 -6.25 C 9.4375 -6.96875 9.421875 -7.71875 9.421875 -8.5 C 9.421875 -8.96875 9.425781 -9.457031 9.4375 -9.96875 C 9.457031 -10.476562 9.46875 -10.960938 9.46875 -11.421875 C 9.476562 -11.890625 9.488281 -12.285156 9.5 -12.609375 C 9.507812 -12.929688 9.515625 -13.144531 9.515625 -13.25 C 9.515625 -13.4375 9.484375 -13.566406 9.421875 -13.640625 C 9.367188 -13.710938 9.257812 -13.78125 9.09375 -13.84375 C 8.894531 -13.925781 8.691406 -13.984375 8.484375 -14.015625 C 8.273438 -14.054688 8.019531 -14.097656 7.71875 -14.140625 L 7.671875 -14.5 C 7.867188 -14.601562 8.085938 -14.691406 8.328125 -14.765625 C 8.566406 -14.835938 8.820312 -14.875 9.09375 -14.875 C 9.414062 -14.875 9.738281 -14.816406 10.0625 -14.703125 C 10.394531 -14.597656 10.675781 -14.460938 10.90625 -14.296875 C 11.144531 -14.140625 11.265625 -13.96875 11.265625 -13.78125 C 11.265625 -13.570312 11.210938 -13.398438 11.109375 -13.265625 C 11.015625 -13.140625 10.941406 -12.957031 10.890625 -12.71875 C 10.828125 -12.425781 10.765625 -12.050781 10.703125 -11.59375 C 10.648438 -11.132812 10.609375 -10.601562 10.578125 -10 C 10.546875 -9.394531 10.53125 -8.722656 10.53125 -7.984375 C 10.53125 -7.035156 10.5625 -6.179688 10.625 -5.421875 C 10.695312 -4.671875 10.765625 -3.988281 10.828125 -3.375 C 10.890625 -2.769531 10.921875 -2.203125 10.921875 -1.671875 C 10.921875 -0.890625 10.609375 -0.269531 9.984375 0.1875 C 9.367188 0.644531 8.523438 0.875 7.453125 0.875 Z M 7.203125 -6.421875 C 6.546875 -6.421875 5.984375 -6.5 5.515625 -6.65625 C 5.046875 -6.8125 4.703125 -7.035156 4.484375 -7.328125 C 4.265625 -7.617188 4.21875 -7.96875 4.34375 -8.375 C 4.476562 -8.78125 4.800781 -9.222656 5.3125 -9.703125 L 5.703125 -9.5 C 5.335938 -9.007812 5.160156 -8.625 5.171875 -8.34375 C 5.191406 -8.0625 5.375 -7.863281 5.71875 -7.75 C 6.0625 -7.632812 6.53125 -7.578125 7.125 -7.578125 C 7.8125 -7.578125 8.507812 -7.609375 9.21875 -7.671875 C 9.925781 -7.734375 10.601562 -7.828125 11.25 -7.953125 C 11.90625 -8.085938 12.5 -8.234375 13.03125 -8.390625 C 13.375 -8.523438 13.632812 -8.628906 13.8125 -8.703125 C 13.988281 -8.785156 14.128906 -8.828125 14.234375 -8.828125 C 14.492188 -8.828125 14.738281 -8.773438 14.96875 -8.671875 C 15.195312 -8.566406 15.3125 -8.398438 15.3125 -8.171875 C 15.3125 -7.992188 15.253906 -7.847656 15.140625 -7.734375 C 15.023438 -7.628906 14.875 -7.539062 14.6875 -7.46875 C 14.414062 -7.351562 14.019531 -7.234375 13.5 -7.109375 C 12.976562 -6.992188 12.367188 -6.882812 11.671875 -6.78125 C 10.972656 -6.675781 10.238281 -6.585938 9.46875 -6.515625 C 8.707031 -6.453125 7.953125 -6.421875 7.203125 -6.421875 Z M 6.75 -10.0625 C 6.15625 -10.0625 5.625 -10.125 5.15625 -10.25 C 4.6875 -10.382812 4.265625 -10.601562 3.890625 -10.90625 C 3.515625 -11.21875 3.160156 -11.648438 2.828125 -12.203125 L 3.140625 -12.4375 C 3.453125 -12.195312 3.753906 -11.988281 4.046875 -11.8125 C 4.335938 -11.632812 4.671875 -11.492188 5.046875 -11.390625 C 5.421875 -11.296875 5.898438 -11.25 6.484375 -11.25 C 7.128906 -11.25 7.789062 -11.28125 8.46875 -11.34375 C 9.144531 -11.414062 9.796875 -11.503906 10.421875 -11.609375 C 11.054688 -11.722656 11.628906 -11.835938 12.140625 -11.953125 C 12.660156 -12.078125 13.066406 -12.1875 13.359375 -12.28125 C 13.660156 -12.375 13.894531 -12.460938 14.0625 -12.546875 C 14.238281 -12.640625 14.382812 -12.6875 14.5 -12.6875 C 14.644531 -12.6875 14.8125 -12.660156 15 -12.609375 C 15.1875 -12.566406 15.34375 -12.492188 15.46875 -12.390625 C 15.59375 -12.296875 15.65625 -12.171875 15.65625 -12.015625 C 15.65625 -11.804688 15.59375 -11.65625 15.46875 -11.5625 C 15.34375 -11.46875 15.171875 -11.375 14.953125 -11.28125 C 14.671875 -11.1875 14.25 -11.070312 13.6875 -10.9375 C 13.125 -10.800781 12.460938 -10.664062 11.703125 -10.53125 C 10.941406 -10.40625 10.132812 -10.296875 9.28125 -10.203125 C 8.4375 -10.109375 7.59375 -10.0625 6.75 -10.0625 Z M 6.75 -10.0625 "/></g></g></g><g fill="#000000" fill-opacity="1"><g transform="translate(584.466928, 475.541588)"><g><path d="M 9.15625 0.796875 C 8.289062 0.796875 7.5625 0.644531 6.96875 0.34375 C 6.375 0.0390625 5.925781 -0.453125 5.625 -1.140625 C 5.320312 -1.828125 5.171875 -2.71875 5.171875 -3.8125 C 5.171875 -4.382812 5.1875 -5.003906 5.21875 -5.671875 C 5.25 -6.335938 5.285156 -7 5.328125 -7.65625 C 5.367188 -8.320312 5.410156 -8.953125 5.453125 -9.546875 C 5.492188 -10.148438 5.53125 -10.675781 5.5625 -11.125 C 5.59375 -11.582031 5.609375 -11.929688 5.609375 -12.171875 C 5.609375 -12.554688 5.578125 -12.832031 5.515625 -13 C 5.453125 -13.164062 5.335938 -13.296875 5.171875 -13.390625 C 5.015625 -13.492188 4.832031 -13.585938 4.625 -13.671875 C 4.425781 -13.753906 4.195312 -13.820312 3.9375 -13.875 L 3.9375 -14.25 C 4.1875 -14.300781 4.414062 -14.347656 4.625 -14.390625 C 4.84375 -14.429688 5.050781 -14.445312 5.25 -14.4375 C 5.5 -14.4375 5.757812 -14.375 6.03125 -14.25 C 6.3125 -14.125 6.578125 -13.96875 6.828125 -13.78125 C 7.085938 -13.601562 7.296875 -13.414062 7.453125 -13.21875 C 7.609375 -13.03125 7.6875 -12.851562 7.6875 -12.6875 C 7.6875 -12.550781 7.648438 -12.425781 7.578125 -12.3125 C 7.503906 -12.195312 7.425781 -12.054688 7.34375 -11.890625 C 7.257812 -11.722656 7.1875 -11.484375 7.125 -11.171875 C 7.007812 -10.578125 6.894531 -9.875 6.78125 -9.0625 C 6.675781 -8.25 6.585938 -7.398438 6.515625 -6.515625 C 6.453125 -5.640625 6.421875 -4.789062 6.421875 -3.96875 C 6.421875 -3.1875 6.507812 -2.554688 6.6875 -2.078125 C 6.863281 -1.609375 7.15625 -1.265625 7.5625 -1.046875 C 7.976562 -0.835938 8.539062 -0.734375 9.25 -0.734375 C 10.019531 -0.734375 10.765625 -0.84375 11.484375 -1.0625 C 12.203125 -1.289062 12.875 -1.59375 13.5 -1.96875 C 14.125 -2.34375 14.6875 -2.765625 15.1875 -3.234375 C 15.695312 -3.710938 16.125 -4.210938 16.46875 -4.734375 L 16.875 -4.453125 C 16.53125 -3.703125 16.097656 -3.003906 15.578125 -2.359375 C 15.066406 -1.722656 14.484375 -1.164062 13.828125 -0.6875 C 13.171875 -0.21875 12.445312 0.144531 11.65625 0.40625 C 10.863281 0.664062 10.03125 0.796875 9.15625 0.796875 Z M 9.15625 0.796875 "/></g></g></g><g fill="#000000" fill-opacity="1"><g transform="translate(603.463044, 475.541588)"><g><path d="M 9.96875 0.765625 C 9.144531 0.765625 8.363281 0.691406 7.625 0.546875 C 6.894531 0.398438 6.25 0.179688 5.6875 -0.109375 C 5.125 -0.410156 4.679688 -0.789062 4.359375 -1.25 C 4.035156 -1.707031 3.875 -2.253906 3.875 -2.890625 C 3.875 -3.585938 4.097656 -4.210938 4.546875 -4.765625 C 4.992188 -5.316406 5.609375 -5.75 6.390625 -6.0625 C 7.179688 -6.375 8.066406 -6.53125 9.046875 -6.53125 C 9.929688 -6.53125 10.722656 -6.460938 11.421875 -6.328125 C 12.117188 -6.191406 12.671875 -6.054688 13.078125 -5.921875 C 13.273438 -5.890625 13.304688 -5.941406 13.171875 -6.078125 C 12.835938 -6.460938 12.492188 -6.878906 12.140625 -7.328125 C 11.796875 -7.773438 11.453125 -8.25 11.109375 -8.75 C 10.773438 -9.257812 10.441406 -9.765625 10.109375 -10.265625 C 9.898438 -10.597656 9.703125 -10.945312 9.515625 -11.3125 C 9.328125 -11.6875 9.144531 -12.039062 8.96875 -12.375 C 8.789062 -12.707031 8.613281 -13.003906 8.4375 -13.265625 C 8.269531 -13.515625 8.035156 -13.660156 7.734375 -13.703125 C 7.441406 -13.753906 7.023438 -13.78125 6.484375 -13.78125 L 6.40625 -14.109375 C 6.71875 -14.296875 7.019531 -14.4375 7.3125 -14.53125 C 7.613281 -14.632812 7.894531 -14.6875 8.15625 -14.6875 C 8.5625 -14.6875 8.929688 -14.625 9.265625 -14.5 C 9.597656 -14.382812 9.789062 -14.234375 9.84375 -14.046875 C 9.96875 -13.671875 10.082031 -13.300781 10.1875 -12.9375 C 10.300781 -12.582031 10.4375 -12.21875 10.59375 -11.84375 C 10.75 -11.46875 10.945312 -11.066406 11.1875 -10.640625 C 11.488281 -10.078125 11.835938 -9.535156 12.234375 -9.015625 C 12.628906 -8.492188 13.039062 -8 13.46875 -7.53125 C 13.894531 -7.0625 14.320312 -6.628906 14.75 -6.234375 C 14.976562 -6.015625 15.132812 -5.832031 15.21875 -5.6875 C 15.3125 -5.550781 15.363281 -5.394531 15.375 -5.21875 C 15.382812 -5.03125 15.359375 -4.828125 15.296875 -4.609375 C 15.234375 -4.398438 15.140625 -4.21875 15.015625 -4.0625 C 14.898438 -3.914062 14.757812 -3.84375 14.59375 -3.84375 C 14.363281 -3.84375 14.15625 -3.90625 13.96875 -4.03125 C 13.789062 -4.164062 13.5625 -4.316406 13.28125 -4.484375 C 12.925781 -4.703125 12.515625 -4.90625 12.046875 -5.09375 C 11.578125 -5.289062 11.0625 -5.457031 10.5 -5.59375 C 9.9375 -5.726562 9.316406 -5.796875 8.640625 -5.796875 C 7.960938 -5.796875 7.347656 -5.675781 6.796875 -5.4375 C 6.242188 -5.207031 5.804688 -4.894531 5.484375 -4.5 C 5.160156 -4.101562 5 -3.648438 5 -3.140625 C 5 -2.453125 5.382812 -1.882812 6.15625 -1.4375 C 6.925781 -1 8.03125 -0.78125 9.46875 -0.78125 C 9.9375 -0.78125 10.332031 -0.796875 10.65625 -0.828125 C 10.988281 -0.859375 11.273438 -0.890625 11.515625 -0.921875 C 11.765625 -0.960938 12.003906 -0.984375 12.234375 -0.984375 C 12.554688 -0.984375 12.828125 -0.921875 13.046875 -0.796875 C 13.273438 -0.671875 13.390625 -0.484375 13.390625 -0.234375 C 13.390625 0.0546875 13.128906 0.296875 12.609375 0.484375 C 12.097656 0.671875 11.21875 0.765625 9.96875 0.765625 Z M 6.328125 -9.140625 C 5.671875 -9.140625 5.132812 -9.21875 4.71875 -9.375 C 4.3125 -9.53125 3.953125 -9.78125 3.640625 -10.125 C 3.328125 -10.46875 3.003906 -10.90625 2.671875 -11.4375 L 3 -11.71875 C 3.394531 -11.40625 3.742188 -11.148438 4.046875 -10.953125 C 4.347656 -10.753906 4.671875 -10.613281 5.015625 -10.53125 C 5.359375 -10.445312 5.765625 -10.40625 6.234375 -10.40625 C 6.628906 -10.40625 7.078125 -10.441406 7.578125 -10.515625 C 8.078125 -10.597656 8.578125 -10.703125 9.078125 -10.828125 C 9.585938 -10.960938 10.039062 -11.101562 10.4375 -11.25 C 11.21875 -11.53125 11.828125 -11.796875 12.265625 -12.046875 C 12.710938 -12.296875 13.0625 -12.515625 13.3125 -12.703125 C 13.5625 -12.898438 13.773438 -13.035156 13.953125 -13.109375 C 14.140625 -13.171875 14.351562 -13.1875 14.59375 -13.15625 C 14.832031 -13.132812 15.015625 -13.054688 15.140625 -12.921875 C 15.242188 -12.796875 15.273438 -12.648438 15.234375 -12.484375 C 15.203125 -12.316406 15.109375 -12.164062 14.953125 -12.03125 C 14.753906 -11.851562 14.453125 -11.644531 14.046875 -11.40625 C 13.648438 -11.175781 13.191406 -10.941406 12.671875 -10.703125 C 12.148438 -10.472656 11.601562 -10.257812 11.03125 -10.0625 C 10.644531 -9.9375 10.175781 -9.800781 9.625 -9.65625 C 9.070312 -9.507812 8.503906 -9.390625 7.921875 -9.296875 C 7.347656 -9.203125 6.816406 -9.148438 6.328125 -9.140625 Z M 6.328125 -9.140625 "/></g></g></g><g fill="#000000" fill-opacity="1"><g transform="translate(180.140517, 475.541588)"><g><path d="M 8.703125 -8.65625 L 10.265625 -8.65625 L 10.265625 -0.609375 C 10.265625 -0.210938 10.207031 0.132812 10.09375 0.4375 C 9.976562 0.738281 9.734375 0.984375 9.359375 1.171875 C 8.984375 1.367188 8.421875 1.5 7.671875 1.5625 C 7.660156 1.320312 7.609375 1.101562 7.515625 0.90625 C 7.421875 0.707031 7.289062 0.550781 7.125 0.4375 C 6.9375 0.300781 6.675781 0.179688 6.34375 0.078125 C 6.019531 -0.015625 5.566406 -0.09375 4.984375 -0.15625 L 4.984375 -0.4375 C 4.984375 -0.4375 5.117188 -0.425781 5.390625 -0.40625 C 5.671875 -0.382812 6 -0.359375 6.375 -0.328125 C 6.757812 -0.304688 7.125 -0.289062 7.46875 -0.28125 C 7.8125 -0.269531 8.046875 -0.265625 8.171875 -0.265625 C 8.367188 -0.265625 8.503906 -0.296875 8.578125 -0.359375 C 8.660156 -0.421875 8.703125 -0.523438 8.703125 -0.671875 Z M 5.890625 -12.59375 C 6.910156 -12.445312 7.769531 -12.25 8.46875 -12 C 9.175781 -11.75 9.753906 -11.476562 10.203125 -11.1875 C 10.648438 -10.894531 10.976562 -10.601562 11.1875 -10.3125 C 11.40625 -10.019531 11.53125 -9.75 11.5625 -9.5 C 11.59375 -9.25 11.554688 -9.035156 11.453125 -8.859375 C 11.359375 -8.691406 11.210938 -8.582031 11.015625 -8.53125 C 10.816406 -8.488281 10.597656 -8.53125 10.359375 -8.65625 C 10.148438 -8.976562 9.835938 -9.351562 9.421875 -9.78125 C 9.003906 -10.21875 8.488281 -10.660156 7.875 -11.109375 C 7.257812 -11.554688 6.566406 -11.957031 5.796875 -12.3125 Z M 13.8125 -14.53125 L 13.578125 -14.53125 L 14.609375 -15.484375 L 16.28125 -13.890625 C 16.207031 -13.816406 16.101562 -13.769531 15.96875 -13.75 C 15.84375 -13.726562 15.671875 -13.710938 15.453125 -13.703125 C 15.097656 -13.460938 14.671875 -13.210938 14.171875 -12.953125 C 13.679688 -12.703125 13.160156 -12.453125 12.609375 -12.203125 C 12.054688 -11.960938 11.507812 -11.734375 10.96875 -11.515625 C 10.4375 -11.304688 9.941406 -11.125 9.484375 -10.96875 L 9.3125 -11.140625 C 9.664062 -11.347656 10.050781 -11.59375 10.46875 -11.875 C 10.894531 -12.164062 11.316406 -12.46875 11.734375 -12.78125 C 12.160156 -13.101562 12.554688 -13.414062 12.921875 -13.71875 C 13.285156 -14.019531 13.582031 -14.289062 13.8125 -14.53125 Z M 15.90625 -8.65625 L 15.671875 -8.65625 L 16.6875 -9.65625 L 18.390625 -8.015625 C 18.316406 -7.941406 18.21875 -7.890625 18.09375 -7.859375 C 17.976562 -7.828125 17.8125 -7.804688 17.59375 -7.796875 C 17.25 -7.398438 16.8125 -6.960938 16.28125 -6.484375 C 15.757812 -6.015625 15.207031 -5.5625 14.625 -5.125 C 14.039062 -4.6875 13.5 -4.304688 13 -3.984375 L 12.8125 -4.140625 C 13.144531 -4.546875 13.515625 -5.019531 13.921875 -5.5625 C 14.328125 -6.113281 14.710938 -6.664062 15.078125 -7.21875 C 15.441406 -7.78125 15.71875 -8.257812 15.90625 -8.65625 Z M 2.90625 -14.53125 L 14.484375 -14.53125 L 14.484375 -13.984375 L 3.078125 -13.984375 Z M 0.703125 -8.65625 L 16.796875 -8.65625 L 16.796875 -8.125 L 0.875 -8.125 Z M 0.703125 -8.65625 "/></g></g></g><g fill="#000000" fill-opacity="1"><g transform="translate(199.136633, 475.541588)"><g><path d="M 1.734375 -4.015625 C 1.847656 -4.015625 1.929688 -4.03125 1.984375 -4.0625 C 2.046875 -4.09375 2.117188 -4.207031 2.203125 -4.40625 C 2.265625 -4.53125 2.328125 -4.65625 2.390625 -4.78125 C 2.453125 -4.914062 2.535156 -5.113281 2.640625 -5.375 C 2.753906 -5.644531 2.914062 -6.035156 3.125 -6.546875 C 3.332031 -7.054688 3.613281 -7.757812 3.96875 -8.65625 C 4.332031 -9.5625 4.800781 -10.71875 5.375 -12.125 L 5.71875 -12.03125 C 5.59375 -11.582031 5.441406 -11.078125 5.265625 -10.515625 C 5.097656 -9.960938 4.925781 -9.394531 4.75 -8.8125 C 4.570312 -8.226562 4.398438 -7.671875 4.234375 -7.140625 C 4.066406 -6.609375 3.925781 -6.144531 3.8125 -5.75 C 3.695312 -5.351562 3.617188 -5.066406 3.578125 -4.890625 C 3.515625 -4.597656 3.457031 -4.3125 3.40625 -4.03125 C 3.363281 -3.75 3.34375 -3.488281 3.34375 -3.25 C 3.34375 -2.957031 3.390625 -2.648438 3.484375 -2.328125 C 3.585938 -2.003906 3.679688 -1.640625 3.765625 -1.234375 C 3.847656 -0.835938 3.878906 -0.375 3.859375 0.15625 C 3.847656 0.582031 3.738281 0.914062 3.53125 1.15625 C 3.332031 1.394531 3.066406 1.515625 2.734375 1.515625 C 2.546875 1.515625 2.394531 1.429688 2.28125 1.265625 C 2.164062 1.109375 2.097656 0.867188 2.078125 0.546875 C 2.160156 -0.117188 2.203125 -0.726562 2.203125 -1.28125 C 2.210938 -1.832031 2.1875 -2.285156 2.125 -2.640625 C 2.0625 -3.003906 1.96875 -3.234375 1.84375 -3.328125 C 1.71875 -3.429688 1.582031 -3.5 1.4375 -3.53125 C 1.289062 -3.5625 1.113281 -3.582031 0.90625 -3.59375 L 0.90625 -4.015625 C 0.90625 -4.015625 0.957031 -4.015625 1.0625 -4.015625 C 1.175781 -4.015625 1.300781 -4.015625 1.4375 -4.015625 C 1.570312 -4.015625 1.671875 -4.015625 1.734375 -4.015625 Z M 1.875 -15.890625 C 2.582031 -15.753906 3.148438 -15.578125 3.578125 -15.359375 C 4.015625 -15.140625 4.332031 -14.898438 4.53125 -14.640625 C 4.738281 -14.378906 4.851562 -14.128906 4.875 -13.890625 C 4.894531 -13.660156 4.847656 -13.460938 4.734375 -13.296875 C 4.617188 -13.128906 4.457031 -13.03125 4.25 -13 C 4.050781 -12.96875 3.828125 -13.03125 3.578125 -13.1875 C 3.484375 -13.488281 3.332031 -13.796875 3.125 -14.109375 C 2.914062 -14.421875 2.6875 -14.71875 2.4375 -15 C 2.195312 -15.28125 1.953125 -15.53125 1.703125 -15.75 Z M 0.765625 -11.46875 C 1.429688 -11.375 1.960938 -11.222656 2.359375 -11.015625 C 2.765625 -10.816406 3.054688 -10.597656 3.234375 -10.359375 C 3.421875 -10.117188 3.519531 -9.878906 3.53125 -9.640625 C 3.539062 -9.410156 3.484375 -9.21875 3.359375 -9.0625 C 3.242188 -8.90625 3.082031 -8.8125 2.875 -8.78125 C 2.675781 -8.75 2.457031 -8.8125 2.21875 -8.96875 C 2.132812 -9.394531 1.925781 -9.828125 1.59375 -10.265625 C 1.269531 -10.703125 0.9375 -11.054688 0.59375 -11.328125 Z M 12.8125 -14.078125 L 14.71875 -13.875 C 14.695312 -13.757812 14.644531 -13.660156 14.5625 -13.578125 C 14.476562 -13.492188 14.328125 -13.4375 14.109375 -13.40625 L 14.109375 -2.84375 C 14.109375 -2.800781 14.054688 -2.742188 13.953125 -2.671875 C 13.847656 -2.597656 13.710938 -2.53125 13.546875 -2.46875 C 13.378906 -2.414062 13.222656 -2.390625 13.078125 -2.390625 L 12.8125 -2.390625 Z M 15.984375 -15.78125 L 18.0625 -15.546875 C 18.050781 -15.421875 17.992188 -15.304688 17.890625 -15.203125 C 17.785156 -15.109375 17.609375 -15.050781 17.359375 -15.03125 L 17.359375 -0.46875 C 17.359375 -0.101562 17.3125 0.210938 17.21875 0.484375 C 17.132812 0.765625 16.945312 0.988281 16.65625 1.15625 C 16.363281 1.332031 15.910156 1.445312 15.296875 1.5 C 15.265625 1.28125 15.222656 1.082031 15.171875 0.90625 C 15.117188 0.726562 15.019531 0.582031 14.875 0.46875 C 14.738281 0.34375 14.550781 0.242188 14.3125 0.171875 C 14.082031 0.0976562 13.757812 0.03125 13.34375 -0.03125 L 13.34375 -0.34375 C 13.34375 -0.34375 13.4375 -0.332031 13.625 -0.3125 C 13.8125 -0.300781 14.035156 -0.285156 14.296875 -0.265625 C 14.566406 -0.253906 14.816406 -0.238281 15.046875 -0.21875 C 15.273438 -0.207031 15.441406 -0.203125 15.546875 -0.203125 C 15.703125 -0.203125 15.8125 -0.226562 15.875 -0.28125 C 15.945312 -0.34375 15.984375 -0.445312 15.984375 -0.59375 Z M 6.671875 -11.234375 L 10.546875 -11.234375 L 10.546875 -10.703125 L 6.671875 -10.703125 Z M 6.671875 -7.8125 L 10.546875 -7.8125 L 10.546875 -7.265625 L 6.671875 -7.265625 Z M 6.65625 -4.3125 L 10.484375 -4.3125 L 10.484375 -3.765625 L 6.65625 -3.765625 Z M 7.109375 -3.15625 L 8.9375 -2.34375 C 8.882812 -2.238281 8.796875 -2.15625 8.671875 -2.09375 C 8.554688 -2.03125 8.398438 -2.015625 8.203125 -2.046875 C 7.722656 -1.273438 7.160156 -0.597656 6.515625 -0.015625 C 5.867188 0.566406 5.203125 1.03125 4.515625 1.375 L 4.296875 1.140625 C 4.828125 0.660156 5.34375 0.046875 5.84375 -0.703125 C 6.34375 -1.453125 6.765625 -2.269531 7.109375 -3.15625 Z M 9.21875 -3.046875 C 9.894531 -2.734375 10.4375 -2.394531 10.84375 -2.03125 C 11.25 -1.675781 11.539062 -1.332031 11.71875 -1 C 11.894531 -0.664062 11.984375 -0.359375 11.984375 -0.078125 C 11.984375 0.203125 11.921875 0.429688 11.796875 0.609375 C 11.679688 0.785156 11.519531 0.882812 11.3125 0.90625 C 11.113281 0.925781 10.898438 0.835938 10.671875 0.640625 C 10.640625 0.253906 10.535156 -0.148438 10.359375 -0.578125 C 10.179688 -1.015625 9.96875 -1.4375 9.71875 -1.84375 C 9.476562 -2.25 9.234375 -2.601562 8.984375 -2.90625 Z M 6 -14.671875 L 6 -15.3125 L 7.421875 -14.671875 L 10.5 -14.671875 L 10.5 -14.109375 L 7.328125 -14.109375 L 7.328125 -3.359375 C 7.328125 -3.328125 7.28125 -3.269531 7.1875 -3.1875 C 7.09375 -3.101562 6.957031 -3.03125 6.78125 -2.96875 C 6.613281 -2.914062 6.429688 -2.890625 6.234375 -2.890625 L 6 -2.890625 Z M 9.953125 -14.671875 L 9.765625 -14.671875 L 10.5 -15.484375 L 12.078125 -14.25 C 12.035156 -14.1875 11.945312 -14.117188 11.8125 -14.046875 C 11.675781 -13.984375 11.519531 -13.929688 11.34375 -13.890625 L 11.34375 -3.53125 C 11.34375 -3.476562 11.273438 -3.414062 11.140625 -3.34375 C 11.003906 -3.28125 10.847656 -3.21875 10.671875 -3.15625 C 10.492188 -3.09375 10.332031 -3.0625 10.1875 -3.0625 L 9.953125 -3.0625 Z M 9.953125 -14.671875 "/></g></g></g><g fill="#000000" fill-opacity="1"><g transform="translate(218.132749, 475.541588)"><g><path d="M 0.71875 -14.484375 L 15.234375 -14.484375 L 16.328125 -15.828125 C 16.328125 -15.828125 16.390625 -15.769531 16.515625 -15.65625 C 16.640625 -15.550781 16.804688 -15.421875 17.015625 -15.265625 C 17.234375 -15.109375 17.453125 -14.9375 17.671875 -14.75 C 17.898438 -14.570312 18.109375 -14.398438 18.296875 -14.234375 C 18.253906 -14.023438 18.082031 -13.921875 17.78125 -13.921875 L 0.875 -13.921875 Z M 13.796875 -14.34375 L 15.328125 -14.34375 L 15.328125 -0.671875 C 15.328125 -0.296875 15.269531 0.0390625 15.15625 0.34375 C 15.039062 0.65625 14.796875 0.914062 14.421875 1.125 C 14.054688 1.332031 13.492188 1.46875 12.734375 1.53125 C 12.722656 1.28125 12.664062 1.0625 12.5625 0.875 C 12.46875 0.6875 12.328125 0.53125 12.140625 0.40625 C 11.953125 0.269531 11.6875 0.15625 11.34375 0.0625 C 11.007812 -0.03125 10.539062 -0.113281 9.9375 -0.1875 L 9.9375 -0.46875 C 9.9375 -0.46875 10.03125 -0.460938 10.21875 -0.453125 C 10.40625 -0.441406 10.644531 -0.425781 10.9375 -0.40625 C 11.226562 -0.382812 11.53125 -0.363281 11.84375 -0.34375 C 12.164062 -0.332031 12.453125 -0.316406 12.703125 -0.296875 C 12.960938 -0.285156 13.144531 -0.28125 13.25 -0.28125 C 13.457031 -0.28125 13.597656 -0.316406 13.671875 -0.390625 C 13.753906 -0.472656 13.796875 -0.585938 13.796875 -0.734375 Z M 2.9375 -10.65625 L 2.9375 -11.328125 L 4.5 -10.65625 L 9.4375 -10.65625 L 9.4375 -10.09375 L 4.40625 -10.09375 L 4.40625 -2.734375 C 4.40625 -2.691406 4.34375 -2.628906 4.21875 -2.546875 C 4.101562 -2.472656 3.953125 -2.398438 3.765625 -2.328125 C 3.585938 -2.265625 3.390625 -2.234375 3.171875 -2.234375 L 2.9375 -2.234375 Z M 8.65625 -10.65625 L 8.46875 -10.65625 L 9.25 -11.515625 L 10.9375 -10.21875 C 10.894531 -10.144531 10.800781 -10.066406 10.65625 -9.984375 C 10.519531 -9.910156 10.347656 -9.859375 10.140625 -9.828125 L 10.140625 -3.4375 C 10.140625 -3.394531 10.066406 -3.335938 9.921875 -3.265625 C 9.773438 -3.203125 9.609375 -3.140625 9.421875 -3.078125 C 9.234375 -3.023438 9.054688 -3 8.890625 -3 L 8.65625 -3 Z M 3.640625 -5.03125 L 9.40625 -5.03125 L 9.40625 -4.484375 L 3.640625 -4.484375 Z M 3.640625 -5.03125 "/></g></g></g><g fill="#000000" fill-opacity="1"><g transform="translate(237.128865, 475.541588)"><g><path d="M 6.3125 -14.15625 C 7.082031 -13.914062 7.703125 -13.632812 8.171875 -13.3125 C 8.648438 -12.988281 9.003906 -12.660156 9.234375 -12.328125 C 9.460938 -12.003906 9.59375 -11.703125 9.625 -11.421875 C 9.65625 -11.140625 9.613281 -10.90625 9.5 -10.71875 C 9.382812 -10.53125 9.21875 -10.421875 9 -10.390625 C 8.789062 -10.359375 8.554688 -10.429688 8.296875 -10.609375 C 8.203125 -10.984375 8.03125 -11.378906 7.78125 -11.796875 C 7.539062 -12.210938 7.269531 -12.617188 6.96875 -13.015625 C 6.675781 -13.410156 6.382812 -13.742188 6.09375 -14.015625 Z M 3.96875 -16.015625 L 6.3125 -15.5 C 6.269531 -15.375 6.191406 -15.273438 6.078125 -15.203125 C 5.972656 -15.128906 5.816406 -15.09375 5.609375 -15.09375 C 5.410156 -14.726562 5.171875 -14.320312 4.890625 -13.875 C 4.609375 -13.425781 4.3125 -12.976562 4 -12.53125 C 3.6875 -12.082031 3.375 -11.660156 3.0625 -11.265625 L 2.71875 -11.265625 C 2.863281 -11.722656 3.015625 -12.226562 3.171875 -12.78125 C 3.335938 -13.34375 3.488281 -13.90625 3.625 -14.46875 C 3.769531 -15.03125 3.882812 -15.546875 3.96875 -16.015625 Z M 0.5625 -11.9375 C 1.019531 -11.945312 1.648438 -11.96875 2.453125 -12 C 3.265625 -12.039062 4.175781 -12.09375 5.1875 -12.15625 C 6.195312 -12.21875 7.242188 -12.28125 8.328125 -12.34375 L 8.34375 -12.046875 C 7.59375 -11.859375 6.671875 -11.640625 5.578125 -11.390625 C 4.492188 -11.140625 3.210938 -10.859375 1.734375 -10.546875 C 1.679688 -10.429688 1.609375 -10.34375 1.515625 -10.28125 C 1.429688 -10.226562 1.34375 -10.191406 1.25 -10.171875 Z M 2.484375 -6.53125 L 7.9375 -6.53125 L 7.9375 -5.984375 L 2.484375 -5.984375 Z M 2.453125 -3.765625 L 7.90625 -3.765625 L 7.90625 -3.234375 L 2.453125 -3.234375 Z M 1.953125 -9.25 L 1.953125 -9.9375 L 3.515625 -9.25 L 8.125 -9.25 L 8.125 -8.703125 L 3.421875 -8.703125 L 3.421875 0.96875 C 3.421875 1.019531 3.363281 1.085938 3.25 1.171875 C 3.132812 1.265625 2.984375 1.34375 2.796875 1.40625 C 2.609375 1.46875 2.40625 1.5 2.1875 1.5 L 1.953125 1.5 Z M 10.546875 -15.78125 L 12.640625 -15.578125 C 12.617188 -15.460938 12.5625 -15.359375 12.46875 -15.265625 C 12.375 -15.179688 12.234375 -15.128906 12.046875 -15.109375 L 12.046875 -9.515625 C 12.046875 -9.367188 12.085938 -9.269531 12.171875 -9.21875 C 12.253906 -9.164062 12.453125 -9.140625 12.765625 -9.140625 L 14.453125 -9.140625 C 14.804688 -9.140625 15.125 -9.140625 15.40625 -9.140625 C 15.6875 -9.140625 15.882812 -9.144531 16 -9.15625 C 16.101562 -9.164062 16.1875 -9.179688 16.25 -9.203125 C 16.3125 -9.234375 16.359375 -9.28125 16.390625 -9.34375 C 16.484375 -9.488281 16.582031 -9.738281 16.6875 -10.09375 C 16.800781 -10.457031 16.914062 -10.867188 17.03125 -11.328125 L 17.234375 -11.328125 L 17.3125 -9.296875 C 17.539062 -9.203125 17.691406 -9.109375 17.765625 -9.015625 C 17.847656 -8.929688 17.890625 -8.8125 17.890625 -8.65625 C 17.890625 -8.445312 17.789062 -8.273438 17.59375 -8.140625 C 17.40625 -8.003906 17.054688 -7.90625 16.546875 -7.84375 C 16.035156 -7.789062 15.300781 -7.765625 14.34375 -7.765625 L 12.4375 -7.765625 C 11.90625 -7.765625 11.503906 -7.804688 11.234375 -7.890625 C 10.960938 -7.972656 10.78125 -8.117188 10.6875 -8.328125 C 10.59375 -8.535156 10.546875 -8.828125 10.546875 -9.203125 Z M 6.96875 -9.25 L 6.78125 -9.25 L 7.53125 -10.125 L 9.296875 -8.796875 C 9.242188 -8.734375 9.144531 -8.660156 9 -8.578125 C 8.851562 -8.492188 8.6875 -8.441406 8.5 -8.421875 L 8.5 -0.5 C 8.5 -0.113281 8.457031 0.21875 8.375 0.5 C 8.289062 0.789062 8.109375 1.015625 7.828125 1.171875 C 7.546875 1.328125 7.109375 1.4375 6.515625 1.5 C 6.503906 1.257812 6.472656 1.039062 6.421875 0.84375 C 6.378906 0.65625 6.3125 0.507812 6.21875 0.40625 C 6.113281 0.269531 5.96875 0.160156 5.78125 0.078125 C 5.601562 0.00390625 5.351562 -0.0546875 5.03125 -0.109375 L 5.03125 -0.40625 C 5.03125 -0.40625 5.097656 -0.398438 5.234375 -0.390625 C 5.367188 -0.378906 5.523438 -0.367188 5.703125 -0.359375 C 5.890625 -0.347656 6.070312 -0.335938 6.25 -0.328125 C 6.425781 -0.328125 6.5625 -0.328125 6.65625 -0.328125 C 6.78125 -0.328125 6.863281 -0.351562 6.90625 -0.40625 C 6.945312 -0.46875 6.96875 -0.554688 6.96875 -0.671875 Z M 16.015625 -14.78125 L 17.703125 -13.53125 C 17.546875 -13.351562 17.222656 -13.332031 16.734375 -13.46875 C 16.347656 -13.28125 15.882812 -13.070312 15.34375 -12.84375 C 14.800781 -12.625 14.222656 -12.410156 13.609375 -12.203125 C 12.992188 -12.003906 12.382812 -11.835938 11.78125 -11.703125 L 11.671875 -11.984375 C 12.203125 -12.210938 12.738281 -12.488281 13.28125 -12.8125 C 13.832031 -13.144531 14.347656 -13.484375 14.828125 -13.828125 C 15.316406 -14.179688 15.710938 -14.5 16.015625 -14.78125 Z M 10.546875 -7.109375 L 12.65625 -6.875 C 12.625 -6.625 12.425781 -6.472656 12.0625 -6.421875 L 12.0625 -0.609375 C 12.0625 -0.453125 12.101562 -0.347656 12.1875 -0.296875 C 12.269531 -0.253906 12.476562 -0.234375 12.8125 -0.234375 L 14.546875 -0.234375 C 14.929688 -0.234375 15.265625 -0.234375 15.546875 -0.234375 C 15.835938 -0.234375 16.039062 -0.238281 16.15625 -0.25 C 16.34375 -0.25 16.476562 -0.316406 16.5625 -0.453125 C 16.644531 -0.609375 16.738281 -0.882812 16.84375 -1.28125 C 16.945312 -1.675781 17.0625 -2.117188 17.1875 -2.609375 L 17.40625 -2.609375 L 17.484375 -0.40625 C 17.710938 -0.3125 17.863281 -0.21875 17.9375 -0.125 C 18.019531 -0.03125 18.0625 0.09375 18.0625 0.25 C 18.0625 0.457031 17.960938 0.628906 17.765625 0.765625 C 17.578125 0.910156 17.222656 1.007812 16.703125 1.0625 C 16.179688 1.125 15.425781 1.15625 14.4375 1.15625 L 12.484375 1.15625 C 11.953125 1.15625 11.546875 1.113281 11.265625 1.03125 C 10.984375 0.945312 10.789062 0.796875 10.6875 0.578125 C 10.59375 0.367188 10.546875 0.0820312 10.546875 -0.28125 Z M 16.0625 -6.28125 L 17.890625 -5.046875 C 17.816406 -4.960938 17.703125 -4.90625 17.546875 -4.875 C 17.390625 -4.851562 17.179688 -4.875 16.921875 -4.9375 C 16.523438 -4.707031 16.039062 -4.460938 15.46875 -4.203125 C 14.90625 -3.941406 14.300781 -3.695312 13.65625 -3.46875 C 13.007812 -3.25 12.363281 -3.054688 11.71875 -2.890625 L 11.578125 -3.171875 C 12.128906 -3.421875 12.695312 -3.726562 13.28125 -4.09375 C 13.863281 -4.46875 14.398438 -4.847656 14.890625 -5.234375 C 15.378906 -5.617188 15.769531 -5.96875 16.0625 -6.28125 Z M 16.0625 -6.28125 "/></g></g></g><g clip-path="url(#e56a105058)"><g clip-path="url(#0835f6284e)"><path fill="#8c52ff" d="M 405 388.320312 L 557.269531 388.320312 L 557.269531 467.070312 L 405 467.070312 Z M 405 388.320312 " fill-opacity="1" fill-rule="nonzero"/></g></g><g clip-path="url(#257e42c79b)"><g clip-path="url(#0287e49259)"><path fill="#8c52ff" d="M 252.828125 388.320312 L 478.3125 388.320312 L 478.3125 467.070312 L 252.828125 467.070312 Z M 252.828125 388.320312 " fill-opacity="1" fill-rule="nonzero"/></g></g><g fill="#000000" fill-opacity="1"><g transform="translate(386.00096, 475.541588)"><g><path d="M 1.421875 -14.765625 L 4.328125 -14.765625 L 5.1875 -15.84375 C 5.1875 -15.84375 5.273438 -15.769531 5.453125 -15.625 C 5.628906 -15.488281 5.835938 -15.316406 6.078125 -15.109375 C 6.316406 -14.898438 6.539062 -14.695312 6.75 -14.5 C 6.695312 -14.3125 6.523438 -14.21875 6.234375 -14.21875 L 1.578125 -14.21875 Z M 1.390625 -9.9375 L 4.484375 -9.9375 L 5.28125 -10.9375 C 5.28125 -10.9375 5.363281 -10.867188 5.53125 -10.734375 C 5.707031 -10.597656 5.910156 -10.429688 6.140625 -10.234375 C 6.367188 -10.046875 6.570312 -9.863281 6.75 -9.6875 C 6.695312 -9.5 6.53125 -9.40625 6.25 -9.40625 L 1.53125 -9.40625 Z M 1.390625 -7.5 L 4.484375 -7.5 L 5.28125 -8.5 C 5.28125 -8.5 5.363281 -8.429688 5.53125 -8.296875 C 5.707031 -8.160156 5.910156 -8 6.140625 -7.8125 C 6.367188 -7.625 6.570312 -7.429688 6.75 -7.234375 C 6.695312 -7.035156 6.53125 -6.9375 6.25 -6.9375 L 1.53125 -6.9375 Z M 9.78125 -11.625 L 13.6875 -11.625 L 14.359375 -12.59375 C 14.359375 -12.59375 14.429688 -12.523438 14.578125 -12.390625 C 14.734375 -12.265625 14.910156 -12.109375 15.109375 -11.921875 C 15.304688 -11.734375 15.484375 -11.550781 15.640625 -11.375 C 15.597656 -11.175781 15.4375 -11.078125 15.15625 -11.078125 L 9.9375 -11.078125 Z M 9.53125 -8.859375 L 13.921875 -8.859375 L 14.65625 -9.90625 C 14.65625 -9.90625 14.726562 -9.832031 14.875 -9.6875 C 15.03125 -9.550781 15.210938 -9.382812 15.421875 -9.1875 C 15.628906 -8.988281 15.816406 -8.796875 15.984375 -8.609375 C 15.929688 -8.398438 15.765625 -8.296875 15.484375 -8.296875 L 9.6875 -8.296875 Z M 0.625 -12.375 L 5.15625 -12.375 L 5.984375 -13.453125 C 5.984375 -13.453125 6.070312 -13.378906 6.25 -13.234375 C 6.425781 -13.085938 6.640625 -12.910156 6.890625 -12.703125 C 7.140625 -12.503906 7.363281 -12.3125 7.5625 -12.125 C 7.507812 -11.914062 7.34375 -11.8125 7.0625 -11.8125 L 0.78125 -11.8125 Z M 1.46875 -5.015625 L 1.46875 -5.65625 L 2.921875 -5.015625 L 5.953125 -5.015625 L 5.953125 -4.46875 L 2.828125 -4.46875 L 2.828125 0.96875 C 2.828125 1.007812 2.769531 1.066406 2.65625 1.140625 C 2.539062 1.210938 2.394531 1.273438 2.21875 1.328125 C 2.039062 1.390625 1.859375 1.421875 1.671875 1.421875 L 1.46875 1.421875 Z M 5 -5.015625 L 4.828125 -5.015625 L 5.5625 -5.8125 L 7.140625 -4.59375 C 7.015625 -4.414062 6.765625 -4.296875 6.390625 -4.234375 L 6.390625 0.1875 C 6.390625 0.226562 6.320312 0.28125 6.1875 0.34375 C 6.0625 0.414062 5.910156 0.476562 5.734375 0.53125 C 5.554688 0.59375 5.382812 0.625 5.21875 0.625 L 5 0.625 Z M 2.1875 -0.875 L 5.90625 -0.875 L 5.90625 -0.34375 L 2.1875 -0.34375 Z M 10.3125 -6.875 L 10.3125 -7.421875 L 11.578125 -6.875 L 14.15625 -6.875 L 14.15625 -6.328125 L 11.5 -6.328125 L 11.5 -1.484375 C 11.5 -1.441406 11.445312 -1.390625 11.34375 -1.328125 C 11.238281 -1.265625 11.109375 -1.207031 10.953125 -1.15625 C 10.804688 -1.101562 10.648438 -1.078125 10.484375 -1.078125 L 10.3125 -1.078125 Z M 13.546875 -6.875 L 13.375 -6.875 L 14.046875 -7.5625 L 15.46875 -6.484375 C 15.34375 -6.316406 15.101562 -6.203125 14.75 -6.140625 L 14.75 -1.953125 C 14.75 -1.898438 14.691406 -1.84375 14.578125 -1.78125 C 14.472656 -1.71875 14.34375 -1.65625 14.1875 -1.59375 C 14.039062 -1.539062 13.890625 -1.515625 13.734375 -1.515625 L 13.546875 -1.515625 Z M 10.9375 -3.0625 L 14.140625 -3.0625 L 14.140625 -2.515625 L 10.9375 -2.515625 Z M 8.890625 -14.78125 L 16.734375 -14.78125 L 16.734375 -14.25 L 8.890625 -14.25 Z M 16.0625 -14.78125 L 15.890625 -14.78125 L 16.5625 -15.640625 L 18.234375 -14.390625 C 18.097656 -14.203125 17.847656 -14.078125 17.484375 -14.015625 L 17.484375 -0.4375 C 17.484375 -0.0507812 17.4375 0.273438 17.34375 0.546875 C 17.257812 0.816406 17.066406 1.03125 16.765625 1.1875 C 16.472656 1.351562 16.007812 1.476562 15.375 1.5625 C 15.34375 1.320312 15.296875 1.113281 15.234375 0.9375 C 15.179688 0.757812 15.09375 0.613281 14.96875 0.5 C 14.84375 0.363281 14.660156 0.253906 14.421875 0.171875 C 14.179688 0.0976562 13.851562 0.03125 13.4375 -0.03125 L 13.4375 -0.328125 C 13.4375 -0.328125 13.523438 -0.316406 13.703125 -0.296875 C 13.890625 -0.285156 14.113281 -0.269531 14.375 -0.25 C 14.644531 -0.238281 14.894531 -0.222656 15.125 -0.203125 C 15.363281 -0.191406 15.53125 -0.1875 15.625 -0.1875 C 15.78125 -0.1875 15.890625 -0.21875 15.953125 -0.28125 C 16.023438 -0.34375 16.0625 -0.453125 16.0625 -0.609375 Z M 7.96875 -14.78125 L 7.96875 -15.46875 L 9.578125 -14.78125 L 9.328125 -14.78125 L 9.328125 -8.859375 C 9.328125 -8.015625 9.300781 -7.128906 9.25 -6.203125 C 9.195312 -5.285156 9.082031 -4.367188 8.90625 -3.453125 C 8.726562 -2.546875 8.441406 -1.660156 8.046875 -0.796875 C 7.660156 0.0664062 7.117188 0.851562 6.421875 1.5625 L 6.125 1.390625 C 6.695312 0.398438 7.109375 -0.648438 7.359375 -1.765625 C 7.617188 -2.890625 7.785156 -4.050781 7.859375 -5.25 C 7.929688 -6.445312 7.96875 -7.640625 7.96875 -8.828125 Z M 11.796875 -13.84375 L 13.640625 -13.65625 C 13.628906 -13.53125 13.578125 -13.429688 13.484375 -13.359375 C 13.398438 -13.285156 13.265625 -13.234375 13.078125 -13.203125 L 13.078125 -8.515625 L 11.796875 -8.515625 Z M 11.796875 -13.84375 "/></g></g></g><g fill="#000000" fill-opacity="1"><g transform="translate(404.997076, 475.541588)"><g><path d="M 5.90625 -8.125 C 6.664062 -7.863281 7.28125 -7.570312 7.75 -7.25 C 8.21875 -6.9375 8.566406 -6.617188 8.796875 -6.296875 C 9.023438 -5.984375 9.15625 -5.695312 9.1875 -5.4375 C 9.21875 -5.175781 9.179688 -4.960938 9.078125 -4.796875 C 8.984375 -4.628906 8.832031 -4.535156 8.625 -4.515625 C 8.425781 -4.492188 8.210938 -4.566406 7.984375 -4.734375 C 7.878906 -5.085938 7.695312 -5.457031 7.4375 -5.84375 C 7.1875 -6.238281 6.90625 -6.625 6.59375 -7 C 6.28125 -7.375 5.984375 -7.707031 5.703125 -8 Z M 6 1.0625 C 6 1.101562 5.945312 1.160156 5.84375 1.234375 C 5.738281 1.304688 5.59375 1.375 5.40625 1.4375 C 5.21875 1.5 5.003906 1.53125 4.765625 1.53125 L 4.515625 1.53125 L 4.515625 -13.84375 L 6 -14.40625 Z M 11.640625 -0.0625 C 11.640625 0 11.582031 0.0703125 11.46875 0.15625 C 11.363281 0.25 11.21875 0.328125 11.03125 0.390625 C 10.84375 0.460938 10.632812 0.5 10.40625 0.5 L 10.140625 0.5 L 10.140625 -13.6875 L 11.734375 -12.953125 L 16.484375 -12.953125 L 16.484375 -12.40625 L 11.640625 -12.40625 Z M 15.296875 -12.953125 L 16.09375 -13.890625 L 17.875 -12.5 C 17.820312 -12.414062 17.71875 -12.335938 17.5625 -12.265625 C 17.40625 -12.191406 17.226562 -12.140625 17.03125 -12.109375 L 17.03125 -0.25 C 17.007812 -0.21875 16.925781 -0.164062 16.78125 -0.09375 C 16.632812 -0.03125 16.46875 0.0234375 16.28125 0.078125 C 16.09375 0.128906 15.910156 0.15625 15.734375 0.15625 L 15.484375 0.15625 L 15.484375 -12.953125 Z M 16.46875 -2.34375 L 16.46875 -1.78125 L 10.796875 -1.78125 L 10.796875 -2.34375 Z M 5.703125 -9.5625 C 5.296875 -7.988281 4.679688 -6.523438 3.859375 -5.171875 C 3.046875 -3.828125 2.046875 -2.625 0.859375 -1.5625 L 0.609375 -1.78125 C 1.179688 -2.519531 1.691406 -3.332031 2.140625 -4.21875 C 2.597656 -5.101562 2.988281 -6.023438 3.3125 -6.984375 C 3.644531 -7.953125 3.910156 -8.910156 4.109375 -9.859375 L 5.703125 -9.859375 Z M 9.515625 -14.390625 C 9.410156 -14.296875 9.269531 -14.25 9.09375 -14.25 C 8.914062 -14.25 8.707031 -14.296875 8.46875 -14.390625 C 7.820312 -14.191406 7.066406 -14 6.203125 -13.8125 C 5.347656 -13.625 4.453125 -13.445312 3.515625 -13.28125 C 2.578125 -13.125 1.660156 -13.003906 0.765625 -12.921875 L 0.6875 -13.21875 C 1.507812 -13.4375 2.363281 -13.703125 3.25 -14.015625 C 4.144531 -14.328125 4.988281 -14.648438 5.78125 -14.984375 C 6.582031 -15.328125 7.242188 -15.640625 7.765625 -15.921875 Z M 8.15625 -11.109375 C 8.15625 -11.109375 8.210938 -11.0625 8.328125 -10.96875 C 8.453125 -10.875 8.601562 -10.75 8.78125 -10.59375 C 8.957031 -10.445312 9.144531 -10.285156 9.34375 -10.109375 C 9.539062 -9.941406 9.710938 -9.773438 9.859375 -9.609375 C 9.816406 -9.410156 9.648438 -9.3125 9.359375 -9.3125 L 0.9375 -9.3125 L 0.78125 -9.859375 L 7.234375 -9.859375 Z M 8.15625 -11.109375 "/></g></g></g><g fill="#000000" fill-opacity="1"><g transform="translate(546.474696, 214.122079)"><g><path d="M 0.71875 0.15625 L 15.203125 0.15625 L 16.296875 -1.21875 C 16.296875 -1.21875 16.363281 -1.164062 16.5 -1.0625 C 16.632812 -0.957031 16.804688 -0.820312 17.015625 -0.65625 C 17.222656 -0.5 17.441406 -0.320312 17.671875 -0.125 C 17.910156 0.0625 18.125 0.238281 18.3125 0.40625 C 18.257812 0.601562 18.082031 0.703125 17.78125 0.703125 L 0.890625 0.703125 Z M 2.90625 -5.984375 L 13.515625 -5.984375 L 14.578125 -7.3125 C 14.578125 -7.3125 14.640625 -7.257812 14.765625 -7.15625 C 14.898438 -7.0625 15.066406 -6.929688 15.265625 -6.765625 C 15.472656 -6.609375 15.691406 -6.4375 15.921875 -6.25 C 16.148438 -6.070312 16.359375 -5.898438 16.546875 -5.734375 C 16.503906 -5.535156 16.332031 -5.4375 16.03125 -5.4375 L 3.0625 -5.4375 Z M 4.046875 -11.359375 L 14.171875 -11.359375 L 15.25 -12.671875 C 15.25 -12.671875 15.3125 -12.625 15.4375 -12.53125 C 15.570312 -12.4375 15.734375 -12.304688 15.921875 -12.140625 C 16.117188 -11.984375 16.332031 -11.816406 16.5625 -11.640625 C 16.789062 -11.460938 17 -11.28125 17.1875 -11.09375 C 17.144531 -10.90625 16.976562 -10.8125 16.6875 -10.8125 L 3.765625 -10.8125 Z M 8.625 -15.921875 L 10.9375 -15.6875 C 10.914062 -15.5625 10.859375 -15.453125 10.765625 -15.359375 C 10.671875 -15.265625 10.503906 -15.195312 10.265625 -15.15625 L 10.265625 0.421875 L 8.625 0.421875 Z M 4.640625 -15.328125 L 6.96875 -14.59375 C 6.9375 -14.488281 6.859375 -14.398438 6.734375 -14.328125 C 6.617188 -14.253906 6.453125 -14.21875 6.234375 -14.21875 C 5.597656 -12.53125 4.816406 -11.015625 3.890625 -9.671875 C 2.972656 -8.328125 1.957031 -7.210938 0.84375 -6.328125 L 0.59375 -6.515625 C 1.132812 -7.210938 1.65625 -8.023438 2.15625 -8.953125 C 2.664062 -9.890625 3.132812 -10.898438 3.5625 -11.984375 C 4 -13.078125 4.359375 -14.191406 4.640625 -15.328125 Z M 4.640625 -15.328125 "/></g></g></g><g fill="#000000" fill-opacity="1"><g transform="translate(565.470812, 214.122079)"><g><path d="M 0.90625 -12.90625 L 15.09375 -12.90625 L 16.15625 -14.234375 C 16.15625 -14.234375 16.21875 -14.179688 16.34375 -14.078125 C 16.46875 -13.972656 16.628906 -13.84375 16.828125 -13.6875 C 17.035156 -13.53125 17.253906 -13.351562 17.484375 -13.15625 C 17.710938 -12.96875 17.921875 -12.796875 18.109375 -12.640625 C 18.054688 -12.429688 17.878906 -12.328125 17.578125 -12.328125 L 1.0625 -12.328125 Z M 6.171875 -5.4375 L 15.625 -5.4375 L 16.625 -6.703125 C 16.625 -6.703125 16.679688 -6.648438 16.796875 -6.546875 C 16.921875 -6.453125 17.078125 -6.328125 17.265625 -6.171875 C 17.460938 -6.023438 17.664062 -5.863281 17.875 -5.6875 C 18.09375 -5.519531 18.285156 -5.351562 18.453125 -5.1875 C 18.410156 -4.988281 18.242188 -4.890625 17.953125 -4.890625 L 6.328125 -4.890625 Z M 7.140625 -16.015625 L 9.421875 -15.296875 C 9.378906 -15.171875 9.304688 -15.082031 9.203125 -15.03125 C 9.097656 -14.976562 8.914062 -14.953125 8.65625 -14.953125 C 8.34375 -14.078125 7.953125 -13.171875 7.484375 -12.234375 C 7.023438 -11.296875 6.476562 -10.367188 5.84375 -9.453125 C 5.207031 -8.535156 4.472656 -7.664062 3.640625 -6.84375 C 2.816406 -6.03125 1.890625 -5.300781 0.859375 -4.65625 L 0.640625 -4.890625 C 1.492188 -5.597656 2.269531 -6.398438 2.96875 -7.296875 C 3.675781 -8.191406 4.296875 -9.132812 4.828125 -10.125 C 5.367188 -11.113281 5.832031 -12.109375 6.21875 -13.109375 C 6.601562 -14.117188 6.910156 -15.085938 7.140625 -16.015625 Z M 7.546875 -10.0625 L 15.453125 -10.0625 L 15.453125 -9.53125 L 7.71875 -9.53125 Z M 14.8125 -10.0625 L 14.59375 -10.0625 L 15.546875 -10.984375 L 17.125 -9.46875 C 17.039062 -9.382812 16.9375 -9.332031 16.8125 -9.3125 C 16.695312 -9.300781 16.535156 -9.285156 16.328125 -9.265625 C 16.003906 -9.015625 15.609375 -8.742188 15.140625 -8.453125 C 14.671875 -8.171875 14.179688 -7.90625 13.671875 -7.65625 C 13.171875 -7.414062 12.707031 -7.203125 12.28125 -7.015625 L 12.0625 -7.1875 C 12.363281 -7.4375 12.691406 -7.734375 13.046875 -8.078125 C 13.398438 -8.429688 13.738281 -8.785156 14.0625 -9.140625 C 14.382812 -9.492188 14.632812 -9.800781 14.8125 -10.0625 Z M 11.53125 -7.484375 L 13.71875 -7.28125 C 13.695312 -7.132812 13.632812 -7.023438 13.53125 -6.953125 C 13.425781 -6.878906 13.273438 -6.828125 13.078125 -6.796875 L 13.078125 -0.515625 C 13.078125 -0.117188 13.023438 0.21875 12.921875 0.5 C 12.816406 0.789062 12.597656 1.019531 12.265625 1.1875 C 11.941406 1.351562 11.4375 1.46875 10.75 1.53125 C 10.71875 1.289062 10.664062 1.078125 10.59375 0.890625 C 10.53125 0.710938 10.429688 0.5625 10.296875 0.4375 C 10.140625 0.3125 9.925781 0.207031 9.65625 0.125 C 9.394531 0.0390625 9.03125 -0.03125 8.5625 -0.09375 L 8.5625 -0.375 C 8.5625 -0.375 8.671875 -0.367188 8.890625 -0.359375 C 9.117188 -0.347656 9.378906 -0.328125 9.671875 -0.296875 C 9.972656 -0.273438 10.253906 -0.257812 10.515625 -0.25 C 10.785156 -0.238281 10.976562 -0.234375 11.09375 -0.234375 C 11.257812 -0.234375 11.375 -0.265625 11.4375 -0.328125 C 11.5 -0.390625 11.53125 -0.484375 11.53125 -0.609375 Z M 3.671875 -9.640625 L 5.890625 -9.25 C 5.847656 -9.039062 5.609375 -8.898438 5.171875 -8.828125 L 5.171875 1 C 5.171875 1.039062 5.125 1.101562 5.03125 1.1875 C 4.9375 1.28125 4.789062 1.359375 4.59375 1.421875 C 4.40625 1.484375 4.164062 1.515625 3.875 1.515625 L 3.671875 1.515625 Z M 3.671875 -9.640625 "/></g></g></g><g fill="#000000" fill-opacity="1"><g transform="translate(584.466928, 214.122079)"><g><path d="M 0.71875 -14.484375 L 15.234375 -14.484375 L 16.328125 -15.828125 C 16.328125 -15.828125 16.390625 -15.769531 16.515625 -15.65625 C 16.640625 -15.550781 16.804688 -15.421875 17.015625 -15.265625 C 17.234375 -15.109375 17.453125 -14.9375 17.671875 -14.75 C 17.898438 -14.570312 18.109375 -14.398438 18.296875 -14.234375 C 18.253906 -14.023438 18.082031 -13.921875 17.78125 -13.921875 L 0.875 -13.921875 Z M 13.796875 -14.34375 L 15.328125 -14.34375 L 15.328125 -0.671875 C 15.328125 -0.296875 15.269531 0.0390625 15.15625 0.34375 C 15.039062 0.65625 14.796875 0.914062 14.421875 1.125 C 14.054688 1.332031 13.492188 1.46875 12.734375 1.53125 C 12.722656 1.28125 12.664062 1.0625 12.5625 0.875 C 12.46875 0.6875 12.328125 0.53125 12.140625 0.40625 C 11.953125 0.269531 11.6875 0.15625 11.34375 0.0625 C 11.007812 -0.03125 10.539062 -0.113281 9.9375 -0.1875 L 9.9375 -0.46875 C 9.9375 -0.46875 10.03125 -0.460938 10.21875 -0.453125 C 10.40625 -0.441406 10.644531 -0.425781 10.9375 -0.40625 C 11.226562 -0.382812 11.53125 -0.363281 11.84375 -0.34375 C 12.164062 -0.332031 12.453125 -0.316406 12.703125 -0.296875 C 12.960938 -0.285156 13.144531 -0.28125 13.25 -0.28125 C 13.457031 -0.28125 13.597656 -0.316406 13.671875 -0.390625 C 13.753906 -0.472656 13.796875 -0.585938 13.796875 -0.734375 Z M 2.9375 -10.65625 L 2.9375 -11.328125 L 4.5 -10.65625 L 9.4375 -10.65625 L 9.4375 -10.09375 L 4.40625 -10.09375 L 4.40625 -2.734375 C 4.40625 -2.691406 4.34375 -2.628906 4.21875 -2.546875 C 4.101562 -2.472656 3.953125 -2.398438 3.765625 -2.328125 C 3.585938 -2.265625 3.390625 -2.234375 3.171875 -2.234375 L 2.9375 -2.234375 Z M 8.65625 -10.65625 L 8.46875 -10.65625 L 9.25 -11.515625 L 10.9375 -10.21875 C 10.894531 -10.144531 10.800781 -10.066406 10.65625 -9.984375 C 10.519531 -9.910156 10.347656 -9.859375 10.140625 -9.828125 L 10.140625 -3.4375 C 10.140625 -3.394531 10.066406 -3.335938 9.921875 -3.265625 C 9.773438 -3.203125 9.609375 -3.140625 9.421875 -3.078125 C 9.234375 -3.023438 9.054688 -3 8.890625 -3 L 8.65625 -3 Z M 3.640625 -5.03125 L 9.40625 -5.03125 L 9.40625 -4.484375 L 3.640625 -4.484375 Z M 3.640625 -5.03125 "/></g></g></g><g fill="#000000" fill-opacity="1"><g transform="translate(603.463044, 214.122079)"><g><path d="M 6.3125 -14.15625 C 7.082031 -13.914062 7.703125 -13.632812 8.171875 -13.3125 C 8.648438 -12.988281 9.003906 -12.660156 9.234375 -12.328125 C 9.460938 -12.003906 9.59375 -11.703125 9.625 -11.421875 C 9.65625 -11.140625 9.613281 -10.90625 9.5 -10.71875 C 9.382812 -10.53125 9.21875 -10.421875 9 -10.390625 C 8.789062 -10.359375 8.554688 -10.429688 8.296875 -10.609375 C 8.203125 -10.984375 8.03125 -11.378906 7.78125 -11.796875 C 7.539062 -12.210938 7.269531 -12.617188 6.96875 -13.015625 C 6.675781 -13.410156 6.382812 -13.742188 6.09375 -14.015625 Z M 3.96875 -16.015625 L 6.3125 -15.5 C 6.269531 -15.375 6.191406 -15.273438 6.078125 -15.203125 C 5.972656 -15.128906 5.816406 -15.09375 5.609375 -15.09375 C 5.410156 -14.726562 5.171875 -14.320312 4.890625 -13.875 C 4.609375 -13.425781 4.3125 -12.976562 4 -12.53125 C 3.6875 -12.082031 3.375 -11.660156 3.0625 -11.265625 L 2.71875 -11.265625 C 2.863281 -11.722656 3.015625 -12.226562 3.171875 -12.78125 C 3.335938 -13.34375 3.488281 -13.90625 3.625 -14.46875 C 3.769531 -15.03125 3.882812 -15.546875 3.96875 -16.015625 Z M 0.5625 -11.9375 C 1.019531 -11.945312 1.648438 -11.96875 2.453125 -12 C 3.265625 -12.039062 4.175781 -12.09375 5.1875 -12.15625 C 6.195312 -12.21875 7.242188 -12.28125 8.328125 -12.34375 L 8.34375 -12.046875 C 7.59375 -11.859375 6.671875 -11.640625 5.578125 -11.390625 C 4.492188 -11.140625 3.210938 -10.859375 1.734375 -10.546875 C 1.679688 -10.429688 1.609375 -10.34375 1.515625 -10.28125 C 1.429688 -10.226562 1.34375 -10.191406 1.25 -10.171875 Z M 2.484375 -6.53125 L 7.9375 -6.53125 L 7.9375 -5.984375 L 2.484375 -5.984375 Z M 2.453125 -3.765625 L 7.90625 -3.765625 L 7.90625 -3.234375 L 2.453125 -3.234375 Z M 1.953125 -9.25 L 1.953125 -9.9375 L 3.515625 -9.25 L 8.125 -9.25 L 8.125 -8.703125 L 3.421875 -8.703125 L 3.421875 0.96875 C 3.421875 1.019531 3.363281 1.085938 3.25 1.171875 C 3.132812 1.265625 2.984375 1.34375 2.796875 1.40625 C 2.609375 1.46875 2.40625 1.5 2.1875 1.5 L 1.953125 1.5 Z M 10.546875 -15.78125 L 12.640625 -15.578125 C 12.617188 -15.460938 12.5625 -15.359375 12.46875 -15.265625 C 12.375 -15.179688 12.234375 -15.128906 12.046875 -15.109375 L 12.046875 -9.515625 C 12.046875 -9.367188 12.085938 -9.269531 12.171875 -9.21875 C 12.253906 -9.164062 12.453125 -9.140625 12.765625 -9.140625 L 14.453125 -9.140625 C 14.804688 -9.140625 15.125 -9.140625 15.40625 -9.140625 C 15.6875 -9.140625 15.882812 -9.144531 16 -9.15625 C 16.101562 -9.164062 16.1875 -9.179688 16.25 -9.203125 C 16.3125 -9.234375 16.359375 -9.28125 16.390625 -9.34375 C 16.484375 -9.488281 16.582031 -9.738281 16.6875 -10.09375 C 16.800781 -10.457031 16.914062 -10.867188 17.03125 -11.328125 L 17.234375 -11.328125 L 17.3125 -9.296875 C 17.539062 -9.203125 17.691406 -9.109375 17.765625 -9.015625 C 17.847656 -8.929688 17.890625 -8.8125 17.890625 -8.65625 C 17.890625 -8.445312 17.789062 -8.273438 17.59375 -8.140625 C 17.40625 -8.003906 17.054688 -7.90625 16.546875 -7.84375 C 16.035156 -7.789062 15.300781 -7.765625 14.34375 -7.765625 L 12.4375 -7.765625 C 11.90625 -7.765625 11.503906 -7.804688 11.234375 -7.890625 C 10.960938 -7.972656 10.78125 -8.117188 10.6875 -8.328125 C 10.59375 -8.535156 10.546875 -8.828125 10.546875 -9.203125 Z M 6.96875 -9.25 L 6.78125 -9.25 L 7.53125 -10.125 L 9.296875 -8.796875 C 9.242188 -8.734375 9.144531 -8.660156 9 -8.578125 C 8.851562 -8.492188 8.6875 -8.441406 8.5 -8.421875 L 8.5 -0.5 C 8.5 -0.113281 8.457031 0.21875 8.375 0.5 C 8.289062 0.789062 8.109375 1.015625 7.828125 1.171875 C 7.546875 1.328125 7.109375 1.4375 6.515625 1.5 C 6.503906 1.257812 6.472656 1.039062 6.421875 0.84375 C 6.378906 0.65625 6.3125 0.507812 6.21875 0.40625 C 6.113281 0.269531 5.96875 0.160156 5.78125 0.078125 C 5.601562 0.00390625 5.351562 -0.0546875 5.03125 -0.109375 L 5.03125 -0.40625 C 5.03125 -0.40625 5.097656 -0.398438 5.234375 -0.390625 C 5.367188 -0.378906 5.523438 -0.367188 5.703125 -0.359375 C 5.890625 -0.347656 6.070312 -0.335938 6.25 -0.328125 C 6.425781 -0.328125 6.5625 -0.328125 6.65625 -0.328125 C 6.78125 -0.328125 6.863281 -0.351562 6.90625 -0.40625 C 6.945312 -0.46875 6.96875 -0.554688 6.96875 -0.671875 Z M 16.015625 -14.78125 L 17.703125 -13.53125 C 17.546875 -13.351562 17.222656 -13.332031 16.734375 -13.46875 C 16.347656 -13.28125 15.882812 -13.070312 15.34375 -12.84375 C 14.800781 -12.625 14.222656 -12.410156 13.609375 -12.203125 C 12.992188 -12.003906 12.382812 -11.835938 11.78125 -11.703125 L 11.671875 -11.984375 C 12.203125 -12.210938 12.738281 -12.488281 13.28125 -12.8125 C 13.832031 -13.144531 14.347656 -13.484375 14.828125 -13.828125 C 15.316406 -14.179688 15.710938 -14.5 16.015625 -14.78125 Z M 10.546875 -7.109375 L 12.65625 -6.875 C 12.625 -6.625 12.425781 -6.472656 12.0625 -6.421875 L 12.0625 -0.609375 C 12.0625 -0.453125 12.101562 -0.347656 12.1875 -0.296875 C 12.269531 -0.253906 12.476562 -0.234375 12.8125 -0.234375 L 14.546875 -0.234375 C 14.929688 -0.234375 15.265625 -0.234375 15.546875 -0.234375 C 15.835938 -0.234375 16.039062 -0.238281 16.15625 -0.25 C 16.34375 -0.25 16.476562 -0.316406 16.5625 -0.453125 C 16.644531 -0.609375 16.738281 -0.882812 16.84375 -1.28125 C 16.945312 -1.675781 17.0625 -2.117188 17.1875 -2.609375 L 17.40625 -2.609375 L 17.484375 -0.40625 C 17.710938 -0.3125 17.863281 -0.21875 17.9375 -0.125 C 18.019531 -0.03125 18.0625 0.09375 18.0625 0.25 C 18.0625 0.457031 17.960938 0.628906 17.765625 0.765625 C 17.578125 0.910156 17.222656 1.007812 16.703125 1.0625 C 16.179688 1.125 15.425781 1.15625 14.4375 1.15625 L 12.484375 1.15625 C 11.953125 1.15625 11.546875 1.113281 11.265625 1.03125 C 10.984375 0.945312 10.789062 0.796875 10.6875 0.578125 C 10.59375 0.367188 10.546875 0.0820312 10.546875 -0.28125 Z M 16.0625 -6.28125 L 17.890625 -5.046875 C 17.816406 -4.960938 17.703125 -4.90625 17.546875 -4.875 C 17.390625 -4.851562 17.179688 -4.875 16.921875 -4.9375 C 16.523438 -4.707031 16.039062 -4.460938 15.46875 -4.203125 C 14.90625 -3.941406 14.300781 -3.695312 13.65625 -3.46875 C 13.007812 -3.25 12.363281 -3.054688 11.71875 -2.890625 L 11.578125 -3.171875 C 12.128906 -3.421875 12.695312 -3.726562 13.28125 -4.09375 C 13.863281 -4.46875 14.398438 -4.847656 14.890625 -5.234375 C 15.378906 -5.617188 15.769531 -5.96875 16.0625 -6.28125 Z M 16.0625 -6.28125 "/></g></g></g><g fill="#000000" fill-opacity="1"><g transform="translate(643.623667, 108.211656)"><g><path d="M 0.71875 0.15625 L 15.203125 0.15625 L 16.296875 -1.21875 C 16.296875 -1.21875 16.363281 -1.164062 16.5 -1.0625 C 16.632812 -0.957031 16.804688 -0.820312 17.015625 -0.65625 C 17.222656 -0.5 17.441406 -0.320312 17.671875 -0.125 C 17.910156 0.0625 18.125 0.238281 18.3125 0.40625 C 18.257812 0.601562 18.082031 0.703125 17.78125 0.703125 L 0.890625 0.703125 Z M 2.90625 -5.984375 L 13.515625 -5.984375 L 14.578125 -7.3125 C 14.578125 -7.3125 14.640625 -7.257812 14.765625 -7.15625 C 14.898438 -7.0625 15.066406 -6.929688 15.265625 -6.765625 C 15.472656 -6.609375 15.691406 -6.4375 15.921875 -6.25 C 16.148438 -6.070312 16.359375 -5.898438 16.546875 -5.734375 C 16.503906 -5.535156 16.332031 -5.4375 16.03125 -5.4375 L 3.0625 -5.4375 Z M 4.046875 -11.359375 L 14.171875 -11.359375 L 15.25 -12.671875 C 15.25 -12.671875 15.3125 -12.625 15.4375 -12.53125 C 15.570312 -12.4375 15.734375 -12.304688 15.921875 -12.140625 C 16.117188 -11.984375 16.332031 -11.816406 16.5625 -11.640625 C 16.789062 -11.460938 17 -11.28125 17.1875 -11.09375 C 17.144531 -10.90625 16.976562 -10.8125 16.6875 -10.8125 L 3.765625 -10.8125 Z M 8.625 -15.921875 L 10.9375 -15.6875 C 10.914062 -15.5625 10.859375 -15.453125 10.765625 -15.359375 C 10.671875 -15.265625 10.503906 -15.195312 10.265625 -15.15625 L 10.265625 0.421875 L 8.625 0.421875 Z M 4.640625 -15.328125 L 6.96875 -14.59375 C 6.9375 -14.488281 6.859375 -14.398438 6.734375 -14.328125 C 6.617188 -14.253906 6.453125 -14.21875 6.234375 -14.21875 C 5.597656 -12.53125 4.816406 -11.015625 3.890625 -9.671875 C 2.972656 -8.328125 1.957031 -7.210938 0.84375 -6.328125 L 0.59375 -6.515625 C 1.132812 -7.210938 1.65625 -8.023438 2.15625 -8.953125 C 2.664062 -9.890625 3.132812 -10.898438 3.5625 -11.984375 C 4 -13.078125 4.359375 -14.191406 4.640625 -15.328125 Z M 4.640625 -15.328125 "/></g></g></g><g fill="#000000" fill-opacity="1"><g transform="translate(662.619783, 108.211656)"><g><path d="M 0.90625 -12.90625 L 15.09375 -12.90625 L 16.15625 -14.234375 C 16.15625 -14.234375 16.21875 -14.179688 16.34375 -14.078125 C 16.46875 -13.972656 16.628906 -13.84375 16.828125 -13.6875 C 17.035156 -13.53125 17.253906 -13.351562 17.484375 -13.15625 C 17.710938 -12.96875 17.921875 -12.796875 18.109375 -12.640625 C 18.054688 -12.429688 17.878906 -12.328125 17.578125 -12.328125 L 1.0625 -12.328125 Z M 6.171875 -5.4375 L 15.625 -5.4375 L 16.625 -6.703125 C 16.625 -6.703125 16.679688 -6.648438 16.796875 -6.546875 C 16.921875 -6.453125 17.078125 -6.328125 17.265625 -6.171875 C 17.460938 -6.023438 17.664062 -5.863281 17.875 -5.6875 C 18.09375 -5.519531 18.285156 -5.351562 18.453125 -5.1875 C 18.410156 -4.988281 18.242188 -4.890625 17.953125 -4.890625 L 6.328125 -4.890625 Z M 7.140625 -16.015625 L 9.421875 -15.296875 C 9.378906 -15.171875 9.304688 -15.082031 9.203125 -15.03125 C 9.097656 -14.976562 8.914062 -14.953125 8.65625 -14.953125 C 8.34375 -14.078125 7.953125 -13.171875 7.484375 -12.234375 C 7.023438 -11.296875 6.476562 -10.367188 5.84375 -9.453125 C 5.207031 -8.535156 4.472656 -7.664062 3.640625 -6.84375 C 2.816406 -6.03125 1.890625 -5.300781 0.859375 -4.65625 L 0.640625 -4.890625 C 1.492188 -5.597656 2.269531 -6.398438 2.96875 -7.296875 C 3.675781 -8.191406 4.296875 -9.132812 4.828125 -10.125 C 5.367188 -11.113281 5.832031 -12.109375 6.21875 -13.109375 C 6.601562 -14.117188 6.910156 -15.085938 7.140625 -16.015625 Z M 7.546875 -10.0625 L 15.453125 -10.0625 L 15.453125 -9.53125 L 7.71875 -9.53125 Z M 14.8125 -10.0625 L 14.59375 -10.0625 L 15.546875 -10.984375 L 17.125 -9.46875 C 17.039062 -9.382812 16.9375 -9.332031 16.8125 -9.3125 C 16.695312 -9.300781 16.535156 -9.285156 16.328125 -9.265625 C 16.003906 -9.015625 15.609375 -8.742188 15.140625 -8.453125 C 14.671875 -8.171875 14.179688 -7.90625 13.671875 -7.65625 C 13.171875 -7.414062 12.707031 -7.203125 12.28125 -7.015625 L 12.0625 -7.1875 C 12.363281 -7.4375 12.691406 -7.734375 13.046875 -8.078125 C 13.398438 -8.429688 13.738281 -8.785156 14.0625 -9.140625 C 14.382812 -9.492188 14.632812 -9.800781 14.8125 -10.0625 Z M 11.53125 -7.484375 L 13.71875 -7.28125 C 13.695312 -7.132812 13.632812 -7.023438 13.53125 -6.953125 C 13.425781 -6.878906 13.273438 -6.828125 13.078125 -6.796875 L 13.078125 -0.515625 C 13.078125 -0.117188 13.023438 0.21875 12.921875 0.5 C 12.816406 0.789062 12.597656 1.019531 12.265625 1.1875 C 11.941406 1.351562 11.4375 1.46875 10.75 1.53125 C 10.71875 1.289062 10.664062 1.078125 10.59375 0.890625 C 10.53125 0.710938 10.429688 0.5625 10.296875 0.4375 C 10.140625 0.3125 9.925781 0.207031 9.65625 0.125 C 9.394531 0.0390625 9.03125 -0.03125 8.5625 -0.09375 L 8.5625 -0.375 C 8.5625 -0.375 8.671875 -0.367188 8.890625 -0.359375 C 9.117188 -0.347656 9.378906 -0.328125 9.671875 -0.296875 C 9.972656 -0.273438 10.253906 -0.257812 10.515625 -0.25 C 10.785156 -0.238281 10.976562 -0.234375 11.09375 -0.234375 C 11.257812 -0.234375 11.375 -0.265625 11.4375 -0.328125 C 11.5 -0.390625 11.53125 -0.484375 11.53125 -0.609375 Z M 3.671875 -9.640625 L 5.890625 -9.25 C 5.847656 -9.039062 5.609375 -8.898438 5.171875 -8.828125 L 5.171875 1 C 5.171875 1.039062 5.125 1.101562 5.03125 1.1875 C 4.9375 1.28125 4.789062 1.359375 4.59375 1.421875 C 4.40625 1.484375 4.164062 1.515625 3.875 1.515625 L 3.671875 1.515625 Z M 3.671875 -9.640625 "/></g></g></g><g fill="#000000" fill-opacity="1"><g transform="translate(681.615899, 108.211656)"><g><path d="M 11.140625 -9.953125 C 12.453125 -9.585938 13.546875 -9.1875 14.421875 -8.75 C 15.304688 -8.320312 16.007812 -7.882812 16.53125 -7.4375 C 17.050781 -7 17.414062 -6.582031 17.625 -6.1875 C 17.832031 -5.800781 17.921875 -5.46875 17.890625 -5.1875 C 17.859375 -4.90625 17.734375 -4.71875 17.515625 -4.625 C 17.296875 -4.53125 17.023438 -4.550781 16.703125 -4.6875 C 16.429688 -5.101562 16.078125 -5.546875 15.640625 -6.015625 C 15.203125 -6.484375 14.710938 -6.941406 14.171875 -7.390625 C 13.640625 -7.847656 13.09375 -8.28125 12.53125 -8.6875 C 11.96875 -9.09375 11.4375 -9.445312 10.9375 -9.75 Z M 0.90625 -14.265625 L 14.96875 -14.265625 L 16.078125 -15.65625 C 16.078125 -15.65625 16.144531 -15.597656 16.28125 -15.484375 C 16.414062 -15.378906 16.585938 -15.242188 16.796875 -15.078125 C 17.015625 -14.921875 17.238281 -14.742188 17.46875 -14.546875 C 17.707031 -14.359375 17.921875 -14.179688 18.109375 -14.015625 C 18.066406 -13.816406 17.894531 -13.71875 17.59375 -13.71875 L 1.0625 -13.71875 Z M 8.703125 -10.609375 L 9.140625 -11.15625 L 10.828125 -10.546875 C 10.785156 -10.453125 10.71875 -10.375 10.625 -10.3125 C 10.539062 -10.25 10.410156 -10.207031 10.234375 -10.1875 L 10.234375 1.078125 C 10.234375 1.117188 10.164062 1.171875 10.03125 1.234375 C 9.90625 1.296875 9.742188 1.351562 9.546875 1.40625 C 9.359375 1.46875 9.171875 1.5 8.984375 1.5 L 8.703125 1.5 Z M 9.953125 -14.109375 L 12.171875 -14.109375 C 11.429688 -12.734375 10.476562 -11.414062 9.3125 -10.15625 C 8.15625 -8.90625 6.847656 -7.757812 5.390625 -6.71875 C 3.941406 -5.675781 2.410156 -4.785156 0.796875 -4.046875 L 0.625 -4.28125 C 1.625 -4.894531 2.597656 -5.582031 3.546875 -6.34375 C 4.503906 -7.113281 5.394531 -7.925781 6.21875 -8.78125 C 7.050781 -9.632812 7.785156 -10.515625 8.421875 -11.421875 C 9.066406 -12.328125 9.578125 -13.222656 9.953125 -14.109375 Z M 9.953125 -14.109375 "/></g></g></g><g fill="#000000" fill-opacity="1"><g transform="translate(700.612015, 108.211656)"><g><path d="M 6.3125 -14.15625 C 7.082031 -13.914062 7.703125 -13.632812 8.171875 -13.3125 C 8.648438 -12.988281 9.003906 -12.660156 9.234375 -12.328125 C 9.460938 -12.003906 9.59375 -11.703125 9.625 -11.421875 C 9.65625 -11.140625 9.613281 -10.90625 9.5 -10.71875 C 9.382812 -10.53125 9.21875 -10.421875 9 -10.390625 C 8.789062 -10.359375 8.554688 -10.429688 8.296875 -10.609375 C 8.203125 -10.984375 8.03125 -11.378906 7.78125 -11.796875 C 7.539062 -12.210938 7.269531 -12.617188 6.96875 -13.015625 C 6.675781 -13.410156 6.382812 -13.742188 6.09375 -14.015625 Z M 3.96875 -16.015625 L 6.3125 -15.5 C 6.269531 -15.375 6.191406 -15.273438 6.078125 -15.203125 C 5.972656 -15.128906 5.816406 -15.09375 5.609375 -15.09375 C 5.410156 -14.726562 5.171875 -14.320312 4.890625 -13.875 C 4.609375 -13.425781 4.3125 -12.976562 4 -12.53125 C 3.6875 -12.082031 3.375 -11.660156 3.0625 -11.265625 L 2.71875 -11.265625 C 2.863281 -11.722656 3.015625 -12.226562 3.171875 -12.78125 C 3.335938 -13.34375 3.488281 -13.90625 3.625 -14.46875 C 3.769531 -15.03125 3.882812 -15.546875 3.96875 -16.015625 Z M 0.5625 -11.9375 C 1.019531 -11.945312 1.648438 -11.96875 2.453125 -12 C 3.265625 -12.039062 4.175781 -12.09375 5.1875 -12.15625 C 6.195312 -12.21875 7.242188 -12.28125 8.328125 -12.34375 L 8.34375 -12.046875 C 7.59375 -11.859375 6.671875 -11.640625 5.578125 -11.390625 C 4.492188 -11.140625 3.210938 -10.859375 1.734375 -10.546875 C 1.679688 -10.429688 1.609375 -10.34375 1.515625 -10.28125 C 1.429688 -10.226562 1.34375 -10.191406 1.25 -10.171875 Z M 2.484375 -6.53125 L 7.9375 -6.53125 L 7.9375 -5.984375 L 2.484375 -5.984375 Z M 2.453125 -3.765625 L 7.90625 -3.765625 L 7.90625 -3.234375 L 2.453125 -3.234375 Z M 1.953125 -9.25 L 1.953125 -9.9375 L 3.515625 -9.25 L 8.125 -9.25 L 8.125 -8.703125 L 3.421875 -8.703125 L 3.421875 0.96875 C 3.421875 1.019531 3.363281 1.085938 3.25 1.171875 C 3.132812 1.265625 2.984375 1.34375 2.796875 1.40625 C 2.609375 1.46875 2.40625 1.5 2.1875 1.5 L 1.953125 1.5 Z M 10.546875 -15.78125 L 12.640625 -15.578125 C 12.617188 -15.460938 12.5625 -15.359375 12.46875 -15.265625 C 12.375 -15.179688 12.234375 -15.128906 12.046875 -15.109375 L 12.046875 -9.515625 C 12.046875 -9.367188 12.085938 -9.269531 12.171875 -9.21875 C 12.253906 -9.164062 12.453125 -9.140625 12.765625 -9.140625 L 14.453125 -9.140625 C 14.804688 -9.140625 15.125 -9.140625 15.40625 -9.140625 C 15.6875 -9.140625 15.882812 -9.144531 16 -9.15625 C 16.101562 -9.164062 16.1875 -9.179688 16.25 -9.203125 C 16.3125 -9.234375 16.359375 -9.28125 16.390625 -9.34375 C 16.484375 -9.488281 16.582031 -9.738281 16.6875 -10.09375 C 16.800781 -10.457031 16.914062 -10.867188 17.03125 -11.328125 L 17.234375 -11.328125 L 17.3125 -9.296875 C 17.539062 -9.203125 17.691406 -9.109375 17.765625 -9.015625 C 17.847656 -8.929688 17.890625 -8.8125 17.890625 -8.65625 C 17.890625 -8.445312 17.789062 -8.273438 17.59375 -8.140625 C 17.40625 -8.003906 17.054688 -7.90625 16.546875 -7.84375 C 16.035156 -7.789062 15.300781 -7.765625 14.34375 -7.765625 L 12.4375 -7.765625 C 11.90625 -7.765625 11.503906 -7.804688 11.234375 -7.890625 C 10.960938 -7.972656 10.78125 -8.117188 10.6875 -8.328125 C 10.59375 -8.535156 10.546875 -8.828125 10.546875 -9.203125 Z M 6.96875 -9.25 L 6.78125 -9.25 L 7.53125 -10.125 L 9.296875 -8.796875 C 9.242188 -8.734375 9.144531 -8.660156 9 -8.578125 C 8.851562 -8.492188 8.6875 -8.441406 8.5 -8.421875 L 8.5 -0.5 C 8.5 -0.113281 8.457031 0.21875 8.375 0.5 C 8.289062 0.789062 8.109375 1.015625 7.828125 1.171875 C 7.546875 1.328125 7.109375 1.4375 6.515625 1.5 C 6.503906 1.257812 6.472656 1.039062 6.421875 0.84375 C 6.378906 0.65625 6.3125 0.507812 6.21875 0.40625 C 6.113281 0.269531 5.96875 0.160156 5.78125 0.078125 C 5.601562 0.00390625 5.351562 -0.0546875 5.03125 -0.109375 L 5.03125 -0.40625 C 5.03125 -0.40625 5.097656 -0.398438 5.234375 -0.390625 C 5.367188 -0.378906 5.523438 -0.367188 5.703125 -0.359375 C 5.890625 -0.347656 6.070312 -0.335938 6.25 -0.328125 C 6.425781 -0.328125 6.5625 -0.328125 6.65625 -0.328125 C 6.78125 -0.328125 6.863281 -0.351562 6.90625 -0.40625 C 6.945312 -0.46875 6.96875 -0.554688 6.96875 -0.671875 Z M 16.015625 -14.78125 L 17.703125 -13.53125 C 17.546875 -13.351562 17.222656 -13.332031 16.734375 -13.46875 C 16.347656 -13.28125 15.882812 -13.070312 15.34375 -12.84375 C 14.800781 -12.625 14.222656 -12.410156 13.609375 -12.203125 C 12.992188 -12.003906 12.382812 -11.835938 11.78125 -11.703125 L 11.671875 -11.984375 C 12.203125 -12.210938 12.738281 -12.488281 13.28125 -12.8125 C 13.832031 -13.144531 14.347656 -13.484375 14.828125 -13.828125 C 15.316406 -14.179688 15.710938 -14.5 16.015625 -14.78125 Z M 10.546875 -7.109375 L 12.65625 -6.875 C 12.625 -6.625 12.425781 -6.472656 12.0625 -6.421875 L 12.0625 -0.609375 C 12.0625 -0.453125 12.101562 -0.347656 12.1875 -0.296875 C 12.269531 -0.253906 12.476562 -0.234375 12.8125 -0.234375 L 14.546875 -0.234375 C 14.929688 -0.234375 15.265625 -0.234375 15.546875 -0.234375 C 15.835938 -0.234375 16.039062 -0.238281 16.15625 -0.25 C 16.34375 -0.25 16.476562 -0.316406 16.5625 -0.453125 C 16.644531 -0.609375 16.738281 -0.882812 16.84375 -1.28125 C 16.945312 -1.675781 17.0625 -2.117188 17.1875 -2.609375 L 17.40625 -2.609375 L 17.484375 -0.40625 C 17.710938 -0.3125 17.863281 -0.21875 17.9375 -0.125 C 18.019531 -0.03125 18.0625 0.09375 18.0625 0.25 C 18.0625 0.457031 17.960938 0.628906 17.765625 0.765625 C 17.578125 0.910156 17.222656 1.007812 16.703125 1.0625 C 16.179688 1.125 15.425781 1.15625 14.4375 1.15625 L 12.484375 1.15625 C 11.953125 1.15625 11.546875 1.113281 11.265625 1.03125 C 10.984375 0.945312 10.789062 0.796875 10.6875 0.578125 C 10.59375 0.367188 10.546875 0.0820312 10.546875 -0.28125 Z M 16.0625 -6.28125 L 17.890625 -5.046875 C 17.816406 -4.960938 17.703125 -4.90625 17.546875 -4.875 C 17.390625 -4.851562 17.179688 -4.875 16.921875 -4.9375 C 16.523438 -4.707031 16.039062 -4.460938 15.46875 -4.203125 C 14.90625 -3.941406 14.300781 -3.695312 13.65625 -3.46875 C 13.007812 -3.25 12.363281 -3.054688 11.71875 -2.890625 L 11.578125 -3.171875 C 12.128906 -3.421875 12.695312 -3.726562 13.28125 -4.09375 C 13.863281 -4.46875 14.398438 -4.847656 14.890625 -5.234375 C 15.378906 -5.617188 15.769531 -5.96875 16.0625 -6.28125 Z M 16.0625 -6.28125 "/></g></g></g><g fill="#000000" fill-opacity="1"><g transform="translate(395.490218, 377.335196)"><g><path d="M 3.859375 -3.609375 L 3.859375 -4.28125 L 5.390625 -3.609375 L 14.484375 -3.609375 L 14.484375 -3.0625 L 5.28125 -3.0625 L 5.28125 1.0625 C 5.28125 1.101562 5.21875 1.160156 5.09375 1.234375 C 4.976562 1.304688 4.820312 1.367188 4.625 1.421875 C 4.4375 1.484375 4.25 1.515625 4.0625 1.515625 L 3.859375 1.515625 Z M 13.75 -3.609375 L 13.5625 -3.609375 L 14.328125 -4.421875 L 16 -3.171875 C 15.945312 -3.117188 15.851562 -3.054688 15.71875 -2.984375 C 15.582031 -2.910156 15.425781 -2.859375 15.25 -2.828125 L 15.25 0.96875 C 15.25 1.007812 15.171875 1.0625 15.015625 1.125 C 14.867188 1.1875 14.703125 1.242188 14.515625 1.296875 C 14.328125 1.359375 14.148438 1.390625 13.984375 1.390625 L 13.75 1.390625 Z M 4.5625 -0.140625 L 14.453125 -0.140625 L 14.453125 0.4375 L 4.5625 0.4375 Z M 8.71875 -13.4375 L 10.234375 -13.4375 L 10.234375 -5.4375 L 8.71875 -5.4375 Z M 2.140625 -13.4375 L 14.390625 -13.4375 L 15.3125 -14.546875 C 15.3125 -14.546875 15.40625 -14.472656 15.59375 -14.328125 C 15.789062 -14.179688 16.019531 -14.003906 16.28125 -13.796875 C 16.550781 -13.585938 16.789062 -13.382812 17 -13.1875 C 16.945312 -12.976562 16.773438 -12.875 16.484375 -12.875 L 2.3125 -12.875 Z M 1.421875 -8.703125 L 15.125 -8.703125 L 16.0625 -9.859375 C 16.0625 -9.859375 16.15625 -9.78125 16.34375 -9.625 C 16.539062 -9.476562 16.769531 -9.296875 17.03125 -9.078125 C 17.300781 -8.867188 17.546875 -8.660156 17.765625 -8.453125 C 17.710938 -8.253906 17.539062 -8.15625 17.25 -8.15625 L 1.59375 -8.15625 Z M 0.765625 -5.71875 L 15.546875 -5.71875 L 16.484375 -6.921875 C 16.484375 -6.921875 16.582031 -6.835938 16.78125 -6.671875 C 16.988281 -6.515625 17.222656 -6.328125 17.484375 -6.109375 C 17.753906 -5.890625 18.003906 -5.675781 18.234375 -5.46875 C 18.179688 -5.269531 18.015625 -5.171875 17.734375 -5.171875 L 0.9375 -5.171875 Z M 3.140625 -11.078125 L 13.609375 -11.078125 L 14.5 -12.203125 C 14.5 -12.203125 14.59375 -12.128906 14.78125 -11.984375 C 14.96875 -11.835938 15.191406 -11.660156 15.453125 -11.453125 C 15.710938 -11.242188 15.945312 -11.035156 16.15625 -10.828125 C 16.101562 -10.628906 15.9375 -10.53125 15.65625 -10.53125 L 3.28125 -10.53125 Z M 5.15625 -15.953125 C 5.78125 -15.835938 6.273438 -15.675781 6.640625 -15.46875 C 7.003906 -15.257812 7.257812 -15.035156 7.40625 -14.796875 C 7.550781 -14.554688 7.609375 -14.328125 7.578125 -14.109375 C 7.554688 -13.890625 7.472656 -13.707031 7.328125 -13.5625 C 7.191406 -13.414062 7.015625 -13.332031 6.796875 -13.3125 C 6.585938 -13.300781 6.367188 -13.378906 6.140625 -13.546875 C 6.097656 -13.953125 5.957031 -14.363281 5.71875 -14.78125 C 5.488281 -15.207031 5.234375 -15.554688 4.953125 -15.828125 Z M 4.515625 -8.25 C 5.128906 -8.101562 5.601562 -7.921875 5.9375 -7.703125 C 6.269531 -7.484375 6.5 -7.253906 6.625 -7.015625 C 6.757812 -6.785156 6.800781 -6.566406 6.75 -6.359375 C 6.707031 -6.148438 6.609375 -5.976562 6.453125 -5.84375 C 6.304688 -5.707031 6.125 -5.640625 5.90625 -5.640625 C 5.695312 -5.648438 5.476562 -5.742188 5.25 -5.921875 C 5.257812 -6.304688 5.164062 -6.703125 4.96875 -7.109375 C 4.78125 -7.523438 4.566406 -7.863281 4.328125 -8.125 Z M 12.0625 -16 L 14.25 -15.421875 C 14.15625 -15.171875 13.910156 -15.050781 13.515625 -15.0625 C 13.242188 -14.769531 12.890625 -14.453125 12.453125 -14.109375 C 12.023438 -13.773438 11.617188 -13.472656 11.234375 -13.203125 L 10.84375 -13.203125 C 11.0625 -13.585938 11.285156 -14.039062 11.515625 -14.5625 C 11.742188 -15.09375 11.925781 -15.570312 12.0625 -16 Z M 12.921875 -8.234375 L 14.984375 -7.65625 C 14.953125 -7.539062 14.878906 -7.445312 14.765625 -7.375 C 14.648438 -7.3125 14.488281 -7.285156 14.28125 -7.296875 C 14.019531 -7.015625 13.695312 -6.703125 13.3125 -6.359375 C 12.9375 -6.023438 12.554688 -5.722656 12.171875 -5.453125 L 11.84375 -5.453125 C 12.019531 -5.828125 12.207031 -6.273438 12.40625 -6.796875 C 12.613281 -7.328125 12.785156 -7.804688 12.921875 -8.234375 Z M 12.921875 -8.234375 "/></g></g></g><g fill="#000000" fill-opacity="1"><g transform="translate(595.595302, 377.335196)"><g><path d="M 1.25 -7.375 L 15.109375 -7.375 L 16.09375 -8.609375 C 16.09375 -8.609375 16.148438 -8.5625 16.265625 -8.46875 C 16.390625 -8.375 16.546875 -8.25 16.734375 -8.09375 C 16.929688 -7.9375 17.132812 -7.773438 17.34375 -7.609375 C 17.550781 -7.441406 17.734375 -7.28125 17.890625 -7.125 C 17.878906 -7.019531 17.828125 -6.941406 17.734375 -6.890625 C 17.648438 -6.847656 17.539062 -6.828125 17.40625 -6.828125 L 1.40625 -6.828125 Z M 2.046875 -12.875 L 14.546875 -12.875 L 15.546875 -14.109375 C 15.546875 -14.109375 15.601562 -14.0625 15.71875 -13.96875 C 15.84375 -13.875 15.992188 -13.753906 16.171875 -13.609375 C 16.359375 -13.460938 16.554688 -13.300781 16.765625 -13.125 C 16.972656 -12.957031 17.164062 -12.796875 17.34375 -12.640625 C 17.3125 -12.429688 17.148438 -12.328125 16.859375 -12.328125 L 2.21875 -12.328125 Z M 3.078125 -10.1875 L 13.65625 -10.1875 L 14.609375 -11.34375 C 14.609375 -11.34375 14.664062 -11.296875 14.78125 -11.203125 C 14.894531 -11.117188 15.039062 -11.003906 15.21875 -10.859375 C 15.394531 -10.722656 15.582031 -10.570312 15.78125 -10.40625 C 15.988281 -10.25 16.175781 -10.09375 16.34375 -9.9375 C 16.289062 -9.738281 16.117188 -9.640625 15.828125 -9.640625 L 3.21875 -9.640625 Z M 8.609375 -12.875 L 10.171875 -12.875 L 10.171875 -7.1875 L 8.609375 -7.1875 Z M 5.171875 -15.90625 C 5.835938 -15.75 6.367188 -15.550781 6.765625 -15.3125 C 7.171875 -15.082031 7.457031 -14.832031 7.625 -14.5625 C 7.800781 -14.289062 7.882812 -14.03125 7.875 -13.78125 C 7.863281 -13.53125 7.789062 -13.328125 7.65625 -13.171875 C 7.519531 -13.015625 7.347656 -12.921875 7.140625 -12.890625 C 6.929688 -12.867188 6.703125 -12.945312 6.453125 -13.125 C 6.410156 -13.425781 6.304688 -13.742188 6.140625 -14.078125 C 5.984375 -14.410156 5.800781 -14.722656 5.59375 -15.015625 C 5.394531 -15.304688 5.191406 -15.554688 4.984375 -15.765625 Z M 12.21875 -16.03125 L 14.421875 -15.328125 C 14.316406 -15.085938 14.070312 -14.984375 13.6875 -15.015625 C 13.363281 -14.640625 12.960938 -14.226562 12.484375 -13.78125 C 12.003906 -13.34375 11.53125 -12.945312 11.0625 -12.59375 L 10.703125 -12.59375 C 10.878906 -12.914062 11.0625 -13.273438 11.25 -13.671875 C 11.4375 -14.078125 11.613281 -14.488281 11.78125 -14.90625 C 11.957031 -15.332031 12.101562 -15.707031 12.21875 -16.03125 Z M 0.8125 -4.296875 L 15.375 -4.296875 L 16.390625 -5.546875 C 16.390625 -5.546875 16.453125 -5.5 16.578125 -5.40625 C 16.703125 -5.3125 16.859375 -5.179688 17.046875 -5.015625 C 17.242188 -4.859375 17.453125 -4.695312 17.671875 -4.53125 C 17.890625 -4.363281 18.085938 -4.203125 18.265625 -4.046875 C 18.210938 -3.847656 18.039062 -3.75 17.75 -3.75 L 0.984375 -3.75 Z M 8.328125 -6.5625 L 10.65625 -6.34375 C 10.644531 -6.207031 10.582031 -6.09375 10.46875 -6 C 10.363281 -5.914062 10.207031 -5.859375 10 -5.828125 C 9.9375 -5.109375 9.832031 -4.4375 9.6875 -3.8125 C 9.539062 -3.195312 9.289062 -2.625 8.9375 -2.09375 C 8.59375 -1.570312 8.09375 -1.085938 7.4375 -0.640625 C 6.78125 -0.203125 5.910156 0.195312 4.828125 0.5625 C 3.753906 0.9375 2.40625 1.269531 0.78125 1.5625 L 0.640625 1.21875 C 2.023438 0.851562 3.171875 0.46875 4.078125 0.0625 C 4.992188 -0.34375 5.726562 -0.773438 6.28125 -1.234375 C 6.832031 -1.703125 7.242188 -2.203125 7.515625 -2.734375 C 7.796875 -3.273438 7.988281 -3.863281 8.09375 -4.5 C 8.207031 -5.132812 8.285156 -5.820312 8.328125 -6.5625 Z M 10.09375 -4.25 C 10.53125 -3.351562 11.148438 -2.625 11.953125 -2.0625 C 12.765625 -1.5 13.710938 -1.070312 14.796875 -0.78125 C 15.890625 -0.488281 17.09375 -0.28125 18.40625 -0.15625 L 18.390625 0.03125 C 18.078125 0.125 17.816406 0.289062 17.609375 0.53125 C 17.410156 0.78125 17.265625 1.097656 17.171875 1.484375 C 15.890625 1.203125 14.769531 0.835938 13.8125 0.390625 C 12.863281 -0.046875 12.054688 -0.628906 11.390625 -1.359375 C 10.734375 -2.085938 10.203125 -3.003906 9.796875 -4.109375 Z M 10.09375 -4.25 "/></g></g></g><g fill="#000000" fill-opacity="1"><g transform="translate(188.761122, 377.335196)"><g><path d="M 0.84375 -2.9375 L 15.375 -2.9375 L 16.421875 -4.21875 C 16.421875 -4.21875 16.476562 -4.171875 16.59375 -4.078125 C 16.71875 -3.984375 16.875 -3.859375 17.0625 -3.703125 C 17.257812 -3.554688 17.46875 -3.390625 17.6875 -3.203125 C 17.914062 -3.023438 18.117188 -2.859375 18.296875 -2.703125 C 18.242188 -2.492188 18.066406 -2.390625 17.765625 -2.390625 L 1 -2.390625 Z M 11.0625 -1.75 C 12.3125 -1.601562 13.347656 -1.421875 14.171875 -1.203125 C 14.992188 -0.992188 15.632812 -0.765625 16.09375 -0.515625 C 16.5625 -0.265625 16.890625 -0.0195312 17.078125 0.21875 C 17.265625 0.46875 17.347656 0.691406 17.328125 0.890625 C 17.316406 1.097656 17.226562 1.253906 17.0625 1.359375 C 16.894531 1.472656 16.703125 1.523438 16.484375 1.515625 C 16.265625 1.515625 16.039062 1.429688 15.8125 1.265625 C 15.394531 0.816406 14.78125 0.347656 13.96875 -0.140625 C 13.15625 -0.628906 12.15625 -1.0625 10.96875 -1.4375 Z M 6.71875 -2.109375 L 8.609375 -0.8125 C 8.535156 -0.726562 8.414062 -0.675781 8.25 -0.65625 C 8.09375 -0.632812 7.882812 -0.65625 7.625 -0.71875 C 7.09375 -0.425781 6.457031 -0.132812 5.71875 0.15625 C 4.976562 0.445312 4.1875 0.707031 3.34375 0.9375 C 2.507812 1.175781 1.664062 1.367188 0.8125 1.515625 L 0.703125 1.234375 C 1.460938 0.984375 2.222656 0.664062 2.984375 0.28125 C 3.753906 -0.101562 4.46875 -0.503906 5.125 -0.921875 C 5.789062 -1.347656 6.320312 -1.742188 6.71875 -2.109375 Z M 8.6875 -15.984375 L 10.921875 -15.765625 C 10.910156 -15.640625 10.847656 -15.53125 10.734375 -15.4375 C 10.628906 -15.34375 10.457031 -15.273438 10.21875 -15.234375 L 10.21875 -11.25 L 8.6875 -11.25 Z M 1.640625 -13.8125 L 14.59375 -13.8125 L 15.640625 -15.0625 C 15.640625 -15.0625 15.703125 -15.015625 15.828125 -14.921875 C 15.953125 -14.828125 16.113281 -14.703125 16.3125 -14.546875 C 16.507812 -14.398438 16.710938 -14.238281 16.921875 -14.0625 C 17.140625 -13.882812 17.335938 -13.71875 17.515625 -13.5625 C 17.492188 -13.457031 17.429688 -13.378906 17.328125 -13.328125 C 17.234375 -13.285156 17.125 -13.265625 17 -13.265625 L 1.8125 -13.265625 Z M 4.5 -11.6875 L 4.5 -12.390625 L 6.140625 -11.6875 L 13.6875 -11.6875 L 13.6875 -11.109375 L 6.046875 -11.109375 L 6.046875 -3.984375 C 6.046875 -3.929688 5.976562 -3.863281 5.84375 -3.78125 C 5.707031 -3.707031 5.546875 -3.640625 5.359375 -3.578125 C 5.171875 -3.515625 4.960938 -3.484375 4.734375 -3.484375 L 4.5 -3.484375 Z M 13.046875 -11.6875 L 12.859375 -11.6875 L 13.65625 -12.5625 L 15.390625 -11.234375 C 15.328125 -11.148438 15.222656 -11.070312 15.078125 -11 C 14.941406 -10.9375 14.78125 -10.882812 14.59375 -10.84375 L 14.59375 -4.109375 C 14.59375 -4.054688 14.519531 -3.988281 14.375 -3.90625 C 14.226562 -3.832031 14.054688 -3.765625 13.859375 -3.703125 C 13.660156 -3.640625 13.472656 -3.609375 13.296875 -3.609375 L 13.046875 -3.609375 Z M 5.296875 -9.5 L 13.703125 -9.5 L 13.703125 -8.96875 L 5.296875 -8.96875 Z M 5.296875 -7.296875 L 13.703125 -7.296875 L 13.703125 -6.75 L 5.296875 -6.75 Z M 5.296875 -5 L 13.703125 -5 L 13.703125 -4.453125 L 5.296875 -4.453125 Z M 5.296875 -5 "/></g></g></g></svg>