<?xml version="1.0" encoding="UTF-8"?>
<svg id="_レイヤー_1" data-name="レイヤー 1" xmlns="http://www.w3.org/2000/svg" viewBox="0 0 301.68 444.61">
  <defs>
    <style>
      .cls-1 {
        fill: #fc9232;
      }

      .cls-2 {
        fill:rgb(229, 229, 229);
      }

      .cls-3 {
        fill: #505050;
      }
    </style>
  </defs>
  <path class="cls-2" d="m102.84,331.3c-11.16-5.64-23.09-9.56-33.69-16.5-12.45-8.14-22.98-18.11-33.13-28.91-12.01-12.77-18.69-28.43-25.84-43.76-4.66-9.99-7-21.06-8.49-32.19-2.46-18.49-2.28-36.78.89-55.26,4.84-28.16,18.12-52.09,35.01-74.44.57,6.92-.58,13.45-3.26,19.93-3.52,8.51-6.81,17.16-9.46,25.97-3.75,12.49-3.61,25.46-3.38,38.36.3,16.5,7.05,30.03,18.37,41.85,5.04,5.26,10.29,9.76,17.01,12.5.31.12.63.27.87.49,7.37,6.94,16.77,8.44,26.22,9.73,3.48.47,5.32-.52,4.4-4.76-1.22-5.6-1.86-11.32-2.6-17.02-.16-1.22-.68-3.01.61-3.68,1.57-.81,2.91.65,3.71,1.79,5.63,7.94,14.04,12.05,22.29,16.33,7.03,3.65,14.57,5.63,22.47,4.17,14.76-2.73,28.1-8.83,39.71-18.4,6.18-5.1,12.32-10.72,15.64-17.92,3.95-8.57,9.25-16.48,10.05-26.75,1.01-12.9,1.26-25.46-3.83-37.37-5.99-14.03-15.45-25.44-28.64-33.53-1.55-.95-3.81-1.39-4.09-3.81,6.94-.52,11.71,4.45,16.78,7.62,11.07,6.93,21.44,14.7,30.27,24.89,9.01,10.39,18.23,20.61,26.8,31.4,2.83,3.57,4.75,7.89,8.81,10.42,1.14,6.15,3.95,11.69,6.56,17.27,6.14,13.11,10.31,26.73,10.99,41.29,1.98,9.54.22,18.82-2.22,27.98-1.84,6.88-2.85,14.1-7.67,19.89-.99,1.19-2.37,2.42-2.09,4.32-1.57,2.27-3.74,4.33-4.6,6.84-2.92,8.49-10.29,13.4-16.11,19.11-7.48,7.34-16.99,12.62-25.62,18.79-9.31,4.62-18.66,9.13-28.66,12.08-3.13.92-6.35,1.57-9.55,2.24-18.64,3.91-37.3,4.4-55.97.19-1.91-.43-3.85-.76-5.78-1.13-.93,0-1.85-.01-2.78-.02Z"/>
  <path class="cls-1" d="m196.41,125.46c-5.99-14.03-15.45-25.44-28.64-33.53-1.53-.94-3.77-1.39-4.07-3.75-1.18.33-2.16-.02-2.98-.91-12.82-4.15-25.8-7.62-39.23-9.16-3.57-.41-7.09-1.24-10.64-1.85-1.14-.2-2.63-.27-2.58-1.69.04-1.15,1.29-1.92,2.42-2.27,2.2-.68,4.41-1.47,6.67-1.75,5.54-.69,10.44-3.13,15.46-5.24,14.91-6.26,18.1-24.13,12.66-36.25-.46-1.03-1.22-2.04-2.1-2.74-8.01-6.41-15.85-12.37-27.24-12.29-13.82.09-27.26,2.27-40.78,4.4-6.83,1.07-13.66,2.06-20.5,3.08-5.46,3.16-10.89,6.36-13.44,12.62,8.39,3.18,15.76,8.55,24.43,11.19,6.26,1.91,12.43,4.1,18.93,5.07,1.19-.15,2.38-.28,3.47.72-1.27,1.33-2.44.81-3.6.49-8.9.4-18.15,1.23-26.43-1.83-8.09-2.99-16.49-3.13-24.57-5.34,4.26,4.34,6.19,9.35,6.24,15.63.06,6.89-1.91,13.42-2.32,20.17.57,6.92-.58,13.45-3.26,19.93-3.52,8.51-6.81,17.16-9.46,25.97-3.75,12.49-3.61,25.46-3.38,38.36.3,16.5,7.05,30.03,18.37,41.85,5.04,5.26,10.29,9.76,17.01,12.5.31.12.63.27.87.49,7.37,6.94,16.77,8.44,26.22,9.73,3.48.47,5.32-.52,4.4-4.76-1.22-5.6-1.86-11.32-2.6-17.02-.16-1.22-.68-3.01.61-3.68,1.57-.81,2.91.65,3.71,1.79,5.63,7.94,14.04,12.05,22.29,16.33,7.03,3.65,14.57,5.63,22.47,4.17,14.76-2.73,28.1-8.83,39.71-18.4,6.18-5.1,12.32-10.72,15.64-17.92,3.95-8.57,9.25-16.48,10.05-26.75,1.01-12.9,1.26-25.46-3.83-37.37ZM102.85,36.21c.59-7.27,6.02-13.11,12.44-13.36,10.14-2.05,16.45.18,20.75,7.32,4.66,6.74,3.84,13.9.25,20.4-3.16,5.71-7.93,10.26-15.63,8.44-4.03,1.48-9.74-.36-12.39-4.28-3.76-5.56-6.64-11.45-5.42-18.51Z"/>
  <path d="m205.58,317.94c8.63-6.17,18.14-11.45,25.62-18.79,5.82-5.71,13.19-10.62,16.11-19.11.86-2.51,3.03-4.57,4.6-6.84,5.03,1.36,5.8,6.35,7.38,9.94,6.43,14.56,13.33,28.87,20.92,42.85,2.68,4.93,4.18,10.34,6.98,15.27,4.07,7.18,8.88,13.95,12.06,21.66,1.29,3.14,1.96,6.36,2.35,9.58,1.03,8.58-7.47,14.11-16.29,10.76-8.01-3.05-15.28-7.26-20.88-13.93-2.25-2.69-3.92-2.94-6.01.39-2.28,3.62-5.41,6.64-8.94,9.11-8.77,6.11-14.93,5-20.9-4.06-6.51-9.87-12.1-20.23-15.08-31.8-.37-1.42-1-2.77-1.51-4.16-2.01.47-1.18,1.92-1.19,2.84-.05,15.99-.1,31.97.03,47.96.04,5.64.52,11.28.86,16.91.39,6.33,4.11,10.45,9.4,13.16,8.95,4.58,15.69,12.14,24.06,17.49.76.49,1.77,1.4.93,2.42-.37.44-1.82.62-2.26.27-3.77-3.03-8.49-3.54-12.84-4.98-6.36-2.11-11.36-6.38-17.37-10.91,0,6.37.03,11.93-.02,17.49-.01,1.08.57,2.62-.84,3.09-1.34.44-1.79-1.11-2.6-1.86-4.95-4.55-2.71-10.95-4.25-16.37-.22-.77-.15-1.62-.31-3.47-10.58,11.56-25.53,13.1-37.82,20.08,4.64-5.72,11.12-8.93,16.76-13.24,6.15-4.69,13.89-7.56,18.55-13.79,4.01-5.35,5.88-11.9,5.2-19.06-.63-6.6-.89-13.34-.31-19.93,1.19-13.47.8-26.94.66-40.4-.06-6.2-1.98-12.37-3.06-18.56Z"/>
  <path d="m246.34,162.45c-.86-9.01-1.35-18.06-2.66-27-1.62-11.07-2.62-22.28-5.9-33.05-2.15-7.06-4.64-14.02-6.98-21.02,2.03-.03,2.3,1.72,2.83,3,3.29,7.95,8.45,14.91,12.18,22.56,5.26,10.78,9.58,22.06,13.62,33.37,4.09,11.45,4.2,23.62,5.68,35.58,1.2,9.68,1.49,19.3,1.78,28.93.16,5.41.78,11.33-3,16.19-.67-14.56-4.85-28.17-10.99-41.29-2.61-5.58-5.42-11.12-6.56-17.27Z"/>
  <path d="m102.84,331.3c.93,0,1.85.01,2.78.02-.7,10.16-3.44,19.91-6.47,29.52-4.82,15.33-10.08,30.53-15.35,45.71-.86,2.48-.78,3.5,1.92,4.15,8.23,1.98,14.21,7.54,20.19,13.06,3.39,3.13,3.93,8.02,7.1,11.27-.09.69-.18,1.37-.27,2.06-1.58-.18-2.76-1.03-3.59-2.33-4.41-6.9-10.95-10.97-18.39-13.84-1.13-1.08-2.48-1.66-4.03-1.82-6.12-2.39-7.99,2.21-10.15,6.24-1.33,2.47-2.45,5.07-3.85,7.49-.92,1.59-2.68,1.42-4.02.8-1.47-.67-.59-1.99-.19-3.04,1.07-2.79,2.16-5.57,3.21-8.36.33-.88,1.24-1.8.42-2.73-.82-.91-1.82-.14-2.77.06-9.59,2.05-17.8,7-25.9,12.22-2.87,1.85-5.87,3.5-9.11,4.88,1.67-4.22,4.19-7.81,7.88-10.15,8.95-5.67,17.86-11.63,28.48-13.81,5.54-1.14,7.27-5.66,9-9.75,9.85-23.18,17.47-47.1,23.1-71.66Z"/>
  <path d="m136.04,30.16c-4.3-7.14-10.62-9.37-20.75-7.32-6.42.26-11.85,6.09-12.44,13.36-1.22,7.05,1.66,12.94,5.42,18.51,2.65,3.92,8.36,5.76,12.39,4.28,7.7,1.82,12.47-2.73,15.63-8.44,3.59-6.49,4.41-13.66-.25-20.4Z"/>
  <path d="m84.79,50.39c-6.51-.96-12.67-3.16-18.93-5.07-8.67-2.64-16.04-8.01-24.43-11.19-13.13-3.6-26.37-5.36-39.97-2.32,10.37,3.24,20.44,6.78,29.78,12.15.68.39,1.61.32,2.43.47,8.08,2.21,16.48,2.35,24.57,5.34,8.27,3.06,17.53,2.23,26.43,1.83,1.15.32,2.33.84,3.6-.49-1.09-.99-2.28-.86-3.48-.72Z"/>
  <path class="cls-3" d="m243.68,135.45c-1.62-11.07-2.62-22.28-5.9-33.05-2.15-7.06-4.64-14.02-6.98-21.02.04-1.72-.47-3.28-1.37-4.72-7.49-11.97-15.83-23.23-25.03-34.04-8.52-10.02-18.32-17.71-29.38-24.42-11.28-6.84-23.49-11.31-36-14.84C126.68-.14,113.84-.11,101.03.05c-8.29.1-16.06,1.78-23.54,5.2-6.6,3.02-13.21,6.03-19.81,9.04-3.29,1.5-4.22,3.9-2.81,7.22,6.83-1.03,13.67-2.01,20.5-3.08,13.52-2.13,26.96-4.31,40.78-4.4,11.39-.08,19.23,5.89,27.24,12.29.88.7,1.64,1.71,2.1,2.74,5.44,12.12,2.25,30-12.66,36.25-5.02,2.11-9.92,4.55-15.46,5.24-2.26.28-4.48,1.07-6.67,1.75-1.13.35-2.38,1.12-2.42,2.27-.05,1.42,1.44,1.49,2.58,1.69,3.55.62,7.07,1.44,10.64,1.85,13.44,1.54,26.41,5.01,39.23,9.16.83.9,1.83,1.25,3.03.89,0-.02-.02-.03-.03-.05,6.92-.5,11.68,4.45,16.74,7.62,11.07,6.93,21.44,14.7,30.27,24.89,9.01,10.39,18.23,20.61,26.8,31.4,2.83,3.57,4.75,7.89,8.81,10.42-.86-9.01-1.35-18.06-2.66-27Z"/>
  <circle class="cls-2" cx="128.33" cy="34.3" r="4.04"/>
</svg>